<svg width="25" height="21" viewBox="0 0 25 21" fill="none" xmlns="http://www.w3.org/2000/svg">
<g id="Icon / Stellar">
<g id="Group">
<path id="Vector" d="M24.4995 3.00114C23.7007 3.40841 22.9025 3.81618 22.1037 4.22344C19.4812 5.55963 16.8586 6.8948 14.2356 8.23098C11.3496 9.70089 8.46373 11.1708 5.57781 12.6407C3.90707 13.4918 2.23684 14.3435 0.566097 15.1946C0.547285 15.2043 0.527964 15.2129 0.501525 15.2256C0.501525 15.1972 0.501525 15.1778 0.501525 15.1585C0.501525 14.5108 0.502034 13.863 0.5 13.2147C0.5 13.1674 0.515253 13.1456 0.556437 13.1247C0.831504 12.987 1.10911 12.8542 1.37808 12.7053C2.07007 12.3209 2.41225 11.7296 2.37361 10.9369C2.34615 10.371 2.33497 9.80563 2.38785 9.24126C2.55462 7.46629 3.13729 5.83978 4.15417 4.37445C5.26817 2.7693 6.72994 1.58462 8.52424 0.812301C9.24622 0.501643 9.99668 0.283012 10.771 0.149292C11.431 0.0348925 12.096 -0.0149348 12.7657 0.00387752C14.1659 0.043536 15.5026 0.355211 16.7737 0.943987C17.3518 1.21143 17.8994 1.53124 18.417 1.90291C18.4297 1.91206 18.4414 1.92223 18.4587 1.93545C18.4378 1.94765 18.4216 1.95782 18.4048 1.96646C17.8089 2.27051 17.2125 2.57354 16.6171 2.87861C16.5795 2.89793 16.5515 2.89895 16.5134 2.87861C15.6836 2.42101 14.801 2.11595 13.8664 1.96138C13.1328 1.83986 12.3955 1.81647 11.6552 1.89528C8.65338 2.21357 6.09032 4.08921 4.8843 6.85361C4.55788 7.60153 4.34993 8.3825 4.25434 9.19346C4.17756 9.84783 4.18061 10.5017 4.25841 11.1555C4.26146 11.1794 4.26603 11.2028 4.27112 11.2328C4.31128 11.2125 4.34789 11.1942 4.38501 11.1754C7.66599 9.50463 10.9475 7.8344 14.2284 6.16315C17.0788 4.71154 19.9291 3.25892 22.7794 1.80681C23.3347 1.52412 23.8894 1.24092 24.4446 0.958224C24.4619 0.94958 24.4812 0.944496 24.499 0.937378V3.00114H24.4995Z" fill="#15141F"/>
<path id="Vector_2" d="M12.2963 20.302C12.1687 20.2948 12.0416 20.2877 11.914 20.2806C11.159 20.2384 10.4182 20.1113 9.6916 19.9018C8.56438 19.5764 7.5236 19.0715 6.57078 18.3872C6.56112 18.3806 6.55248 18.3724 6.53824 18.3617C6.69484 18.2819 6.84737 18.2041 7.00041 18.1258C7.46462 17.8889 7.92883 17.6525 8.39253 17.414C8.42863 17.3957 8.451 17.4064 8.47998 17.4221C9.11096 17.7704 9.776 18.0318 10.4746 18.2072C11.2378 18.3989 12.0121 18.4792 12.7982 18.4517C16.4117 18.3251 19.5406 15.8536 20.5057 12.3667C20.7365 11.5318 20.8351 10.6817 20.8006 9.81687C20.7909 9.57536 20.7619 9.33486 20.7421 9.09386C20.7416 9.08624 20.738 9.07912 20.7329 9.06234C13.989 12.4974 7.24955 15.9304 0.501505 19.368C0.501505 19.338 0.501505 19.3186 0.501505 19.2993C0.501505 18.6516 0.501505 18.0038 0.500488 17.3555C0.500488 17.3123 0.511674 17.2894 0.551841 17.2686C3.98637 15.5206 7.42039 13.7715 10.8544 12.0225C13.5786 10.6355 16.3029 9.24843 19.0276 7.86191C20.8514 6.93349 22.6757 6.00508 24.5 5.07666V7.15212C24.4873 7.15568 24.473 7.15771 24.4613 7.16331C24.1802 7.30618 23.8965 7.44448 23.6183 7.59345C23.0616 7.89241 22.7352 8.35713 22.637 8.98201C22.606 9.17979 22.6274 9.37656 22.6381 9.57434C22.6716 10.1987 22.6503 10.821 22.5704 11.4413C22.4743 12.1888 22.2994 12.9173 22.0391 13.6246C21.4132 15.3248 20.4085 16.7612 19.0215 17.927C17.9934 18.7909 16.8362 19.4229 15.556 19.8276C14.7501 20.0823 13.9254 20.2338 13.0814 20.2811C12.9558 20.2882 12.8302 20.2954 12.7051 20.302H12.2974H12.2963Z" fill="#15141F"/>
</g>
</g>
</svg>
