<svg width="64" height="64" viewBox="0 0 64 64" fill="none" xmlns="http://www.w3.org/2000/svg">
    <g clip-path="url(#clip0_201_2080)">
        <path d="M0 0H64V64H0V0Z" fill="#74ACDF"/>
        <path d="M0 21.3375H64V42.6625H0V21.3375Z" fill="white"/>
        <path d="M31.5906 32.1664L35.2386 40.1024C35.2386 40.1024 35.3026 40.256 35.405 40.2176C35.5074 40.1664 35.4434 40.0256 35.4434 40.0256L32.4098 31.8336M32.3202 34.9184C32.269 36.1216 33.0114 36.7872 32.9218 37.8624C32.8194 38.9504 33.4082 39.552 33.5618 39.9744C33.6898 40.3968 33.3954 40.64 33.5234 40.704C33.6514 40.768 33.9074 40.4352 33.8306 39.8336C33.741 39.2448 33.293 39.0656 33.3954 37.7472C33.4978 36.4288 32.8578 36.1216 33.0114 34.9312" fill="#F6B40E"/>
        <path d="M31.5906 32.1664L35.2386 40.1024C35.2386 40.1024 35.3026 40.256 35.405 40.2176C35.5074 40.1664 35.4434 40.0256 35.4434 40.0256L32.4098 31.8336M32.3202 34.9184C32.269 36.1216 33.0114 36.7872 32.9218 37.8624C32.8194 38.9504 33.4082 39.552 33.5618 39.9744C33.6898 40.3968 33.3954 40.64 33.5234 40.704C33.6514 40.768 33.9074 40.4352 33.8306 39.8336C33.741 39.2448 33.293 39.0656 33.3954 37.7472C33.4978 36.4288 32.8578 36.1216 33.0114 34.9312" stroke="#85340A" stroke-width="0.1408"/>
        <path d="M31.5579 31.9969L31.8913 40.7249C31.8913 40.7249 31.8916 40.8913 32.0009 40.895C32.1151 40.8869 32.1099 40.7323 32.1099 40.7323L32.4421 32.0029M31.1789 34.8186C30.6711 35.9107 31.1023 36.8097 30.6081 37.7688C30.0971 38.7348 30.4108 39.5159 30.3911 39.9649C30.3477 40.4041 29.9827 40.5162 30.0764 40.6243C30.1702 40.7324 30.5341 40.5229 30.6933 39.9377C30.8359 39.3594 30.4905 39.0224 31.0897 37.8436C31.6888 36.6647 31.2151 36.136 31.8126 35.095" fill="#F6B40E"/>
        <path d="M31.5579 31.9969L31.8913 40.7249C31.8913 40.7249 31.8916 40.8913 32.0009 40.895C32.1151 40.8869 32.1099 40.7323 32.1099 40.7323L32.4421 32.0029M31.1789 34.8186C30.6711 35.9107 31.1023 36.8097 30.6081 37.7688C30.0971 38.7348 30.4108 39.5159 30.3911 39.9649C30.3477 40.4041 29.9827 40.5162 30.0764 40.6243C30.1702 40.7324 30.5341 40.5229 30.6933 39.9377C30.8359 39.3594 30.4905 39.0224 31.0897 37.8436C31.6888 36.6647 31.2151 36.136 31.8126 35.095" stroke="#85340A" stroke-width="0.1408"/>
        <path d="M31.5928 31.828L28.5607 40.0191C28.5607 40.0191 28.4974 40.173 28.5969 40.2182C28.7055 40.2544 28.7598 40.1096 28.7598 40.1096L32.4074 32.1719M30.1627 34.2898C29.2758 35.1044 29.3301 36.1 28.5064 36.797C27.6647 37.4939 27.6556 38.3356 27.4656 38.7429C27.2574 39.1321 26.8772 39.0959 26.9225 39.2317C26.9678 39.3674 27.3841 39.3131 27.7552 38.8334C28.1082 38.3537 27.9181 37.9102 28.9228 37.0504C29.9274 36.1905 29.6921 35.5208 30.6424 34.7876" fill="#F6B40E"/>
        <path d="M31.5928 31.828L28.5607 40.0191C28.5607 40.0191 28.4974 40.173 28.5969 40.2182C28.7055 40.2544 28.7598 40.1096 28.7598 40.1096L32.4074 32.1719M30.1627 34.2898C29.2758 35.1044 29.3301 36.1 28.5064 36.797C27.6647 37.4939 27.6556 38.3356 27.4656 38.7429C27.2574 39.1321 26.8772 39.0959 26.9225 39.2317C26.9678 39.3674 27.3841 39.3131 27.7552 38.8334C28.1082 38.3537 27.9181 37.9102 28.9228 37.0504C29.9274 36.1905 29.6921 35.5208 30.6424 34.7876" stroke="#85340A" stroke-width="0.1408"/>
        <path d="M31.6896 31.6852L25.7537 38.0925C25.7537 38.0925 25.6363 38.2104 25.711 38.2903C25.7975 38.3653 25.9031 38.2523 25.9031 38.2523L32.3106 32.3147M29.4263 33.4124C28.2951 33.8256 27.9643 34.7662 26.9366 35.0949C25.8922 35.4166 25.5618 36.1908 25.2303 36.4944C24.889 36.7743 24.5517 36.5953 24.5415 36.7381C24.5314 36.8808 24.9368 36.99 25.4632 36.6888C25.9729 36.3807 25.9671 35.8982 27.2243 35.4883C28.4815 35.0784 28.5204 34.3695 29.679 34.0559" fill="#F6B40E"/>
        <path d="M31.6896 31.6852L25.7537 38.0925C25.7537 38.0925 25.6363 38.2104 25.711 38.2903C25.7975 38.3653 25.9031 38.2523 25.9031 38.2523L32.3106 32.3147M29.4263 33.4124C28.2951 33.8256 27.9643 34.7662 26.9366 35.0949C25.8922 35.4166 25.5618 36.1908 25.2303 36.4944C24.889 36.7743 24.5517 36.5953 24.5415 36.7381C24.5314 36.8808 24.9368 36.99 25.4632 36.6888C25.9729 36.3807 25.9671 35.8982 27.2243 35.4883C28.4815 35.0784 28.5204 34.3695 29.679 34.0559" stroke="#85340A" stroke-width="0.1408"/>
        <path d="M32.5506 35.1232C32.6146 36.2752 33.2674 36.7872 33.1394 37.8496C33.421 37.0176 32.7426 36.3648 32.781 35.136M31.7954 32.0896L34.2914 37.5424L32.205 31.9232" fill="#85340A"/>
        <path d="M31.3135 35.096C30.9317 36.1848 31.3389 36.9076 30.8141 37.8402C31.3926 37.1793 31.0157 36.3166 31.5214 35.196M31.7767 32.0043L31.996 37.9972L32.2188 32.0073" fill="#85340A"/>
        <path d="M30.1809 34.5975C29.4116 35.4574 29.5112 36.281 28.6694 36.9417C29.4569 36.5525 29.4388 35.6112 30.3348 34.7695M31.792 31.9184L29.7012 37.5391L32.1993 32.0904" fill="#85340A"/>
        <path d="M29.3253 33.7037C28.2854 34.2037 28.0622 35.0027 27.0317 35.291C27.9082 35.2328 28.2516 34.3562 29.4016 33.9214M31.8389 31.8451L27.7564 36.2377L32.1494 32.1598" fill="#85340A"/>
        <path d="M31.8337 31.5903L23.8977 35.2383C23.8977 35.2383 23.7441 35.3023 23.7825 35.4047C23.8337 35.5071 23.9745 35.4431 23.9745 35.4431L32.1665 32.4095M29.0817 32.3199C27.8785 32.2687 27.2129 33.0111 26.1377 32.9215C25.0497 32.8191 24.4481 33.4079 24.0257 33.5615C23.6033 33.6895 23.3601 33.3951 23.2961 33.5231C23.2321 33.6511 23.5649 33.9071 24.1665 33.8303C24.7553 33.7407 24.9345 33.2927 26.2529 33.3951C27.5713 33.4975 27.8785 32.8575 29.0689 33.0111" fill="#F6B40E"/>
        <path d="M31.8337 31.5903L23.8977 35.2383C23.8977 35.2383 23.7441 35.3023 23.7825 35.4047C23.8337 35.5071 23.9745 35.4431 23.9745 35.4431L32.1665 32.4095M29.0817 32.3199C27.8785 32.2687 27.2129 33.0111 26.1377 32.9215C25.0497 32.8191 24.4481 33.4079 24.0257 33.5615C23.6033 33.6895 23.3601 33.3951 23.2961 33.5231C23.2321 33.6511 23.5649 33.9071 24.1665 33.8303C24.7553 33.7407 24.9345 33.2927 26.2529 33.3951C27.5713 33.4975 27.8785 32.8575 29.0689 33.0111" stroke="#85340A" stroke-width="0.1408"/>
        <path d="M32.0031 31.5578L23.2751 31.8912C23.2751 31.8912 23.1087 31.8915 23.105 32.0008C23.1131 32.115 23.2677 32.1098 23.2677 32.1098L31.9971 32.442M29.1814 31.1787C28.0893 30.671 27.1903 31.1022 26.2312 30.6079C25.2652 30.097 24.4841 30.4107 24.0351 30.391C23.5959 30.3476 23.4838 29.9825 23.3757 30.0763C23.2676 30.1701 23.4771 30.5339 24.0623 30.6932C24.6406 30.8357 24.9776 30.4904 26.1564 31.0896C27.3353 31.6887 27.864 31.215 28.905 31.8124" fill="#F6B40E"/>
        <path d="M32.0031 31.5578L23.2751 31.8912C23.2751 31.8912 23.1087 31.8915 23.105 32.0008C23.1131 32.115 23.2677 32.1098 23.2677 32.1098L31.9971 32.442M29.1814 31.1787C28.0893 30.671 27.1903 31.1022 26.2312 30.6079C25.2652 30.097 24.4841 30.4107 24.0351 30.391C23.5959 30.3476 23.4838 29.9825 23.3757 30.0763C23.2676 30.1701 23.4771 30.5339 24.0623 30.6932C24.6406 30.8357 24.9776 30.4904 26.1564 31.0896C27.3353 31.6887 27.864 31.215 28.905 31.8124" stroke="#85340A" stroke-width="0.1408"/>
        <path d="M32.1719 31.5927L23.9808 28.5606C23.9808 28.5606 23.8269 28.4972 23.7817 28.5968C23.7454 28.7054 23.8903 28.7597 23.8903 28.7597L31.828 32.4073M29.71 30.1626C28.8955 29.2756 27.8998 29.3299 27.2029 28.5063C26.506 27.6646 25.6643 27.6555 25.257 27.4654C24.8678 27.2573 24.904 26.8771 24.7682 26.9224C24.6324 26.9676 24.6868 27.384 25.1665 27.7551C25.6462 28.1081 26.0897 27.918 26.9495 28.9226C27.8093 29.9273 28.4791 29.692 29.2122 30.6423" fill="#F6B40E"/>
        <path d="M32.1719 31.5927L23.9808 28.5606C23.9808 28.5606 23.8269 28.4972 23.7817 28.5968C23.7454 28.7054 23.8903 28.7597 23.8903 28.7597L31.828 32.4073M29.71 30.1626C28.8955 29.2756 27.8998 29.3299 27.2029 28.5063C26.506 27.6646 25.6643 27.6555 25.257 27.4654C24.8678 27.2573 24.904 26.8771 24.7682 26.9224C24.6324 26.9676 24.6868 27.384 25.1665 27.7551C25.6462 28.1081 26.0897 27.918 26.9495 28.9226C27.8093 29.9273 28.4791 29.692 29.2122 30.6423" stroke="#85340A" stroke-width="0.1408"/>
        <path d="M32.3148 31.6895L25.9075 25.7536C25.9075 25.7536 25.7896 25.6362 25.7097 25.7108C25.6347 25.7973 25.7477 25.9029 25.7477 25.9029L31.6853 32.3104M30.5876 29.4262C30.1744 28.295 29.2338 27.9641 28.9051 26.9365C28.5834 25.8921 27.8092 25.5616 27.5056 25.2302C27.2257 24.8889 27.4047 24.5516 27.2619 24.5414C27.1192 24.5313 27.01 24.9367 27.3112 25.4631C27.6193 25.9728 28.1018 25.9669 28.5117 27.2242C28.9216 28.4814 29.6305 28.5203 29.9441 29.6789" fill="#F6B40E"/>
        <path d="M32.3148 31.6895L25.9075 25.7536C25.9075 25.7536 25.7896 25.6362 25.7097 25.7108C25.6347 25.7973 25.7477 25.9029 25.7477 25.9029L31.6853 32.3104M30.5876 29.4262C30.1744 28.295 29.2338 27.9641 28.9051 26.9365C28.5834 25.8921 27.8092 25.5616 27.5056 25.2302C27.2257 24.8889 27.4047 24.5516 27.2619 24.5414C27.1192 24.5313 27.01 24.9367 27.3112 25.4631C27.6193 25.9728 28.1018 25.9669 28.5117 27.2242C28.9216 28.4814 29.6305 28.5203 29.9441 29.6789" stroke="#85340A" stroke-width="0.1408"/>
        <path d="M28.8769 32.5504C27.7249 32.6144 27.2129 33.2672 26.1505 33.1392C26.9825 33.4208 27.6353 32.7424 28.8641 32.7808M31.9105 31.7952L26.4577 34.2912L32.0769 32.2048" fill="#85340A"/>
        <path d="M28.904 31.3132C27.8152 30.9315 27.0924 31.3387 26.1598 30.8138C26.8207 31.3924 27.6834 31.0155 28.804 31.5212M31.9957 31.7764L26.0028 31.9957L31.9927 32.2185" fill="#85340A"/>
        <path d="M29.4025 30.1807C28.5426 29.4114 27.719 29.5109 27.0583 28.6692C27.4475 29.4566 28.3888 29.4385 29.2305 30.3346M32.0816 31.7918L26.4609 29.701L31.9096 32.1991" fill="#85340A"/>
        <path d="M30.2964 29.3251C29.7965 28.2853 28.9974 28.0621 28.7091 27.0316C28.7673 27.908 29.6439 28.2515 30.0787 29.4015M32.1551 31.8388L27.7624 27.7563L31.8403 32.1493" fill="#85340A"/>
        <path d="M32.4094 31.8336L28.7614 23.8976C28.7614 23.8976 28.6974 23.744 28.595 23.7824C28.4926 23.8336 28.5566 23.9744 28.5566 23.9744L31.5902 32.1664M31.6798 29.0816C31.731 27.8784 30.9886 27.2128 31.0782 26.1376C31.1806 25.0496 30.5918 24.448 30.4382 24.0256C30.3102 23.6032 30.6046 23.36 30.4766 23.296C30.3486 23.232 30.0926 23.5648 30.1694 24.1664C30.259 24.7552 30.707 24.9344 30.6046 26.2528C30.5022 27.5712 31.1422 27.8784 30.9886 29.0688" fill="#F6B40E"/>
        <path d="M32.4094 31.8336L28.7614 23.8976C28.7614 23.8976 28.6974 23.744 28.595 23.7824C28.4926 23.8336 28.5566 23.9744 28.5566 23.9744L31.5902 32.1664M31.6798 29.0816C31.731 27.8784 30.9886 27.2128 31.0782 26.1376C31.1806 25.0496 30.5918 24.448 30.4382 24.0256C30.3102 23.6032 30.6046 23.36 30.4766 23.296C30.3486 23.232 30.0926 23.5648 30.1694 24.1664C30.259 24.7552 30.707 24.9344 30.6046 26.2528C30.5022 27.5712 31.1422 27.8784 30.9886 29.0688" stroke="#85340A" stroke-width="0.1408"/>
        <path d="M32.4421 32.0031L32.1087 23.2751C32.1087 23.2751 32.1084 23.1087 31.9991 23.105C31.8849 23.1131 31.8901 23.2677 31.8901 23.2677L31.5579 31.9971M32.8211 29.1814C33.3289 28.0893 32.8977 27.1903 33.3919 26.2312C33.9029 25.2652 33.5892 24.4841 33.6089 24.0351C33.6523 23.5959 34.0173 23.4838 33.9236 23.3757C33.8298 23.2676 33.4659 23.4771 33.3067 24.0623C33.1641 24.6406 33.5095 24.9776 32.9103 26.1564C32.3112 27.3353 32.7849 27.864 32.1874 28.905" fill="#F6B40E"/>
        <path d="M32.4421 32.0031L32.1087 23.2751C32.1087 23.2751 32.1084 23.1087 31.9991 23.105C31.8849 23.1131 31.8901 23.2677 31.8901 23.2677L31.5579 31.9971M32.8211 29.1814C33.3289 28.0893 32.8977 27.1903 33.3919 26.2312C33.9029 25.2652 33.5892 24.4841 33.6089 24.0351C33.6523 23.5959 34.0173 23.4838 33.9236 23.3757C33.8298 23.2676 33.4659 23.4771 33.3067 24.0623C33.1641 24.6406 33.5095 24.9776 32.9103 26.1564C32.3112 27.3353 32.7849 27.864 32.1874 28.905" stroke="#85340A" stroke-width="0.1408"/>
        <path d="M32.4072 32.172L35.4393 23.9809C35.4393 23.9809 35.5026 23.827 35.4031 23.7818C35.2945 23.7456 35.2402 23.8904 35.2402 23.8904L31.5926 31.8281M33.8373 29.7102C34.7242 28.8956 34.6699 27.9 35.4936 27.203C36.3353 26.5061 36.3444 25.6644 36.5344 25.2571C36.7426 24.8679 37.1228 24.9041 37.0775 24.7683C37.0322 24.6326 36.6159 24.6869 36.2448 25.1666C35.8918 25.6463 36.0819 26.0898 35.0772 26.9496C34.0726 27.8095 34.3079 28.4792 33.3576 29.2124" fill="#F6B40E"/>
        <path d="M32.4072 32.172L35.4393 23.9809C35.4393 23.9809 35.5026 23.827 35.4031 23.7818C35.2945 23.7456 35.2402 23.8904 35.2402 23.8904L31.5926 31.8281M33.8373 29.7102C34.7242 28.8956 34.6699 27.9 35.4936 27.203C36.3353 26.5061 36.3444 25.6644 36.5344 25.2571C36.7426 24.8679 37.1228 24.9041 37.0775 24.7683C37.0322 24.6326 36.6159 24.6869 36.2448 25.1666C35.8918 25.6463 36.0819 26.0898 35.0772 26.9496C34.0726 27.8095 34.3079 28.4792 33.3576 29.2124" stroke="#85340A" stroke-width="0.1408"/>
        <path d="M32.3104 32.3148L38.2463 25.9075C38.2463 25.9075 38.3637 25.7896 38.289 25.7097C38.2025 25.6347 38.0969 25.7477 38.0969 25.7477L31.6894 31.6853M34.5737 30.5876C35.7049 30.1744 36.0357 29.2338 37.0634 28.9051C38.1078 28.5834 38.4382 27.8092 38.7697 27.5056C39.111 27.2257 39.4483 27.4047 39.4585 27.2619C39.4686 27.1192 39.0632 27.01 38.5368 27.3112C38.0271 27.6193 38.0329 28.1018 36.7757 28.5117C35.5185 28.9216 35.4796 29.6305 34.321 29.9441" fill="#F6B40E"/>
        <path d="M32.3104 32.3148L38.2463 25.9075C38.2463 25.9075 38.3637 25.7896 38.289 25.7097C38.2025 25.6347 38.0969 25.7477 38.0969 25.7477L31.6894 31.6853M34.5737 30.5876C35.7049 30.1744 36.0357 29.2338 37.0634 28.9051C38.1078 28.5834 38.4382 27.8092 38.7697 27.5056C39.111 27.2257 39.4483 27.4047 39.4585 27.2619C39.4686 27.1192 39.0632 27.01 38.5368 27.3112C38.0271 27.6193 38.0329 28.1018 36.7757 28.5117C35.5185 28.9216 35.4796 29.6305 34.321 29.9441" stroke="#85340A" stroke-width="0.1408"/>
        <path d="M31.4494 28.8768C31.3854 27.7248 30.7326 27.2128 30.8606 26.1504C30.579 26.9824 31.2574 27.6352 31.219 28.864M32.2046 31.9104L29.7086 26.4576L31.795 32.0768" fill="#85340A"/>
        <path d="M32.6865 28.904C33.0683 27.8152 32.6611 27.0924 33.1859 26.1598C32.6074 26.8207 32.9843 27.6834 32.4786 28.804M32.2233 31.9957L32.004 26.0028L31.7812 31.9927" fill="#85340A"/>
        <path d="M33.8191 29.4025C34.5884 28.5426 34.4888 27.719 35.3306 27.0583C34.5431 27.4475 34.5612 28.3888 33.6652 29.2305M32.208 32.0816L34.2988 26.4609L31.8007 31.9096" fill="#85340A"/>
        <path d="M34.6747 30.2963C35.7146 29.7963 35.9378 28.9973 36.9683 28.709C36.0918 28.7672 35.7484 29.6438 34.5984 30.0786M32.1611 32.1549L36.2436 27.7623L31.8506 31.8402" fill="#85340A"/>
        <path d="M32.1663 32.4097L40.1023 28.7617C40.1023 28.7617 40.2559 28.6977 40.2175 28.5953C40.1663 28.4929 40.0255 28.5569 40.0255 28.5569L31.8335 31.5905M34.9183 31.6801C36.1215 31.7313 36.7871 30.9889 37.8623 31.0785C38.9503 31.1809 39.5519 30.5921 39.9743 30.4385C40.3967 30.3105 40.6399 30.6049 40.7039 30.4769C40.7679 30.3489 40.4351 30.0929 39.8335 30.1697C39.2447 30.2593 39.0655 30.7073 37.7471 30.6049C36.4287 30.5025 36.1215 31.1425 34.9311 30.9889" fill="#F6B40E"/>
        <path d="M32.1663 32.4097L40.1023 28.7617C40.1023 28.7617 40.2559 28.6977 40.2175 28.5953C40.1663 28.4929 40.0255 28.5569 40.0255 28.5569L31.8335 31.5905M34.9183 31.6801C36.1215 31.7313 36.7871 30.9889 37.8623 31.0785C38.9503 31.1809 39.5519 30.5921 39.9743 30.4385C40.3967 30.3105 40.6399 30.6049 40.7039 30.4769C40.7679 30.3489 40.4351 30.0929 39.8335 30.1697C39.2447 30.2593 39.0655 30.7073 37.7471 30.6049C36.4287 30.5025 36.1215 31.1425 34.9311 30.9889" stroke="#85340A" stroke-width="0.1408"/>
        <path d="M31.9969 32.4422L40.7249 32.1088C40.7249 32.1088 40.8913 32.1085 40.895 31.9992C40.8869 31.885 40.7323 31.8902 40.7323 31.8902L32.0029 31.558M34.8186 32.8213C35.9107 33.329 36.8097 32.8978 37.7688 33.3921C38.7348 33.903 39.5159 33.5893 39.9649 33.609C40.4041 33.6524 40.5162 34.0175 40.6243 33.9237C40.7324 33.8299 40.5229 33.4661 39.9377 33.3068C39.3594 33.1643 39.0224 33.5096 37.8436 32.9104C36.6647 32.3113 36.136 32.785 35.095 32.1876" fill="#F6B40E"/>
        <path d="M31.9969 32.4422L40.7249 32.1088C40.7249 32.1088 40.8913 32.1085 40.895 31.9992C40.8869 31.885 40.7323 31.8902 40.7323 31.8902L32.0029 31.558M34.8186 32.8213C35.9107 33.329 36.8097 32.8978 37.7688 33.3921C38.7348 33.903 39.5159 33.5893 39.9649 33.609C40.4041 33.6524 40.5162 34.0175 40.6243 33.9237C40.7324 33.8299 40.5229 33.4661 39.9377 33.3068C39.3594 33.1643 39.0224 33.5096 37.8436 32.9104C36.6647 32.3113 36.136 32.785 35.095 32.1876" stroke="#85340A" stroke-width="0.1408"/>
        <path d="M31.8281 32.4073L40.0192 35.4394C40.0192 35.4394 40.1731 35.5028 40.2183 35.4032C40.2546 35.2946 40.1097 35.2403 40.1097 35.2403L32.172 31.5927M34.29 33.8374C35.1045 34.7244 36.1002 34.6701 36.7971 35.4937C37.494 36.3354 38.3357 36.3445 38.743 36.5346C39.1322 36.7427 39.096 37.1229 39.2318 37.0776C39.3676 37.0324 39.3132 36.616 38.8335 36.2449C38.3538 35.8919 37.9103 36.082 37.0505 35.0774C36.1907 34.0727 35.5209 34.308 34.7878 33.3577" fill="#F6B40E"/>
        <path d="M31.8281 32.4073L40.0192 35.4394C40.0192 35.4394 40.1731 35.5028 40.2183 35.4032C40.2546 35.2946 40.1097 35.2403 40.1097 35.2403L32.172 31.5927M34.29 33.8374C35.1045 34.7244 36.1002 34.6701 36.7971 35.4937C37.494 36.3354 38.3357 36.3445 38.743 36.5346C39.1322 36.7427 39.096 37.1229 39.2318 37.0776C39.3676 37.0324 39.3132 36.616 38.8335 36.2449C38.3538 35.8919 37.9103 36.082 37.0505 35.0774C36.1907 34.0727 35.5209 34.308 34.7878 33.3577" stroke="#85340A" stroke-width="0.1408"/>
        <path d="M31.6852 32.3105L38.0925 38.2464C38.0925 38.2464 38.2104 38.3638 38.2903 38.2892C38.3653 38.2027 38.2523 38.0971 38.2523 38.0971L32.3147 31.6896M33.4124 34.5738C33.8256 35.705 34.7662 36.0359 35.0949 37.0635C35.4166 38.1079 36.1908 38.4384 36.4944 38.7698C36.7743 39.1111 36.5953 39.4484 36.7381 39.4586C36.8808 39.4687 36.99 39.0633 36.6888 38.5369C36.3807 38.0272 35.8982 38.0331 35.4883 36.7758C35.0784 35.5186 34.3695 35.4797 34.0559 34.3211" fill="#F6B40E"/>
        <path d="M31.6852 32.3105L38.0925 38.2464C38.0925 38.2464 38.2104 38.3638 38.2903 38.2892C38.3653 38.2027 38.2523 38.0971 38.2523 38.0971L32.3147 31.6896M33.4124 34.5738C33.8256 35.705 34.7662 36.0359 35.0949 37.0635C35.4166 38.1079 36.1908 38.4384 36.4944 38.7698C36.7743 39.1111 36.5953 39.4484 36.7381 39.4586C36.8808 39.4687 36.99 39.0633 36.6888 38.5369C36.3807 38.0272 35.8982 38.0331 35.4883 36.7758C35.0784 35.5186 34.3695 35.4797 34.0559 34.3211" stroke="#85340A" stroke-width="0.1408"/>
        <path d="M35.1231 31.4496C36.2751 31.3856 36.7871 30.7328 37.8495 30.8608C37.0175 30.5792 36.3647 31.2576 35.1359 31.2192M32.0895 32.2048L37.5423 29.7088L31.9231 31.7952" fill="#85340A"/>
        <path d="M35.096 32.6868C36.1848 33.0685 36.9076 32.6613 37.8402 33.1862C37.1793 32.6076 36.3166 32.9845 35.196 32.4788M32.0043 32.2236L37.9972 32.0043L32.0073 31.7815" fill="#85340A"/>
        <path d="M34.5975 33.8193C35.4574 34.5886 36.281 34.4891 36.9417 35.3308C36.5525 34.5434 35.6112 34.5615 34.7695 33.6654M31.9184 32.2082L37.5391 34.299L32.0904 31.8009" fill="#85340A"/>
        <path d="M33.7036 34.6749C34.2035 35.7147 35.0026 35.9379 35.2909 36.9684C35.2327 36.092 34.3561 35.7485 33.9213 34.5985M31.8449 32.1612L36.2376 36.2437L32.1597 31.8507" fill="#85340A"/>
        <path d="M32 35.5499C33.9606 35.5499 35.5499 33.9606 35.5499 32C35.5499 30.0393 33.9606 28.45 32 28.45C30.0393 28.45 28.45 30.0393 28.45 32C28.45 33.9606 30.0393 35.5499 32 35.5499Z" fill="#F6B40E" stroke="#85340A" stroke-width="0.1875"/>
        <path d="M33.2126 31.25C32.9626 31.25 32.7376 31.35 32.6001 31.5625C32.8751 31.8125 33.4751 31.8375 33.8876 31.5375C33.8013 31.4444 33.6969 31.3698 33.5809 31.3183C33.4649 31.2667 33.3396 31.2392 33.2126 31.2375V31.25ZM33.2126 31.3C33.4501 31.3 33.6626 31.4001 33.7001 31.5126C33.4251 31.8126 32.9876 31.7875 32.7126 31.5625C32.7663 31.4795 32.8406 31.4117 32.9282 31.3657C33.0157 31.3197 33.1137 31.2971 33.2126 31.3Z" fill="#843511"/>
        <path d="M33.2625 31.075C32.9125 31.075 32.825 31.15 32.6625 31.2875C32.5 31.425 32.4125 31.3999 32.3875 31.4249C32.3625 31.4499 32.3875 31.5375 32.45 31.5125C32.5 31.475 32.6 31.425 32.775 31.2875C32.9375 31.1625 33.1 31.1625 33.275 31.1625C33.75 31.1625 34.025 31.5625 34.0875 31.5375C34.1375 31.5125 33.8125 31.075 33.2625 31.075Z" fill="#85340A"/>
        <path d="M34.25 31.2375C33.625 30.6875 32.825 30.6125 32.3875 31.0125C32.2851 31.1486 32.2166 31.3071 32.1875 31.475C32.125 31.7875 32.225 32.125 32.475 32.475C32.4375 32.475 32.3875 32.4875 32.35 32.525C32.15 32.1 32.0625 31.675 32.1375 31.275C32.1571 31.1684 32.1864 31.0638 32.225 30.9625C32.825 30.4625 33.65 30.4125 34.25 31.2375Z" fill="#85340A"/>
        <path d="M33.2 31.7625C33.338 31.7625 33.45 31.6505 33.45 31.5125C33.45 31.3744 33.338 31.2625 33.2 31.2625C33.0619 31.2625 32.95 31.3744 32.95 31.5125C32.95 31.6505 33.0619 31.7625 33.2 31.7625Z" fill="#85340A"/>
        <path d="M33.9125 31.675C33.45 32.025 32.9875 32 32.7125 31.8375C32.4375 31.675 32.4375 31.6125 32.5 31.6125C32.55 31.6125 32.6125 31.675 32.825 31.775C33.05 31.9 33.375 31.9 33.925 31.675H33.9125Z" fill="#85340A"/>
        <path d="M31.4624 32.5C31.4205 32.506 31.3809 32.5224 31.3471 32.5478C31.3133 32.5732 31.2865 32.6068 31.2692 32.6454C31.2519 32.6839 31.2447 32.7263 31.2482 32.7684C31.2517 32.8105 31.2659 32.8511 31.2893 32.8863C31.3128 32.9215 31.3448 32.9501 31.3823 32.9696C31.4198 32.989 31.4617 32.9986 31.504 32.9975C31.5462 32.9964 31.5875 32.9846 31.624 32.9632C31.6604 32.9417 31.6908 32.9114 31.7124 32.875C31.7999 32.95 31.9249 32.9501 31.9999 32.9501H32.0374C32.1385 32.9533 32.2383 32.9272 32.3249 32.875C32.3465 32.9114 32.3769 32.9417 32.4133 32.9632C32.4498 32.9846 32.4911 32.9964 32.5333 32.9975C32.5756 32.9986 32.6175 32.989 32.655 32.9696C32.6925 32.9501 32.7245 32.9215 32.748 32.8863C32.7714 32.8511 32.7856 32.8105 32.7891 32.7684C32.7926 32.7263 32.7854 32.6839 32.7681 32.6454C32.7508 32.6068 32.724 32.5732 32.6902 32.5478C32.6565 32.5224 32.6168 32.506 32.5749 32.5C32.6374 32.5125 32.6874 32.5751 32.6874 32.6501C32.6874 32.6931 32.6703 32.7345 32.6398 32.765C32.6093 32.7954 32.568 32.8125 32.5249 32.8125C32.4818 32.8125 32.4405 32.7954 32.41 32.765C32.3795 32.7345 32.3624 32.6931 32.3624 32.6501C32.3292 32.7152 32.2794 32.7704 32.2179 32.8099C32.1564 32.8494 32.0854 32.8719 32.0124 32.875C31.9415 32.8698 31.8732 32.8463 31.8141 32.8069C31.755 32.7675 31.707 32.7135 31.6749 32.6501C31.6749 32.6931 31.6578 32.7345 31.6273 32.765C31.5968 32.7954 31.5555 32.8125 31.5124 32.8125C31.4693 32.8125 31.428 32.7954 31.3975 32.765C31.367 32.7345 31.3499 32.6931 31.3499 32.6501C31.3499 32.5751 31.3874 32.525 31.4499 32.4875L31.4624 32.5ZM31.7124 33.225C31.4499 33.225 31.3374 33.4751 31.0874 33.6376C31.2374 33.5751 31.3374 33.475 31.5374 33.3625C31.7249 33.25 31.8874 33.3876 31.9999 33.3876C32.1124 33.3876 32.2749 33.25 32.4624 33.3625C32.6499 33.475 32.7624 33.5751 32.8999 33.6376C32.6499 33.4626 32.5499 33.225 32.2749 33.225C32.1793 33.2322 32.0859 33.2577 31.9999 33.3C31.9141 33.2571 31.8206 33.2316 31.7249 33.225H31.7124Z" fill="#85340A"/>
        <path d="M31.625 33.55C31.472 33.5606 31.3209 33.59 31.175 33.6375C31.675 33.5125 31.775 33.6875 32 33.6875C32.225 33.6875 32.3251 33.525 32.8251 33.625C32.2751 33.475 32.1625 33.575 32 33.575C31.8875 33.575 31.8125 33.5375 31.625 33.5375V33.55Z" fill="#85340A"/>
        <path d="M31.2001 33.625H31.1001C31.6751 33.6875 31.3876 34.0125 32.0001 34.0125C32.6001 34.0125 32.3251 33.6875 32.9001 33.6375C32.3001 33.575 32.4876 33.9375 32.0001 33.9375C31.5376 33.9375 31.6751 33.625 31.2001 33.625ZM32.4876 34.5125C32.4876 34.382 32.4367 34.2567 32.3456 34.1633C32.2545 34.0699 32.1305 34.0158 32.0001 34.0125C31.8675 34.0125 31.7403 34.0652 31.6465 34.1589C31.5528 34.2527 31.5001 34.3799 31.5001 34.5125C31.5284 34.4025 31.5934 34.3054 31.6843 34.2373C31.7752 34.1691 31.8866 34.1339 32.0001 34.1375C32.1136 34.1339 32.225 34.1691 32.3159 34.2373C32.4068 34.3054 32.4718 34.4025 32.5001 34.5125H32.4876Z" fill="#85340A"/>
        <path d="M29.7876 31.2375C30.4126 30.6875 31.2126 30.6125 31.6501 31.0125C31.7525 31.1486 31.821 31.3071 31.8501 31.475C31.9126 31.7875 31.8126 32.125 31.5626 32.475C31.6001 32.475 31.6501 32.4875 31.6876 32.525C31.8876 32.1 31.9751 31.675 31.9001 31.275C31.8805 31.1684 31.8512 31.0638 31.8126 30.9625C31.2126 30.4625 30.3876 30.4125 29.7876 31.2375Z" fill="#85340A"/>
        <path d="M30.7751 31.075C31.1251 31.075 31.2126 31.15 31.3751 31.2875C31.5376 31.425 31.6251 31.3999 31.6501 31.4249C31.6751 31.4499 31.6501 31.5375 31.5876 31.5125C31.5376 31.475 31.4376 31.425 31.2626 31.2875C31.1001 31.1625 30.9376 31.1625 30.7626 31.1625C30.2876 31.1625 30.0126 31.5625 29.9501 31.5375C29.9001 31.5125 30.2251 31.075 30.7751 31.075Z" fill="#85340A"/>
        <path d="M30.7624 31.25C30.5124 31.25 30.2874 31.35 30.1499 31.5625C30.4249 31.8125 31.0249 31.8375 31.4374 31.5375C31.3511 31.4444 31.2467 31.3698 31.1307 31.3183C31.0147 31.2667 30.8894 31.2392 30.7624 31.2375V31.25ZM30.7624 31.3C30.9999 31.3 31.2124 31.4001 31.2499 31.5126C30.9749 31.8126 30.5374 31.7875 30.2624 31.5625C30.3161 31.4795 30.3904 31.4117 30.478 31.3657C30.5655 31.3197 30.6635 31.2971 30.7624 31.3Z" fill="#843511"/>
        <path d="M30.7876 31.7625C30.9257 31.7625 31.0376 31.6505 31.0376 31.5125C31.0376 31.3744 30.9257 31.2625 30.7876 31.2625C30.6495 31.2625 30.5376 31.3744 30.5376 31.5125C30.5376 31.6505 30.6495 31.7625 30.7876 31.7625Z" fill="#85340A"/>
        <path d="M30.125 31.675C30.5875 32.025 31.0501 32 31.3251 31.8375C31.6001 31.675 31.6 31.6125 31.5375 31.6125C31.4875 31.6125 31.425 31.675 31.2125 31.775C30.9875 31.9 30.6625 31.9 30.1125 31.675H30.125Z" fill="#85340A"/>
    </g>
    <defs>
        <clipPath id="clip0_201_2080">
            <rect width="64" height="64" rx="30" fill="white"/>
        </clipPath>
    </defs>
</svg>
