<svg width="64" height="64" viewBox="0 0 64 64" fill="none" xmlns="http://www.w3.org/2000/svg">
    <g clip-path="url(#clip0_201_1370)">
        <path fill-rule="evenodd" clip-rule="evenodd" d="M0 0H64V64H0V0Z" fill="#229E45"/>
        <path fill-rule="evenodd" clip-rule="evenodd" d="M32.6751 50.6749L61.4001 32.025L32.5001 13.325L3.6626 32.075L32.6626 50.6749H32.6751Z" fill="#F8E509"/>
        <path fill-rule="evenodd" clip-rule="evenodd" d="M45.1875 32C45.238 33.6275 44.9608 35.2486 44.3725 36.767C43.7841 38.2853 42.8966 39.6699 41.7626 40.8384C40.6286 42.007 39.2712 42.9357 37.7712 43.5693C36.2712 44.2029 34.6591 44.5286 33.0308 44.5269C31.4025 44.5252 29.7911 44.1963 28.2924 43.5596C26.7937 42.9228 25.4383 41.9914 24.3067 40.8205C23.1751 39.6496 22.2904 38.2632 21.7051 36.7436C21.1199 35.2241 20.8461 33.6024 20.9 31.975C21.0043 28.8218 22.3312 25.8328 24.5998 23.6403C26.8684 21.4478 29.9009 20.2237 33.0558 20.2269C36.2108 20.2302 39.2407 21.4605 41.5048 23.6577C43.7689 25.8548 45.0896 28.8465 45.1875 32Z" fill="#2B49A3"/>
        <path fill-rule="evenodd" clip-rule="evenodd" d="M29.0375 39.275L28.6625 39.0499L28.275 39.25L28.3624 38.8125L28.0625 38.5L28.4874 38.45L28.6875 38.0499L28.875 38.4625L29.2999 38.5374L28.975 38.8375M37.1875 41.3375L36.8125 41.1124L36.4124 41.3125L36.5 40.875L36.2 40.5625L36.6375 40.5125L36.8375 40.1124L37.0125 40.525L37.4375 40.5999L37.125 40.9M33.6749 38.0374L33.3499 37.8499L33.0125 38.0125L33.0875 37.6375L32.8375 37.3624L33.2 37.325L33.375 36.9874L33.525 37.3375L33.9 37.4L33.625 37.65M41.9 36.8499L41.575 36.6624L41.25 36.825L41.325 36.4625L41.075 36.2L41.4375 36.15L41.5999 35.825L41.7625 36.1624L42.125 36.2249L41.8499 36.4749M33.525 34.3875L33.15 34.1624L32.7625 34.3624L32.8499 33.9249L32.5499 33.6124L32.9749 33.5625L33.1749 33.1749L33.3624 33.575L33.7874 33.65L33.4625 33.95M23.5 30.625L23.125 30.4L22.75 30.6L22.825 30.1625L22.525 29.85L22.9625 29.7999L23.1625 29.4L23.3375 29.8125L23.7625 29.8875L23.45 30.1875M24.7125 35.625L24.3375 35.4124L23.95 35.5999L24.0375 35.1749L23.7374 34.8499L24.1625 34.7999L24.3624 34.4249L24.5499 34.8125L24.975 34.9L24.65 35.1875M37.2249 28.775L36.9 28.5875L36.5499 28.75L36.625 28.375L36.375 28.0875L36.75 28.0499L36.9249 27.7L37.0875 28.0625L37.4625 28.125L37.1749 28.3875M36.5499 32.0374L36.25 31.875L35.9874 32L36.0374 31.7L35.8375 31.4874L36.1375 31.45L36.275 31.1749L36.4 31.4625L36.7 31.5125L36.4749 31.7125M22.9249 36.525L22.6749 36.375L22.4125 36.5L22.4625 36.2125L22.2625 36L22.5625 35.9749L22.6875 35.7249L22.8125 35.9749L23.1 36.0374L22.8875 36.2374M41.9625 37.6749L41.75 37.575L41.5374 37.6624L41.5875 37.45L41.4249 37.2874L41.6624 37.2625L41.775 37.075L41.8624 37.275L42.0999 37.3125L41.9249 37.4625" fill="#FFFFEF"/>
        <path fill-rule="evenodd" clip-rule="evenodd" d="M22.9374 36.5375L22.6874 36.3876L22.4249 36.5126L22.4874 36.225L22.2749 36.0126L22.5624 35.9875L22.6999 35.7375L22.8249 35.9875L23.1124 36.05L22.8999 36.25" fill="#FFFFEF"/>
        <path fill-rule="evenodd" clip-rule="evenodd" d="M22.9374 36.5375L22.6874 36.3876L22.4249 36.5126L22.4874 36.225L22.2749 36.0126L22.5624 35.9875L22.6999 35.7375L22.8249 35.9875L23.1124 36.05L22.8999 36.25M26.9249 36.5375L26.6749 36.3876L26.4249 36.5126L26.4749 36.225L26.2749 36.0126L26.5624 35.9875L26.6874 35.725L26.8124 35.9875L27.0999 36.05L26.8874 36.25M26.4249 37.875L26.1749 37.725L25.9249 37.85L25.9749 37.5625L25.7749 37.35L26.0624 37.3125L26.1874 37.0625L26.3124 37.3125L26.5999 37.375L26.3874 37.5751M34.7249 35.4501L34.4749 35.3L34.2124 35.425L34.2624 35.1376L34.0624 34.925L34.3499 34.9001L34.4874 34.6376L34.6124 34.9001L34.8874 34.9501L34.6749 35.1501M32.2874 35.4501L32.0374 35.3L31.7749 35.425L31.8374 35.1376L31.6374 34.925L31.9249 34.9001L32.0499 34.6376L32.1749 34.9001L32.4624 34.9501L32.2499 35.1501M25.6874 34.6L25.5374 34.5126L25.3749 34.5876L25.3999 34.4001L25.2749 34.2751L25.4624 34.25L25.5499 34.0876L25.6124 34.2626L25.7999 34.2875L25.6749 34.4125M41.6499 38.75L41.3999 38.6125L41.1374 38.7375L41.1999 38.4501L40.9999 38.2375L41.2874 38.2001L41.4124 37.9501L41.5374 38.2001L41.8249 38.2626L41.6124 38.4626M39.6124 39.0126L39.4124 38.8876L39.1999 39.0126L39.2499 38.7626L39.0749 38.5876L39.3249 38.5625L39.4249 38.35L39.5249 38.5625L39.7749 38.6125L39.5874 38.7751M40.5874 39L40.3874 38.875L40.1874 38.9875L40.2249 38.7626L40.0749 38.6L40.2999 38.5751L40.3999 38.375L40.4874 38.5751L40.7124 38.6125L40.5499 38.7751M43.3249 36.6L43.1374 36.4875L42.9374 36.5876L42.9874 36.375L42.8374 36.2126L43.0499 36.1875L43.1499 36L43.2374 36.2001L43.4499 36.2375L43.2874 36.3876M39.6249 40.3625L39.3749 40.225L39.1249 40.35L39.1874 40.0751L38.9874 39.8876L39.2624 39.85L39.3999 39.6125L39.5249 39.8625L39.7874 39.9125L39.5874 40.0876M39.6374 41.4501L39.4124 41.3251L39.1874 41.4375L39.2374 41.1625L39.0624 40.975L39.3124 40.9375L39.4374 40.7001L39.5374 40.9501L39.7874 41L39.5999 41.175M37.7874 39L37.5999 38.8876L37.3999 38.9875L37.4499 38.7626L37.2999 38.6125L37.5124 38.5876L37.6124 38.3876L37.6999 38.5876L37.9124 38.625L37.7499 38.7751M36.0624 39L35.8749 38.8876L35.6749 38.9875L35.7249 38.7626L35.5749 38.6125L35.7874 38.5876L35.8874 38.3876L35.9749 38.5876L36.1874 38.625L36.0374 38.7751M33.1249 36.425L32.9374 36.3125L32.7374 36.4125L32.7874 36.2001L32.6374 36.0375L32.8499 36.0126L32.9499 35.8251L33.0374 36.0251L33.2499 36.0625L33.0874 36.2001M33.4499 41.6376L33.2874 41.55L33.1249 41.6376L33.1624 41.4501L33.0374 41.3251L33.2124 41.2875L33.2999 41.125L33.3749 41.3L33.5624 41.3251L33.4249 41.4501M29.0249 33.2001L28.6499 32.9875L28.2624 33.175L28.3499 32.75L28.0499 32.425L28.4749 32.375L28.6749 31.9875L28.8624 32.3876L29.2874 32.4626L28.9624 32.7626" fill="#FFFFEF"/>
        <path fill-rule="evenodd" clip-rule="evenodd" d="M44.3875 36.3749C44.6226 35.7621 44.8066 35.1307 44.9375 34.4874C38.4875 28.8124 31.2875 25.8999 22.1875 26.4999C21.8614 27.137 21.5937 27.8022 21.3875 28.4874C25.5622 28.0658 29.7787 28.5512 33.7484 29.9104C37.7181 31.2696 41.3473 33.4705 44.3875 36.3624V36.3749Z" fill="white"/>
        <path d="M41.4875 33.175L41.7125 33.3C41.6775 33.3696 41.6686 33.4495 41.6875 33.5251C41.7 33.5751 41.75 33.6375 41.8125 33.675C41.8875 33.725 41.95 33.75 42.0125 33.75C42.0625 33.75 42.1125 33.7125 42.1375 33.675C42.15 33.65 42.1625 33.6251 42.15 33.5876L42.1125 33.4875L41.9625 33.3251C41.8828 33.244 41.8229 33.1456 41.7875 33.0375C41.7656 32.9562 41.7738 32.8698 41.8106 32.794C41.8473 32.7182 41.9101 32.6582 41.9875 32.625C42.0542 32.5955 42.1283 32.5868 42.2 32.6C42.2903 32.6197 42.3754 32.658 42.45 32.7126C42.5584 32.7887 42.6446 32.8922 42.7 33.0126C42.7151 33.0679 42.7174 33.126 42.7065 33.1823C42.6957 33.2387 42.6721 33.2918 42.6375 33.3376L42.4125 33.2001C42.4375 33.1376 42.45 33.0751 42.4375 33.0251C42.425 32.9876 42.375 32.9376 42.3125 32.9001C42.25 32.8501 42.1875 32.8376 42.1375 32.8376C42.123 32.838 42.1088 32.8416 42.0959 32.8481C42.0829 32.8545 42.0715 32.8637 42.0625 32.875C42.0539 32.8877 42.0482 32.9022 42.0461 32.9173C42.0439 32.9325 42.0452 32.948 42.05 32.9626C42.05 33.0126 42.1125 33.0875 42.2 33.175L42.3875 33.425C42.4216 33.4873 42.4373 33.5579 42.4329 33.6287C42.4285 33.6995 42.4041 33.7676 42.3625 33.8251C42.3189 33.887 42.258 33.9348 42.1875 33.9626C42.1132 33.9965 42.0298 34.0053 41.95 33.9875C41.8552 33.9634 41.766 33.9209 41.6875 33.8625C41.5694 33.7917 41.4807 33.6808 41.4375 33.55C41.4 33.4375 41.4125 33.3125 41.4875 33.175ZM40.3875 32.4626L40.6375 32.5876C40.6082 32.6499 40.5994 32.7199 40.6125 32.7875C40.625 32.85 40.675 32.9126 40.7375 32.9501C40.8125 33.0001 40.875 33.0125 40.9375 33C40.9875 33 41.0375 32.975 41.0625 32.925C41.0744 32.902 41.0787 32.8757 41.075 32.85C41.075 32.8125 41.0625 32.7875 41.025 32.75L40.875 32.5876C40.7927 32.5111 40.7286 32.4171 40.6875 32.3125C40.6709 32.2629 40.6657 32.2102 40.6722 32.1583C40.6787 32.1064 40.6967 32.0566 40.725 32.0126C40.7621 31.9575 40.8142 31.9141 40.875 31.8876C40.9419 31.8588 41.0157 31.8501 41.0875 31.8625C41.1625 31.8625 41.2375 31.9 41.3375 31.9625C41.4625 32.05 41.5625 32.1375 41.5875 32.25C41.6062 32.3035 41.6126 32.3606 41.6061 32.4169C41.5996 32.4731 41.5804 32.5272 41.55 32.5751L41.3125 32.4375C41.35 32.375 41.35 32.3126 41.3375 32.2751C41.3125 32.2251 41.275 32.1876 41.2125 32.1501C41.1589 32.1086 41.0928 32.0866 41.025 32.0876C41.0095 32.0894 40.9946 32.0949 40.9815 32.1036C40.9685 32.1123 40.9577 32.1239 40.95 32.1376C40.9434 32.1512 40.9399 32.1661 40.9399 32.1813C40.9399 32.1965 40.9434 32.2114 40.95 32.225C40.95 32.2625 41.0125 32.3375 41.1 32.4375C41.2 32.525 41.2625 32.6125 41.3 32.6625C41.3385 32.725 41.3578 32.7974 41.3556 32.8707C41.3534 32.944 41.3297 33.0151 41.2875 33.0751C41.2449 33.1398 41.1845 33.1909 41.1135 33.2219C41.0425 33.253 40.964 33.2628 40.8875 33.25C40.7893 33.2309 40.6959 33.1927 40.6125 33.1376C40.4927 33.0712 40.3999 32.9651 40.35 32.8376C40.3144 32.7123 40.3278 32.5783 40.3875 32.4626ZM39.0375 32.0876L39.7375 30.9625L40.575 31.4625L40.45 31.6625L39.85 31.2875L39.6875 31.5375L40.2625 31.8876L40.1375 32.0876L39.575 31.7375L39.3875 32.05L40.0125 32.425L39.9 32.625L39.0375 32.1V32.0876ZM37.0625 30.475L37.175 30.275L37.675 30.55L37.4375 31.0126C37.2348 31.0575 37.0229 31.031 36.8375 30.9375C36.7257 30.8795 36.6309 30.7934 36.5625 30.6875C36.4964 30.5921 36.4615 30.4786 36.4625 30.3625C36.4625 30.2375 36.5 30.1251 36.5625 30.0126C36.6202 29.8971 36.7062 29.7982 36.8125 29.725C36.9 29.65 37.025 29.6125 37.15 29.6125C37.2375 29.6125 37.35 29.6501 37.4625 29.7001C37.5857 29.758 37.6867 29.8545 37.75 29.975C37.8 30.075 37.8125 30.1875 37.7875 30.3125L37.525 30.2375C37.5391 30.1741 37.5302 30.1076 37.5 30.05C37.4667 29.9888 37.4139 29.9404 37.35 29.9125C37.3056 29.8851 37.2559 29.8675 37.2041 29.861C37.1523 29.8546 37.0998 29.8593 37.05 29.875C36.9625 29.9125 36.875 30 36.8 30.125C36.7391 30.24 36.7171 30.3716 36.7375 30.5C36.7625 30.6 36.825 30.675 36.9375 30.725L37.1 30.775H37.2625L37.3375 30.625L37.0625 30.475ZM28.4625 28.35L28.6625 27.025L29.0625 27.0875L29.1625 28.025L29.5375 27.15L29.925 27.2125L29.7375 28.5375L29.4875 28.5L29.6375 27.4625L29.225 28.4625L28.975 28.425L28.8625 27.3375L28.7125 28.3876L28.4625 28.35ZM27.125 28.1875L27.25 26.8625L28.225 26.9501L28.2125 27.175L27.4875 27.1125L27.4625 27.4L28.125 27.4625L28.1125 27.6875L27.45 27.625L27.4125 28L28.15 28.0625L28.125 28.2875L27.125 28.1875Z" fill="#309E3A"/>
        <path d="M22.6749 27.35C22.6749 27.225 22.6999 27.1 22.7374 27.0125L22.8624 26.8375L23.0499 26.7125C23.1422 26.6807 23.24 26.668 23.3374 26.675C23.4241 26.6744 23.5101 26.6918 23.5897 26.7263C23.6693 26.7607 23.7409 26.8113 23.7999 26.875C23.9249 27 23.9624 27.1625 23.9624 27.375C23.9624 27.6 23.8874 27.7625 23.7749 27.875C23.7123 27.9356 23.6377 27.9826 23.5559 28.0127C23.4741 28.0428 23.3869 28.0555 23.2999 28.05C23.2141 28.0521 23.1287 28.0366 23.0491 28.0044C22.9695 27.9721 22.8975 27.9238 22.8374 27.8625C22.7756 27.7959 22.7291 27.7167 22.701 27.6304C22.673 27.544 22.664 27.4526 22.6749 27.3625V27.35Z" fill="#309E3A"/>
        <path d="M22.95 27.3499C22.95 27.4999 22.975 27.6249 23.05 27.6999C23.1125 27.7874 23.2 27.8249 23.3 27.8249C23.3511 27.8259 23.4018 27.8164 23.4491 27.7971C23.4964 27.7777 23.5392 27.7489 23.575 27.7124C23.6375 27.6374 23.675 27.5249 23.6875 27.3749C23.6875 27.2124 23.6625 27.0999 23.5875 27.0249C23.5572 26.9874 23.5192 26.9569 23.476 26.9353C23.4329 26.9137 23.3857 26.9017 23.3375 26.8999C23.2125 26.8999 23.125 26.9374 23.0625 27.0124C22.9875 27.0874 22.95 27.1999 22.9375 27.3499H22.95Z" fill="#F7FFFF"/>
        <path d="M24.25 28.05L24.2625 26.7125H24.825C24.975 26.7125 25.075 26.7375 25.1375 26.7625C25.2 26.7875 25.2625 26.825 25.2875 26.8875C25.3125 26.95 25.35 27.0125 25.35 27.1C25.35 27.2 25.3125 27.275 25.2625 27.35C25.2 27.4125 25.1125 27.45 24.9875 27.475C25.05 27.5 25.1 27.5375 25.1375 27.575L25.2875 27.8L25.45 28.05H25.125L24.9375 27.7625C24.8917 27.6928 24.8416 27.626 24.7875 27.5625C24.7666 27.5404 24.741 27.5233 24.7125 27.5125C24.6723 27.4981 24.6302 27.4897 24.5875 27.4875H24.525V28.05H24.25Z" fill="#309E3A"/>
        <path d="M24.5249 27.2751H24.7249C24.8079 27.2854 24.8919 27.2854 24.9749 27.2751L25.0374 27.2126C25.0624 27.1876 25.0749 27.1501 25.0749 27.1126C25.0749 27.0626 25.0624 27.0251 25.0374 27.0001C25.011 26.9721 24.9756 26.9544 24.9374 26.9501H24.5374V27.2751H24.5249Z" fill="white"/>
        <path d="M25.775 26.775L26.2625 26.8C26.3471 26.8013 26.4312 26.8139 26.5125 26.8375C26.5836 26.8644 26.6478 26.9071 26.7 26.9625C26.7583 27.0317 26.801 27.1127 26.825 27.2C26.85 27.2875 26.85 27.3875 26.85 27.5125C26.8537 27.6082 26.8366 27.7036 26.7999 27.7921C26.7632 27.8806 26.7078 27.96 26.6375 28.025C26.5875 28.0625 26.525 28.1 26.45 28.125H26.2L25.7 28.1125L25.775 26.775Z" fill="#309E3A"/>
        <path d="M26.025 27.0126L25.9875 27.8876L26.1875 27.9126H26.35L26.4625 27.8501C26.5 27.8251 26.5125 27.7876 26.5375 27.7251L26.5751 27.4751L26.5625 27.2501C26.5375 27.1876 26.525 27.1501 26.4875 27.1251C26.4543 27.0882 26.4107 27.0621 26.3625 27.0501C26.2926 27.0354 26.2215 27.0271 26.15 27.0251H26.025V27.0126Z" fill="white"/>
        <path d="M32.3125 29.1625L32.625 27.8625L33.0375 27.9625C33.2 28 33.3 28.0375 33.35 28.0625C33.4125 28.1 33.475 28.15 33.5 28.225C33.5375 28.3125 33.5375 28.4 33.5125 28.5C33.5014 28.5645 33.4737 28.625 33.432 28.6754C33.3904 28.7258 33.3362 28.7645 33.275 28.7875C33.232 28.8087 33.1853 28.8215 33.1375 28.8251C33.0445 28.817 32.9524 28.8002 32.8625 28.775L32.6875 28.7375L32.5625 29.225L32.3125 29.1625Z" fill="#309E3A"/>
        <path d="M32.8251 28.15L32.7375 28.525L32.8876 28.55C32.9876 28.575 33.0625 28.5875 33.1 28.575C33.1346 28.5715 33.1674 28.5577 33.1941 28.5354C33.2208 28.5131 33.2403 28.4834 33.25 28.45L33.2375 28.3125C33.216 28.2721 33.1804 28.241 33.1376 28.225L32.9501 28.175L32.8251 28.15Z" fill="white"/>
        <path d="M33.55 29.5375L33.9875 28.275L34.5251 28.4625C34.6225 28.49 34.7152 28.5322 34.8 28.5875C34.85 28.6375 34.8875 28.7 34.9125 28.775C34.9375 28.85 34.9126 28.9125 34.8876 28.9875C34.8626 29.0875 34.8 29.15 34.725 29.1875C34.682 29.2125 34.6344 29.2287 34.5851 29.2352C34.5357 29.2416 34.4856 29.2382 34.4375 29.225L34.5375 29.375L34.6125 29.625L34.675 29.925L34.375 29.825L34.2875 29.4875C34.268 29.4067 34.243 29.3274 34.2126 29.25C34.2018 29.2215 34.1847 29.1959 34.1625 29.175C34.1246 29.1474 34.0824 29.1263 34.0375 29.1125L33.9875 29.1L33.8 29.625L33.55 29.5375Z" fill="#309E3A"/>
        <path d="M34.05 28.9001L34.2375 28.9626L34.475 29.0251C34.5125 29.0251 34.5375 29.0251 34.5625 29.0001L34.625 28.9126V28.7876C34.6091 28.7549 34.5827 28.7285 34.55 28.7126L34.3625 28.6501L34.1625 28.5751L34.05 28.9001Z" fill="white"/>
        <path d="M35.1125 29.4875C35.1442 29.3731 35.1996 29.2667 35.275 29.175C35.3125 29.1125 35.375 29.075 35.4375 29.0375C35.4992 29.0034 35.5673 28.9822 35.6375 28.975C35.725 28.975 35.825 28.975 35.925 29.0125C36.0098 29.0337 36.0892 29.0725 36.1581 29.1263C36.227 29.1801 36.2838 29.2478 36.325 29.325C36.4 29.475 36.4125 29.6625 36.3375 29.8625C36.3168 29.9524 36.2785 30.0373 36.2249 30.1124C36.1713 30.1875 36.1033 30.2512 36.025 30.3C35.9478 30.3384 35.8636 30.3604 35.7776 30.3647C35.6915 30.369 35.6055 30.3555 35.525 30.325C35.4401 30.3038 35.3607 30.265 35.2918 30.2112C35.2229 30.1573 35.1661 30.0896 35.125 30.0125C35.0515 29.846 35.047 29.6572 35.1125 29.4875Z" fill="#309E3A"/>
        <path d="M35.375 29.5625C35.3375 29.7 35.3375 29.8125 35.375 29.9125C35.425 30.0125 35.5 30.075 35.6 30.1125C35.7 30.1375 35.7875 30.125 35.875 30.075C35.9625 30.025 36.0376 29.925 36.0876 29.775C36.1251 29.625 36.1251 29.5125 36.0876 29.4125C36.0665 29.3664 36.0354 29.3256 35.9964 29.2931C35.9575 29.2606 35.9117 29.2374 35.8625 29.225C35.8149 29.2095 35.7643 29.2048 35.7146 29.2113C35.6648 29.2178 35.6172 29.2353 35.575 29.2625C35.4875 29.3125 35.425 29.4125 35.375 29.5625Z" fill="white"/>
        <path d="M37.7124 31.35L38.3249 30.1625L38.8249 30.4125C38.9499 30.4875 39.0374 30.5375 39.0749 30.5875C39.1249 30.65 39.1499 30.7125 39.1624 30.775C39.1749 30.8375 39.1624 30.925 39.1124 30.9875C39.0749 31.075 39.0124 31.1375 38.9249 31.175C38.8374 31.2 38.7499 31.2 38.6374 31.1625C38.6749 31.2125 38.6999 31.275 38.7124 31.325L38.7499 31.5875L38.7749 31.9L38.4874 31.75L38.4499 31.4L38.4124 31.15C38.4017 31.1215 38.3846 31.0958 38.3624 31.075C38.329 31.0443 38.2911 31.019 38.2499 31L38.1999 30.975L37.9499 31.475L37.7124 31.35Z" fill="#309E3A"/>
        <path d="M38.2998 30.7874L38.4748 30.8749L38.6998 30.9749C38.7373 30.9749 38.7623 30.9749 38.7873 30.9499C38.821 30.9325 38.8486 30.9052 38.8664 30.8717C38.8843 30.8382 38.8916 30.8001 38.8873 30.7624C38.8738 30.7251 38.8472 30.694 38.8123 30.6749C38.7594 30.6396 38.7052 30.6063 38.6498 30.5749L38.4623 30.4874L38.2998 30.7874Z" fill="white"/>
        <path d="M42.6501 33.7875C42.7251 33.6625 42.8001 33.5875 42.9001 33.5375C42.9611 33.4969 43.0288 33.4672 43.1001 33.45C43.1661 33.4372 43.234 33.4372 43.3001 33.45C43.3876 33.4625 43.4876 33.5 43.5751 33.575C43.649 33.6201 43.7127 33.6801 43.7621 33.7511C43.8116 33.8221 43.8458 33.9026 43.8626 33.9875C43.8807 34.1694 43.8318 34.3517 43.7251 34.5C43.6776 34.5807 43.6144 34.651 43.5393 34.7069C43.4641 34.7627 43.3785 34.8029 43.2876 34.825C43.203 34.8409 43.116 34.8391 43.0321 34.8197C42.9482 34.8003 42.8692 34.7639 42.8001 34.7125C42.7262 34.6674 42.6625 34.6075 42.613 34.5365C42.5635 34.4655 42.5293 34.385 42.5126 34.3C42.4987 34.2106 42.5025 34.1193 42.524 34.0313C42.5454 33.9434 42.584 33.8605 42.6376 33.7875H42.6501Z" fill="#309E3A"/>
        <path d="M42.8751 33.925C42.8001 34.05 42.7626 34.175 42.7751 34.275C42.7836 34.3256 42.8025 34.3739 42.8304 34.4169C42.8584 34.4599 42.8948 34.4967 42.9376 34.525C42.9772 34.5525 43.0222 34.5712 43.0697 34.5798C43.1171 34.5884 43.1658 34.5868 43.2126 34.575C43.3126 34.55 43.4126 34.475 43.5001 34.3375C43.5876 34.2125 43.6251 34.1 43.6001 34C43.6001 33.9 43.5376 33.825 43.4501 33.75C43.3626 33.675 43.2626 33.675 43.1626 33.7C43.0626 33.725 42.9751 33.8 42.8876 33.925H42.8751Z" fill="white"/>
        <path d="M30.8 28.625L31.0126 27.675L31.7125 27.8375L31.675 28L31.175 27.875L31.125 28.0875L31.5875 28.2001L31.55 28.3625L31.0875 28.2375L31.025 28.5L31.55 28.625L31.5126 28.7875L30.8 28.625Z" fill="#309E3A"/>
    </g>
    <defs>
        <clipPath id="clip0_201_1370">
            <rect width="64" height="64" rx="30" fill="white"/>
        </clipPath>
    </defs>
</svg>
