<svg width="64" height="64" viewBox="0 0 64 64" fill="none" xmlns="http://www.w3.org/2000/svg">
    <g clip-path="url(#clip0_201_1237)">
        <path fill-rule="evenodd" clip-rule="evenodd" d="M0 0H64V64H0V0Z" fill="#FFE800"/>
        <path fill-rule="evenodd" clip-rule="evenodd" d="M0 32H64V64H0V32Z" fill="#00148E"/>
        <path fill-rule="evenodd" clip-rule="evenodd" d="M0 48H64V64H0V48Z" fill="#DA0010"/>
        <path fill-rule="evenodd" clip-rule="evenodd" d="M26.6876 30.525L19.8501 37.7375L19.7251 37.5876L26.5626 30.3625L26.6876 30.525ZM31.4376 31.7001L22.5001 41.125L22.3501 40.975L31.2876 31.55L31.4501 31.7001H31.4376Z" fill="black"/>
        <path fill-rule="evenodd" clip-rule="evenodd" d="M22.6362 41.1343L21.8942 41.8874L21.0371 42.5299L21.6641 41.6661L22.4061 40.913L22.6362 41.1343Z" fill="#808080" stroke="black" stroke-width="0.0425298"/>
        <path fill-rule="evenodd" clip-rule="evenodd" d="M20.3362 37.4468L19.5942 38.1999L18.7371 38.8424L19.3641 37.9786L20.1061 37.2255L20.3362 37.4468Z" fill="#808080" stroke="black" stroke-width="0.0425298"/>
        <path fill-rule="evenodd" clip-rule="evenodd" d="M20.8885 14.0101C20.8885 14.0101 20.1363 34.4586 23.1453 34.4586C26.1543 34.4586 27.663 32.308 27.663 32.308L27.629 21.0693L20.8885 14.0101Z" fill="#FFDF00" stroke="black" stroke-width="0.0677495"/>
        <path fill-rule="evenodd" clip-rule="evenodd" d="M22.7288 15.9176C22.7288 16.9929 22.393 32.308 23.8975 32.308C25.402 32.308 27.663 31.2327 27.663 31.2327L27.629 21.0692L22.7288 15.9176Z" fill="#0000C4" stroke="black" stroke-width="0.0677495"/>
        <path fill-rule="evenodd" clip-rule="evenodd" d="M23.7063 16.9504C23.7063 18.0257 23.8975 30.1575 25.4063 30.1575H27.663L27.629 21.0693L23.7063 16.9504Z" fill="#E10000" stroke="black" stroke-width="0.0677495"/>
        <path fill-rule="evenodd" clip-rule="evenodd" d="M20.7125 14.025L27.5375 21.2375L27.6625 21.0875L20.825 13.875L20.7 14.025H20.7125Z" fill="black"/>
        <path fill-rule="evenodd" clip-rule="evenodd" d="M18.7285 17.9814C18.7285 17.9814 16.7815 37.5463 22.6225 37.5463C27.49 37.5463 27.49 34.4599 28.4635 34.4599L27.49 27.2524L18.723 17.9814H18.7285Z" fill="#FFDF00" stroke="black" stroke-width="0.0753879"/>
        <path d="M23.0357 21.4545C23.0755 21.4517 24.508 18.27 28.0486 16.281" stroke="black" stroke-width="0.0802019"/>
        <path fill-rule="evenodd" clip-rule="evenodd" d="M22.8226 18.352C23.3203 18.5896 23.634 18.8635 23.9187 19.1831C23.3475 19.0617 23.0526 19.0129 22.5548 18.7753C22.0571 18.5377 21.6788 18.1735 21.3783 17.8788C21.7495 17.9938 22.3221 18.1131 22.8226 18.352Z" fill="#005B00" stroke="black" stroke-width="0.0364699"/>
        <path fill-rule="evenodd" clip-rule="evenodd" d="M24.3601 20.1917C24.3936 20.2577 24.357 20.3499 24.2765 20.3946C24.196 20.4392 24.1033 20.4209 24.069 20.3532C24.0346 20.2856 24.0729 20.1967 24.1534 20.152C24.2339 20.1074 24.3266 20.1257 24.3601 20.1917Z" fill="#FF0000" stroke="black" stroke-width="0.0253814"/>
        <path fill-rule="evenodd" clip-rule="evenodd" d="M25.5743 16.2814C25.3571 16.847 25.1175 17.2203 24.8412 17.5688C24.9653 16.9402 25.018 16.6175 25.2352 16.0519C25.4524 15.4863 25.7694 15.0315 26.0257 14.6695C25.9152 15.0829 25.7927 15.7127 25.5743 16.2814Z" fill="#005B00" stroke="black" stroke-width="0.034563"/>
        <path fill-rule="evenodd" clip-rule="evenodd" d="M25.1863 16.2793C25.1343 16.8337 25.0193 17.2634 24.868 17.6994C24.8276 17.1612 24.7977 16.8923 24.8497 16.338C24.9018 15.7837 25.0628 15.2435 25.1943 14.8109C25.1966 15.184 25.2387 15.722 25.1863 16.2793Z" fill="#005B00" stroke="black" stroke-width="0.0302635"/>
        <path fill-rule="evenodd" clip-rule="evenodd" d="M25.6206 17.0128C25.3265 17.3431 25.0779 17.4821 24.8161 17.5688C25.0766 17.1055 25.2041 16.8586 25.4982 16.5283C25.7923 16.198 26.1094 16.0492 26.364 15.934C26.1763 16.215 25.9163 16.6807 25.6206 17.0128Z" fill="#005B00" stroke="black" stroke-width="0.0326215"/>
        <path fill-rule="evenodd" clip-rule="evenodd" d="M23.2869 17.9989C23.6037 18.4016 23.752 18.7847 23.8574 19.2063C23.4314 18.9016 23.2059 18.7586 22.8891 18.3559C22.5724 17.9532 22.4075 17.4559 22.2787 17.0553C22.5405 17.291 22.9684 17.594 23.2869 17.9989Z" fill="#005B00" stroke="black" stroke-width="0.0363119"/>
        <path fill-rule="evenodd" clip-rule="evenodd" d="M22.194 20.357C22.6238 20.7032 22.8525 21.061 23.0361 21.4656C22.4915 21.2385 22.2056 21.1367 21.7758 20.7905C21.3459 20.4444 21.0815 19.9747 20.8733 19.5956C21.215 19.7839 21.7617 20.0089 22.194 20.357Z" fill="#005B00" stroke="black" stroke-width="0.0400078"/>
        <path fill-rule="evenodd" clip-rule="evenodd" d="M24.1743 20.1961C23.8462 20.7391 23.4882 21.1057 23.0768 21.4525C23.269 20.8591 23.3515 20.5555 23.6796 20.0125C24.0076 19.4695 24.4807 19.0207 24.863 18.6631C24.694 19.0558 24.5041 19.6501 24.1743 20.1961Z" fill="#005B00" stroke="black" stroke-width="0.0401468"/>
        <path fill-rule="evenodd" clip-rule="evenodd" d="M24.7189 20.7364C24.1714 21.1142 23.6944 21.3073 23.1861 21.4569C23.6538 20.9685 23.8807 20.7113 24.4282 20.3335C24.9757 19.9557 25.5869 19.7351 26.0781 19.5618C25.7357 19.8661 25.2694 20.3565 24.7189 20.7364Z" fill="#005B00" stroke="black" stroke-width="0.039891"/>
        <path fill-rule="evenodd" clip-rule="evenodd" d="M28.3192 15.927C28.0884 16.2052 27.8805 16.3764 27.6561 16.5294C27.8449 16.2049 27.9354 16.0369 28.1662 15.7587C28.397 15.4804 28.6647 15.2751 28.8801 15.1122C28.7393 15.3218 28.5512 15.6471 28.3192 15.927Z" fill="#005B00" stroke="black" stroke-width="0.0198975"/>
        <path fill-rule="evenodd" clip-rule="evenodd" d="M28.0787 15.8309C27.943 16.125 27.795 16.3437 27.625 16.5613C27.7047 16.2644 27.739 16.1148 27.8747 15.8207C28.0105 15.5265 28.206 15.2537 28.364 15.0355C28.294 15.2381 28.2152 15.5351 28.0787 15.8309Z" fill="#005B00" stroke="black" stroke-width="0.0178486"/>
        <path fill-rule="evenodd" clip-rule="evenodd" d="M28.2675 16.3745C28.0345 16.5148 27.8634 16.5569 27.6942 16.5688C27.9322 16.3515 28.0523 16.2343 28.2853 16.094C28.5184 15.9537 28.7313 15.9155 28.9015 15.8871C28.7398 16.0148 28.5018 16.2334 28.2675 16.3745Z" fill="#005B00" stroke="black" stroke-width="0.0191855"/>
        <path fill-rule="evenodd" clip-rule="evenodd" d="M25.1908 18.2785C24.761 18.5387 24.4092 18.6841 24.0437 18.8057C24.4386 18.4846 24.6335 18.3168 25.0633 18.0566C25.4932 17.7964 25.9395 17.626 26.2975 17.4914C26.0173 17.6947 25.6231 18.0169 25.1908 18.2785Z" fill="#005B00" stroke="black" stroke-width="0.0248807"/>
        <path fill-rule="evenodd" clip-rule="evenodd" d="M26.5889 18.1688C26.0187 18.5082 25.534 18.6666 25.0223 18.7788C25.5238 18.3218 25.7688 18.0798 26.339 17.7404C26.9091 17.401 27.5279 17.2251 28.0249 17.0877C27.6625 17.3685 27.1622 17.8275 26.5889 18.1688Z" fill="#005B00" stroke="black" stroke-width="0.0398045"/>
        <path d="M22.8399 23.6615C22.8765 23.6411 22.5236 20.6704 24.8278 17.596" stroke="black" stroke-width="0.0803551"/>
        <path fill-rule="evenodd" clip-rule="evenodd" d="M26.5102 17.1667C26.5437 17.2327 26.5071 17.3249 26.4266 17.3696C26.3461 17.4142 26.2534 17.3959 26.2191 17.3282C26.1848 17.2606 26.223 17.1717 26.3035 17.127C26.384 17.0824 26.4767 17.1007 26.5102 17.1667Z" fill="#FF0000" stroke="black" stroke-width="0.0253814"/>
        <path fill-rule="evenodd" clip-rule="evenodd" d="M27.5351 16.5667C27.5686 16.6327 27.532 16.7249 27.4515 16.7696C27.371 16.8142 27.2783 16.7959 27.244 16.7282C27.2097 16.6606 27.2479 16.5717 27.3284 16.527C27.4089 16.4824 27.5016 16.5007 27.5351 16.5667Z" fill="#FF0000" stroke="black" stroke-width="0.0253814"/>
        <path fill-rule="evenodd" clip-rule="evenodd" d="M23.8902 18.3793C23.9152 18.4293 23.87 18.5098 23.7877 18.5568C23.7055 18.6038 23.6184 18.6005 23.5927 18.5493C23.5671 18.498 23.6136 18.42 23.6959 18.373C23.7781 18.326 23.8652 18.3293 23.8902 18.3793Z" fill="#FF0000" stroke="black" stroke-width="0.0223779"/>
        <path fill-rule="evenodd" clip-rule="evenodd" d="M24.1778 18.2543C24.2028 18.3043 24.1576 18.3848 24.0753 18.4318C23.9931 18.4788 23.906 18.4755 23.8803 18.4243C23.8547 18.373 23.9012 18.295 23.9835 18.248C24.0657 18.201 24.1528 18.2043 24.1778 18.2543Z" fill="#FF0000" stroke="black" stroke-width="0.0223779"/>
        <path fill-rule="evenodd" clip-rule="evenodd" d="M24.0152 18.5168C24.0402 18.5668 23.995 18.6473 23.9127 18.6943C23.8305 18.7413 23.7434 18.7381 23.7177 18.6868C23.6921 18.6356 23.7386 18.5576 23.8209 18.5106C23.9031 18.4636 23.9902 18.4668 24.0152 18.5168Z" fill="#FF0000" stroke="black" stroke-width="0.0223779"/>
        <path fill-rule="evenodd" clip-rule="evenodd" d="M25.1886 18.4576C25.2256 18.5311 25.1849 18.6335 25.0956 18.6828C25.0063 18.7322 24.9035 18.7114 24.8656 18.6361C24.8277 18.5608 24.8703 18.4621 24.9596 18.4127C25.0489 18.3634 25.1516 18.3841 25.1886 18.4576Z" fill="#FF0000" stroke="black" stroke-width="0.0281766"/>
        <path fill-rule="evenodd" clip-rule="evenodd" d="M25.4013 18.2451C25.4383 18.3186 25.3975 18.4209 25.3082 18.4703C25.2189 18.5196 25.1162 18.4989 25.0783 18.4236C25.0403 18.3482 25.0829 18.2495 25.1722 18.2002C25.2615 18.1508 25.3643 18.1716 25.4013 18.2451Z" fill="#FF0000" stroke="black" stroke-width="0.0281766"/>
        <path fill-rule="evenodd" clip-rule="evenodd" d="M25.4511 18.345C25.4881 18.4185 25.4473 18.5209 25.358 18.5703C25.2687 18.6196 25.166 18.5989 25.1281 18.5235C25.0901 18.4482 25.1327 18.3495 25.222 18.3002C25.3113 18.2508 25.4141 18.2715 25.4511 18.345Z" fill="#FF0000" stroke="black" stroke-width="0.0281766"/>
        <path fill-rule="evenodd" clip-rule="evenodd" d="M20.6756 20.0449C20.6756 21.0737 18.7286 32.4023 23.6016 35.4887C25.5486 36.5175 28.4691 34.4599 28.4691 35.4887L27.4956 27.2524L20.6756 20.0449Z" fill="#0000C4" stroke="black" stroke-width="0.0753879"/>
        <path fill-rule="evenodd" clip-rule="evenodd" d="M22.6224 22.1025C22.6224 23.1314 21.6489 31.3677 24.5749 33.4311C26.5219 35.4887 31.3949 34.9307 31.3949 34.9307L27.4954 27.2524L22.6224 22.1025Z" fill="#E10000" stroke="black" stroke-width="0.0753879"/>
        <path fill-rule="evenodd" clip-rule="evenodd" d="M18.6001 18L27.5376 27.425L27.7001 27.275L18.7501 17.85L18.6001 18Z" fill="black"/>
        <path fill-rule="evenodd" clip-rule="evenodd" d="M17.1156 16.9411L17.6953 17.0672L17.8723 17.2486C17.8491 17.246 18.0493 17.43 17.8236 17.6668C17.5979 17.9035 17.2452 17.5393 17.2452 17.5393C17.2452 17.5393 17.3735 18.1389 17.7285 18.5028C18.0835 18.8667 18.4852 18.8103 18.4852 18.8103C18.4852 18.8103 18.0851 18.4689 18.3569 18.2107C18.629 17.9502 18.7596 18.1554 18.7596 18.1554L19.1136 18.5183L19.3405 18.2802L17.9235 16.8278L17.7952 16.2282L16.9164 16.0467L17.1159 16.9387L17.1156 16.9411Z" fill="#CECECC" stroke="black" stroke-width="0.0216892"/>
        <path fill-rule="evenodd" clip-rule="evenodd" d="M18.8341 12.8953L19.5004 13.9093L20.3756 14.1093L19.7893 14.4854L20.8403 14.4191L21.3062 14.7297L21.4842 14.4627L21.0169 14.1512L20.675 13.1541L20.5523 13.8414L20.0321 13.1089L18.8338 12.8929L18.8341 12.8953Z" fill="#CECECC" stroke="black" stroke-width="0.0224846"/>
        <path fill-rule="evenodd" clip-rule="evenodd" d="M21.3772 13.6697C21.3772 13.7282 21.3015 13.778 21.2144 13.778C21.1272 13.778 21.0477 13.7282 21.0477 13.6697C21.0477 13.6112 21.1235 13.5586 21.2144 13.5586C21.3053 13.5586 21.3772 13.6083 21.3772 13.6697ZM21.1424 13.9008C21.1424 14.948 21.934 19.394 21.9984 19.5022C22.0022 19.6338 21.8166 19.6894 21.7295 19.5285C21.4795 19.0196 20.9417 14.8485 20.9227 13.8745C20.9114 13.4738 21.0629 13.4416 21.2371 13.4504C21.3772 13.4562 21.5514 13.5586 21.5514 13.6814C21.5514 13.8277 21.3318 13.9359 21.1424 13.9008Z" fill="#E10000" stroke="black" stroke-width="0.0443791"/>
        <path fill-rule="evenodd" clip-rule="evenodd" d="M21.5242 14.1518C21.4957 14.2068 21.4003 14.2361 21.3183 14.216C21.2364 14.1958 21.1858 14.1307 21.2143 14.0757C21.2428 14.0207 21.3397 13.9887 21.4252 14.0097C21.5107 14.0307 21.5542 14.0941 21.5242 14.1518ZM21.1908 14.3148C21.438 16.279 20.5503 19.3252 20.5567 19.4446C20.4975 19.5665 20.2945 19.5786 20.2923 19.4045C20.2503 19.2918 21.2677 16.5378 20.997 14.2393C21.1815 13.86 21.3397 13.8647 21.4993 13.9132C21.6283 13.9511 21.7423 14.0876 21.6824 14.2031C21.6112 14.3406 21.3518 14.3916 21.1908 14.3148Z" fill="#0000C4" stroke="black" stroke-width="0.0449434"/>
        <path fill-rule="evenodd" clip-rule="evenodd" d="M19.3635 17.42C19.3635 17.515 19.2667 17.5958 19.1555 17.5958C19.0442 17.5958 18.9426 17.515 18.9426 17.42C18.9426 17.325 19.0394 17.2395 19.1555 17.2395C19.2716 17.2395 19.3635 17.3203 19.3635 17.42ZM19.0636 17.7953C19.0636 19.4958 20.0746 26.7158 20.1568 26.8915C20.1617 27.1053 19.9246 27.1955 19.8134 26.9343C19.4941 26.1078 18.8072 19.3343 18.783 17.7525C18.7685 17.1018 18.962 17.0495 19.1845 17.0638C19.3635 17.0733 19.586 17.2395 19.586 17.439C19.586 17.6765 19.3054 17.8523 19.0636 17.7953Z" fill="#E10000" stroke="black" stroke-width="0.063914"/>
        <path fill-rule="evenodd" clip-rule="evenodd" d="M19.6184 18.1425C19.5821 18.2325 19.46 18.281 19.3551 18.2488C19.2502 18.2166 19.1852 18.1107 19.2214 18.0207C19.2577 17.9307 19.3815 17.8777 19.491 17.9113C19.6005 17.9449 19.6564 18.048 19.6184 18.1425ZM19.1923 18.4112C19.5166 21.6152 18.3928 26.5945 18.4015 26.7893C18.3263 26.9887 18.0665 27.0101 18.063 26.7259C18.0088 26.5424 19.2997 22.0391 18.944 18.2895C19.1786 17.6688 19.381 17.6753 19.5855 17.7532C19.7507 17.814 19.8971 18.0359 19.821 18.2249C19.7304 18.4499 19.3987 18.5352 19.1923 18.4112Z" fill="#0000C4" stroke="black" stroke-width="0.0641563"/>
        <path fill-rule="evenodd" clip-rule="evenodd" d="M36.2001 30.525L43.0375 37.7375L43.1625 37.5876L36.3251 30.3625L36.2001 30.525ZM31.4501 31.7001L40.375 41.125L40.5251 40.975L31.5875 31.55L31.425 31.7001H31.4501Z" fill="black"/>
        <path fill-rule="evenodd" clip-rule="evenodd" d="M40.2388 41.1343L40.9808 41.8874L41.8379 42.5299L41.2109 41.6661L40.4689 40.913L40.2388 41.1343Z" fill="#808080" stroke="black" stroke-width="0.0425298"/>
        <path fill-rule="evenodd" clip-rule="evenodd" d="M42.5513 37.4468L43.2933 38.1999L44.1504 38.8424L43.5234 37.9786L42.7814 37.2255L42.5513 37.4468Z" fill="#808080" stroke="black" stroke-width="0.0425298"/>
        <path fill-rule="evenodd" clip-rule="evenodd" d="M42.0114 14.0101C42.0114 14.0101 42.7636 34.4586 39.7546 34.4586C36.7456 34.4586 35.2369 32.308 35.2369 32.308L35.2709 21.0693L42.0114 14.0101Z" fill="#FFDF00" stroke="black" stroke-width="0.0677495"/>
        <path fill-rule="evenodd" clip-rule="evenodd" d="M40.1712 15.9176C40.1712 16.9929 40.5069 32.308 39.0024 32.308C37.4979 32.308 35.2369 31.2327 35.2369 31.2327L35.2709 21.0692L40.1712 15.9176Z" fill="#0000C4" stroke="black" stroke-width="0.0677495"/>
        <path fill-rule="evenodd" clip-rule="evenodd" d="M39.1936 16.9504C39.1936 18.0257 39.0024 30.1575 37.4936 30.1575H35.2369L35.2709 21.0693L39.1936 16.9504Z" fill="#E10000" stroke="black" stroke-width="0.0677495"/>
        <path fill-rule="evenodd" clip-rule="evenodd" d="M42.1749 14.025L35.3499 21.25L35.2249 21.1L42.0624 13.8875L42.1874 14.0375L42.1749 14.025Z" fill="black"/>
        <path fill-rule="evenodd" clip-rule="evenodd" d="M36.9597 19.4248C36.9597 19.4248 38.9032 21.8701 39.836 23.7717C40.7679 25.6772 41.8514 28.5878 41.8514 28.5878C41.8514 28.5878 41.2405 25.7129 40.0663 23.4222C38.5267 20.5417 36.9578 19.5906 36.9597 19.4248Z" fill="#005B00" stroke="black" stroke-width="0.0321027"/>
        <path fill-rule="evenodd" clip-rule="evenodd" d="M36.5612 17.5343C36.5612 17.5343 38.6585 20.46 39.6164 22.6425C40.573 24.8291 41.6387 28.1145 41.6387 28.1145C41.6387 28.1145 41.1204 24.943 39.9077 22.3058C38.3094 18.9795 36.5479 17.7112 36.5612 17.5343Z" fill="#005B00" stroke="black" stroke-width="0.0356576"/>
        <path fill-rule="evenodd" clip-rule="evenodd" d="M38.6388 14.7146C38.6388 14.7146 40.1722 19.206 40.6431 21.978C41.1116 24.7525 41.4033 28.5669 41.4033 28.5669C41.4033 28.5669 41.6879 25.3713 41.0575 21.9689C40.1862 17.612 38.5761 14.8526 38.6388 14.7146Z" fill="#005B00" stroke="black" stroke-width="0.0413995"/>
        <path fill-rule="evenodd" clip-rule="evenodd" d="M37.0678 14.4485C37.0678 14.4485 39.0987 18.4582 39.8797 21.182C40.6585 23.9098 41.3789 27.8444 41.3789 27.8444C41.3789 27.8444 41.3011 24.271 40.2905 20.9552C38.9327 16.7428 37.0211 14.6292 37.0678 14.4485Z" fill="#005B00" stroke="black" stroke-width="0.0416501"/>
        <path fill-rule="evenodd" clip-rule="evenodd" d="M39.714 15.5746C39.714 15.5746 40.782 19.8967 41.0616 22.4852C41.3392 25.0755 41.4394 28.5781 41.4394 28.5781C41.4394 28.5781 41.7778 25.7317 41.3928 22.5458C40.8487 18.4557 39.6591 15.6891 39.714 15.5746Z" fill="#005B00" stroke="black" stroke-width="0.0372517"/>
        <path fill-rule="evenodd" clip-rule="evenodd" d="M36.7691 15.8165C36.7691 15.8165 38.7958 19.2631 39.6287 21.6723C40.4598 24.0853 41.2927 27.6117 41.2927 27.6117C41.2927 27.6117 41.0599 24.3437 39.9915 21.4177C38.5672 17.7089 36.7349 15.9875 36.7691 15.8165Z" fill="#005B00" stroke="black" stroke-width="0.0379578"/>
        <path fill-rule="evenodd" clip-rule="evenodd" d="M36.5475 18.1435C36.5475 18.1435 38.6425 20.8812 39.5919 22.9803C40.54 25.0838 41.5888 28.279 41.5888 28.279C41.5888 28.279 41.0925 25.1467 39.8894 22.6153C38.3025 19.429 36.5325 18.3221 36.5475 18.1435Z" fill="#005B00" stroke="black" stroke-width="0.0360998"/>
        <path fill-rule="evenodd" clip-rule="evenodd" d="M36.8229 16.8412C36.8229 16.8412 38.7819 19.965 39.6362 22.2345C40.489 24.508 41.3986 27.8867 41.3986 27.8867C41.3986 27.8867 41.0313 24.6763 39.9437 21.9284C38.5032 18.4556 36.8012 17.016 36.8229 16.8412Z" fill="#005B00" stroke="black" stroke-width="0.0356228"/>
        <path fill-rule="evenodd" clip-rule="evenodd" d="M39.1104 14.8122C39.1104 14.8122 40.3911 19.215 40.7094 21.8977C41.0252 24.5825 41.1094 28.2479 41.1094 28.2479C41.1094 28.2479 41.5641 25.2157 41.1214 21.9192C40.4909 17.6932 39.0407 14.9395 39.1104 14.8122Z" fill="#005B00" stroke="black" stroke-width="0.0403239"/>
        <path fill-rule="evenodd" clip-rule="evenodd" d="M37.4196 13.7334C37.4196 13.7334 39.2487 17.9163 39.8955 20.7028C40.54 23.493 41.0686 27.4808 41.0686 27.4808C41.0686 27.4808 41.1622 23.912 40.3152 20.5144C39.1657 16.1913 37.3644 13.9092 37.4196 13.7334Z" fill="#005B00" stroke="black" stroke-width="0.0417358"/>
        <path fill-rule="evenodd" clip-rule="evenodd" d="M40.1802 16.0075C40.1802 16.0075 40.9967 20.1459 41.1279 22.5991C41.257 25.0539 41.1582 28.3539 41.1582 28.3539C41.1582 28.3539 41.6557 25.7016 41.4536 22.6793C41.1446 18.7957 40.1192 16.1113 40.1802 16.0075Z" fill="#005B00" stroke="black" stroke-width="0.0357147"/>
        <path fill-rule="evenodd" clip-rule="evenodd" d="M36.9594 15.039C36.9594 15.039 38.8611 18.6555 39.5724 21.1491C40.2816 23.6465 40.9137 27.2738 40.9137 27.2738C40.9137 27.2738 40.8987 23.944 39.9747 20.9121C38.7292 17.065 36.911 15.2105 36.9594 15.039Z" fill="#005B00" stroke="black" stroke-width="0.0394041"/>
        <path fill-rule="evenodd" clip-rule="evenodd" d="M44.1589 17.9814C44.1589 17.9814 46.1059 37.5463 40.2649 37.5463C35.3974 37.5463 35.3974 34.4599 34.4239 34.4599L35.3974 27.2524L44.1644 17.9814H44.1589Z" fill="#FFDF00" stroke="black" stroke-width="0.0753879"/>
        <path fill-rule="evenodd" clip-rule="evenodd" d="M42.2118 20.0449C42.2118 21.0737 44.1588 32.4023 39.2858 35.4887C37.3388 36.5175 34.4183 34.4599 34.4183 35.4887L35.3918 27.2524L42.2118 20.0449Z" fill="#0000C4" stroke="black" stroke-width="0.0753879"/>
        <path fill-rule="evenodd" clip-rule="evenodd" d="M40.265 22.1025C40.265 23.1314 41.2385 31.3677 38.3125 33.4311C36.3655 35.4887 31.4925 34.9307 31.4925 34.9307L35.392 27.2524L40.265 22.1025Z" fill="#E10000" stroke="black" stroke-width="0.0753879"/>
        <path fill-rule="evenodd" clip-rule="evenodd" d="M44.2875 18L35.35 27.425L35.1875 27.275L44.1375 17.85L44.2875 18Z" fill="black"/>
        <path fill-rule="evenodd" clip-rule="evenodd" d="M45.7843 16.9411L45.2046 17.0672L45.0276 17.2486C45.0508 17.246 44.8506 17.43 45.0763 17.6668C45.302 17.9035 45.6547 17.5393 45.6547 17.5393C45.6547 17.5393 45.5264 18.1389 45.1714 18.5028C44.8164 18.8667 44.4147 18.8103 44.4147 18.8103C44.4147 18.8103 44.8148 18.4689 44.543 18.2107C44.2709 17.9502 44.1403 18.1554 44.1403 18.1554L43.7863 18.5183L43.5594 18.2802L44.9764 16.8278L45.1047 16.2282L45.9835 16.0467L45.784 16.9387L45.7843 16.9411Z" fill="#CECECC" stroke="black" stroke-width="0.0216892"/>
        <path fill-rule="evenodd" clip-rule="evenodd" d="M44.0409 12.8953L43.3746 13.9093L42.4994 14.1093L43.0857 14.4854L42.0347 14.4191L41.5688 14.7297L41.3908 14.4627L41.8581 14.1512L42.2 13.1541L42.3227 13.8414L42.8429 13.1089L44.0412 12.8929L44.0409 12.8953Z" fill="#CECECC" stroke="black" stroke-width="0.0224846"/>
        <path fill-rule="evenodd" clip-rule="evenodd" d="M41.4978 13.6697C41.4978 13.7282 41.5735 13.778 41.6606 13.778C41.7478 13.778 41.8273 13.7282 41.8273 13.6697C41.8273 13.6112 41.7515 13.5586 41.6606 13.5586C41.5697 13.5586 41.4978 13.6083 41.4978 13.6697ZM41.7326 13.9008C41.7326 14.948 40.941 19.394 40.8766 19.5022C40.8728 19.6338 41.0584 19.6894 41.1455 19.5285C41.3955 19.0196 41.9333 14.8485 41.9523 13.8745C41.9636 13.4738 41.8121 13.4416 41.6379 13.4504C41.4978 13.4562 41.3236 13.5586 41.3236 13.6814C41.3236 13.8277 41.5432 13.9359 41.7326 13.9008Z" fill="#E10000" stroke="black" stroke-width="0.0443791"/>
        <path fill-rule="evenodd" clip-rule="evenodd" d="M41.3632 14.1518C41.3917 14.2068 41.4872 14.2361 41.5691 14.216C41.6511 14.1958 41.7016 14.1307 41.6731 14.0757C41.6446 14.0207 41.5477 13.9887 41.4622 14.0097C41.3767 14.0307 41.3333 14.0941 41.3632 14.1518ZM41.6967 14.3148C41.4494 16.279 42.3372 19.3252 42.3308 19.4446C42.3899 19.5665 42.593 19.5786 42.5951 19.4045C42.6372 19.2918 41.6197 16.5378 41.8905 14.2393C41.7059 13.86 41.5477 13.8647 41.3881 13.9132C41.2592 13.9511 41.1452 14.0876 41.205 14.2031C41.2763 14.3406 41.5356 14.3916 41.6967 14.3148Z" fill="#0000C4" stroke="black" stroke-width="0.0449434"/>
        <path fill-rule="evenodd" clip-rule="evenodd" d="M43.5115 17.42C43.5115 17.515 43.6083 17.5958 43.7195 17.5958C43.8308 17.5958 43.9324 17.515 43.9324 17.42C43.9324 17.325 43.8356 17.2395 43.7195 17.2395C43.6034 17.2395 43.5115 17.3203 43.5115 17.42ZM43.8114 17.7953C43.8114 19.4958 42.8004 26.7158 42.7182 26.8915C42.7133 27.1053 42.9504 27.1955 43.0616 26.9343C43.3809 26.1078 44.0678 19.3343 44.092 17.7525C44.1065 17.1018 43.913 17.0495 43.6905 17.0638C43.5115 17.0733 43.289 17.2395 43.289 17.439C43.289 17.6765 43.5696 17.8523 43.8114 17.7953Z" fill="#E10000" stroke="black" stroke-width="0.063914"/>
        <path fill-rule="evenodd" clip-rule="evenodd" d="M43.2691 18.1425C43.3053 18.2325 43.4274 18.281 43.5323 18.2488C43.6373 18.2166 43.7023 18.1107 43.666 18.0207C43.6298 17.9307 43.5059 17.8777 43.3964 17.9113C43.2869 17.9449 43.231 18.048 43.2691 18.1425ZM43.6952 18.4112C43.3708 21.6152 44.4947 26.5945 44.486 26.7893C44.5612 26.9887 44.821 27.0101 44.8244 26.7259C44.8787 26.5424 43.5877 22.0391 43.9435 18.2895C43.7088 17.6688 43.5064 17.6753 43.302 17.7532C43.1368 17.814 42.9903 18.0359 43.0665 18.2249C43.1571 18.4499 43.4888 18.5352 43.6952 18.4112Z" fill="#0000C4" stroke="black" stroke-width="0.0641563"/>
        <path fill-rule="evenodd" clip-rule="evenodd" d="M28.4745 42.6963C28.9188 42.966 29.4223 43.108 29.9347 43.108C30.4472 43.108 30.9507 42.966 31.395 42.6963V34.46H29.448C30.4215 37.5464 30.4215 40.6386 28.469 42.6963H28.4745Z" fill="#E10000" stroke="black" stroke-width="0.0753879"/>
        <path fill-rule="evenodd" clip-rule="evenodd" d="M29.9195 34.5223C29.9195 40.3191 28.5117 41.6094 28.5117 42.7753C29.098 42.7753 29.4889 42.2316 29.9195 41.4849C30.5058 40.319 30.5622 34.4306 30.5058 34.5223H29.9195Z" fill="#0000C4" stroke="black" stroke-width="0.0621065"/>
        <path fill-rule="evenodd" clip-rule="evenodd" d="M28.7471 34.5222C28.7172 37.9086 27.2631 41.046 27.538 41.7403C27.8494 42.3626 28.7471 40.319 29.9197 41.4783C30.506 40.319 30.5623 34.4305 30.506 34.5157H28.7471V34.5222Z" fill="#0000C4" stroke="black" stroke-width="0.0621065"/>
        <path fill-rule="evenodd" clip-rule="evenodd" d="M28.8946 34.5532C28.8946 38.4251 27.5464 38.6832 27.5464 39.7157C28.1327 39.7157 28.8913 39.1513 28.8946 39.2038C29.4809 38.4251 29.5372 34.4919 29.4809 34.5532H28.8946Z" fill="#FFDF00" stroke="black" stroke-width="0.0507581"/>
        <path fill-rule="evenodd" clip-rule="evenodd" d="M27.722 34.5532C27.6922 36.8151 26.2711 38.7401 26.546 39.2038C26.8607 39.6151 27.722 38.4251 28.8946 39.2038C29.4809 38.4251 29.5372 34.4919 29.4809 34.5532H27.722Z" fill="#FFDF00" stroke="black" stroke-width="0.0507581"/>
        <path fill-rule="evenodd" clip-rule="evenodd" d="M34.413 42.6963C33.9686 42.966 33.4651 43.108 32.9527 43.108C32.4403 43.108 31.9368 42.966 31.4925 42.6963V34.46H33.4395C32.466 37.5464 32.466 40.6386 34.4185 42.6963H34.413Z" fill="#E10000" stroke="black" stroke-width="0.0753879"/>
        <path fill-rule="evenodd" clip-rule="evenodd" d="M32.9679 34.5223C32.9679 40.3191 34.3757 41.6094 34.3757 42.7753C33.7894 42.7753 33.3985 42.2316 32.9679 41.4849C32.3816 40.319 32.3253 34.4306 32.3816 34.5223H32.9679Z" fill="#0000C4" stroke="black" stroke-width="0.0621065"/>
        <path fill-rule="evenodd" clip-rule="evenodd" d="M34.1404 34.5222C34.1702 37.9086 35.6244 41.046 35.3495 41.7403C35.0381 42.3626 34.1404 40.319 32.9678 41.4783C32.3815 40.319 32.3251 34.4305 32.3815 34.5157H34.1404V34.5222Z" fill="#0000C4" stroke="black" stroke-width="0.0621065"/>
        <path fill-rule="evenodd" clip-rule="evenodd" d="M34.0053 34.5532C34.0053 38.4251 35.3535 38.6832 35.3535 39.7157C34.7672 39.7157 34.0086 39.1513 34.0053 39.2038C33.419 38.4251 33.3627 34.4919 33.419 34.5532H34.0053Z" fill="#FFDF00" stroke="black" stroke-width="0.0507581"/>
        <path fill-rule="evenodd" clip-rule="evenodd" d="M35.1779 34.5532C35.2077 36.8151 36.6288 38.7401 36.3539 39.2038C36.0392 39.6151 35.1779 38.4251 34.0053 39.2038C33.419 38.4251 33.3627 34.4919 33.419 34.5532H35.1779Z" fill="#FFDF00" stroke="black" stroke-width="0.0507581"/>
        <path fill-rule="evenodd" clip-rule="evenodd" d="M24.0343 35.345L23.0251 36.0973L24.0343 36.8495L24.5383 36.4734L24.7903 36.8495L25.0423 37.6018L25.2954 36.8495L25.5474 36.4734H39.0688V35.7212H25.5463L25.2943 35.3429C25.2943 34.9668 25.3471 34.5907 25.5474 34.5907H26.5554C26.5554 34.2145 26.0514 33.4623 25.0423 33.4623C24.0343 33.4623 23.5291 34.2145 23.5291 34.5907H24.5383C24.7374 34.5907 24.7903 34.9668 24.7903 35.345L24.5383 35.7212L24.0331 35.3429L24.0343 35.345Z" fill="#908F8A" stroke="black" stroke-width="0.0695774"/>
        <path fill-rule="evenodd" clip-rule="evenodd" d="M27.0005 37.1262H35.8389V37.5842H27.0031L27.0005 37.1262ZM27.0005 36.6657H35.8389V37.1262H27.0031L27.0005 36.6657ZM27.0005 36.2077H35.8389V36.6683H27.0031L27.0005 36.2077ZM27.0005 35.7497H35.8389V36.2077H27.0031L27.0005 35.7497ZM27.0005 35.2917H35.8389V35.7497H27.0031L27.0005 35.2917ZM27.0005 34.8311H35.8389V35.2917H27.0031L27.0005 34.8311ZM27.0005 34.3757H35.8389V34.8311H27.0031L27.0005 34.3757Z" fill="#B74D00"/>
        <path d="M35.8389 37.1262H27.0005L27.0031 37.5842H35.8389V37.1262ZM35.8389 37.1262V36.6657H27.0005L27.0031 37.1262H35.8389ZM35.8389 36.2077H27.0005L27.0031 36.6683H35.8389V36.2077ZM35.8389 36.2077V35.7497M35.8389 36.2077H27.0031L27.0005 35.7497H35.8389M35.8389 35.7497V35.2917M35.8389 35.7497H27.0031L27.0005 35.2917H35.8389M35.8389 35.2917V34.8311M35.8389 35.2917H27.0031L27.0005 34.8311H35.8389M35.8389 34.8311V34.3757H27.0005L27.0031 34.8311H35.8389Z" stroke="black" stroke-width="0.0469113"/>
        <path fill-rule="evenodd" clip-rule="evenodd" d="M27.5261 34.3702L30.7989 37.5787H31.2667L27.9964 34.3728H27.5285L27.5261 34.3702Z" fill="#908F8A" stroke="black" stroke-width="0.0818061"/>
        <path fill-rule="evenodd" clip-rule="evenodd" d="M27.5261 37.5798L30.7989 34.3713H31.2667L27.9964 37.5772H27.5285L27.5261 37.5798Z" fill="#908F8A" stroke="black" stroke-width="0.0818061"/>
        <path fill-rule="evenodd" clip-rule="evenodd" d="M27.4741 34.3702V37.5787H27.9387V34.3702H27.4741Z" fill="#908F8A" stroke="black" stroke-width="0.0807917"/>
        <path fill-rule="evenodd" clip-rule="evenodd" d="M31.7009 34.3702L34.9737 37.5787H35.4416L32.1712 34.3728H31.7033L31.7009 34.3702Z" fill="#908F8A" stroke="black" stroke-width="0.0818061"/>
        <path fill-rule="evenodd" clip-rule="evenodd" d="M31.7009 37.5798L34.9737 34.3713H35.4416L32.1712 37.5772H31.7033L31.7009 37.5798Z" fill="#908F8A" stroke="black" stroke-width="0.0818061"/>
        <path fill-rule="evenodd" clip-rule="evenodd" d="M34.9116 34.3702V37.5787H35.3762V34.3702H34.9116Z" fill="#908F8A" stroke="black" stroke-width="0.0807917"/>
        <path fill-rule="evenodd" clip-rule="evenodd" d="M31.6616 34.3702V37.5787H32.1262V34.3702H31.6616Z" fill="#908F8A" stroke="black" stroke-width="0.0807917"/>
        <path fill-rule="evenodd" clip-rule="evenodd" d="M30.7241 34.3702V37.5787H31.1887V34.3702H30.7241Z" fill="#908F8A" stroke="black" stroke-width="0.0807917"/>
        <path fill-rule="evenodd" clip-rule="evenodd" d="M38.215 25.1948C38.215 30.3098 35.157 34.4599 31.395 34.4599C27.633 34.4599 24.575 30.3098 24.575 25.1948C24.575 20.0798 27.6275 15.9238 31.395 15.9238C35.1625 15.9238 38.215 20.074 38.215 25.189V25.1948ZM37.2415 25.1948C37.2415 29.7401 34.6235 33.4311 31.395 33.4311C28.1665 33.4311 25.5485 29.7401 25.5485 25.1948C25.5485 20.6436 28.1665 16.9526 31.395 16.9526C34.6235 16.9526 37.2415 20.6436 37.2415 25.1948Z" fill="#FFDF00" stroke="black" stroke-width="0.0753879"/>
        <path fill-rule="evenodd" clip-rule="evenodd" d="M34.0515 16.6562C33.232 16.1854 32.3355 15.9238 31.395 15.9238C30.4545 15.9238 29.558 16.1854 28.7385 16.6504L29.1235 17.6036C29.8152 17.1823 30.5995 16.9605 31.3978 16.9605C32.1961 16.9605 32.9804 17.1823 33.672 17.6036L34.0515 16.6504V16.6562Z" fill="#FFDF00" stroke="black" stroke-width="0.0753879"/>
        <path fill-rule="evenodd" clip-rule="evenodd" d="M34.064 33.7687C33.2445 34.2395 32.348 34.5011 31.4075 34.5011C30.467 34.5011 29.5705 34.2395 28.751 33.7745L29.136 32.8213C29.8276 33.2426 30.6119 33.4644 31.4102 33.4644C32.2085 33.4644 32.9928 33.2426 33.6845 32.8213L34.064 33.7745V33.7687Z" fill="#FFDF00" stroke="black" stroke-width="0.0753879"/>
        <path fill-rule="evenodd" clip-rule="evenodd" d="M37.25 25.1875C37.25 29.7375 34.625 33.4249 31.4 33.4249C28.1625 33.4249 25.55 29.7375 25.55 25.1875C25.55 20.6375 28.175 16.95 31.4 16.95C34.625 16.95 37.2375 20.6375 37.2375 25.1875H37.25Z" fill="#A7CFFF"/>
        <path fill-rule="evenodd" clip-rule="evenodd" d="M37.2414 25.1948C37.3019 26.7409 36.9884 27.4966 36.5869 29.1066C36.4824 29.281 35.9819 28.7288 35.6849 28.4556C35.3879 28.1824 35.2559 28.6998 34.8819 28.2813C34.5134 27.8511 34.2769 28.3975 34.0019 28.0371C33.7269 27.6768 31.1804 27.6303 31.1804 27.5954C31.4334 27.4675 32.7314 27.607 32.5224 26.9502C32.2859 26.2643 30.8174 26.927 30.6194 26.0551C30.4819 25.1832 27.6714 25.1483 27.4679 24.9391C27.5504 25.2646 29.6569 25.4041 29.6074 26.2469C29.5579 26.5956 27.5339 26.6945 27.3359 26.9851C27.1709 27.3513 28.9309 26.8863 28.9914 27.3338C28.9914 27.5198 28.7329 27.3338 27.8199 27.6245C27.3579 27.7698 28.6669 28.2231 28.1719 28.4731C27.6769 28.723 26.6154 28.8334 26.6594 28.9381C26.8244 29.4612 29.1179 30.0773 28.8924 30.1645C28.0784 30.5481 27.6494 30.7981 27.2589 31.0189C26.1147 29.3205 25.5153 27.2795 25.5484 25.1948C27.2919 24.5322 26.9234 24.3927 30.1464 24.3927C33.3694 24.3927 34.4364 24.5264 37.2414 25.1948Z" fill="#AFFF7B" stroke="black" stroke-width="0.0753879"/>
        <path fill-rule="evenodd" clip-rule="evenodd" d="M37.2416 25.1948C36.8016 25.1948 36.3396 25.3925 35.8666 25.3925C35.3881 25.3925 34.9041 25.189 34.4091 25.189C33.9141 25.189 33.3476 25.4564 32.8416 25.4564C32.3301 25.4564 31.8846 25.1948 31.3731 25.1948C30.8616 25.1948 30.3501 25.3925 29.8441 25.3925C29.3381 25.3925 28.8376 25.189 28.3481 25.189C27.8586 25.189 27.3746 25.3925 26.9071 25.3925C26.4396 25.3925 25.9831 25.189 25.5486 25.189C25.5486 24.0556 25.7136 22.9745 26.0106 21.9863C27.4956 22.1026 26.6156 21.0738 27.4956 21.0738C27.7525 21.0591 28.0094 21.1023 28.2493 21.2005C28.4892 21.2987 28.7066 21.4496 28.8871 21.6434C29.0191 21.6434 29.6791 20.9808 30.4216 21.0738C31.1586 21.1668 30.8891 22.6606 31.8736 22.7361C32.3686 23.1314 32.6601 23.3813 33.3421 23.5441C34.3156 23.6371 37.1041 23.3988 37.1206 23.5325C37.2009 24.0825 37.2413 24.6383 37.2416 25.1948Z" fill="white" stroke="black" stroke-width="0.0753879"/>
        <path fill-rule="evenodd" clip-rule="evenodd" d="M32.4043 30.2077C32.4043 29.9491 32.6658 29.7766 32.6658 29.3637C32.6658 28.9508 32.4333 28.9417 32.4256 28.5561C32.4217 28.3972 32.6252 28.2384 32.7143 28.2203C32.8034 28.2021 32.879 28.5561 32.879 28.6332C32.879 28.7103 32.7879 28.4426 32.7123 28.4381C32.6368 28.4335 32.474 28.4653 32.474 28.5424C32.474 28.6967 32.7608 28.8873 32.7395 29.4046C32.7182 29.9128 32.4934 30.067 32.4934 30.2213C32.4934 30.3756 32.5903 30.8021 32.5903 30.8021C32.5903 30.8021 32.4023 30.4618 32.4023 30.2032L32.4043 30.2077Z" fill="black" stroke="black" stroke-width="0.0395337"/>
        <path fill-rule="evenodd" clip-rule="evenodd" d="M32.6582 30.1703C32.6582 29.9117 32.3967 29.7392 32.3967 29.3263C32.3967 28.9134 32.6292 28.9043 32.6369 28.5186C32.6563 28.3371 32.4083 28.2192 32.3192 28.2056C32.23 28.1919 32.1254 28.5686 32.1254 28.6412C32.1254 28.7138 32.23 28.4052 32.3056 28.4007C32.3812 28.3961 32.5885 28.4279 32.5885 28.505C32.5885 28.6593 32.3017 28.8499 32.323 29.3672C32.3443 29.8754 32.5691 30.0296 32.5691 30.1839C32.5691 30.3382 32.4722 30.7647 32.4722 30.7647C32.4722 30.7647 32.6602 30.4244 32.6602 30.1658L32.6582 30.1703Z" fill="black" stroke="black" stroke-width="0.0395337"/>
        <path fill-rule="evenodd" clip-rule="evenodd" d="M32.6624 28.0625C32.6624 28.1875 32.5999 28.3 32.5374 28.3C32.4499 28.3 32.3875 28.2 32.3875 28.0625C32.3875 27.925 32.45 27.8375 32.525 27.8375C32.6 27.8375 32.6624 27.9375 32.6624 28.0625ZM34.4249 28.75H34.4749V30.5875H34.4249V28.75ZM34.825 28.6H34.875V30.45H34.825V28.6Z" fill="black"/>
        <path fill-rule="evenodd" clip-rule="evenodd" d="M34.5125 29.625V29.5625L34.8875 29.6375V29.675L34.5125 29.625Z" fill="black"/>
        <path fill-rule="evenodd" clip-rule="evenodd" d="M29.264 29.9713C29.264 29.9713 30.694 30.6339 31.0075 31.0292C31.3155 31.4244 31.1945 31.4244 31.1945 31.4244L34.368 31.5581C34.368 31.3605 34.929 31.3605 35.0555 30.8955C35.182 30.4363 35.182 30.3026 35.182 30.3026L34.1865 30.6339L34.2415 30.041H33.3725L33.246 30.6339L31.376 30.57L31.5025 28.9832L31.1285 29.0471L31.0735 30.5583C31.0075 30.5583 29.3245 30.0992 29.2585 29.9713H29.264Z" fill="#B74D00" stroke="black" stroke-width="0.0753879"/>
        <path fill-rule="evenodd" clip-rule="evenodd" d="M26.3899 20.51C26.3899 20.51 28.4634 19.859 31.4554 19.9055C34.4474 19.952 36.5209 20.6495 36.4769 20.6495C36.4329 20.6495 35.9049 19.58 35.9049 19.58C35.9049 19.58 33.7929 18.9697 31.4114 18.9232C29.0354 18.8767 26.9619 19.3882 27.0114 19.4347L26.3899 20.51Z" fill="#FEDE00" stroke="#FEDE00" stroke-width="0.0753879"/>
        <path fill-rule="evenodd" clip-rule="evenodd" d="M30.1251 19.1L31.4126 19.075V19.825L30.1376 19.85L30.1251 19.1ZM27.1751 19.5125L26.7251 20.25L28.2501 20.0625L28.1251 19.3125L27.1751 19.5125ZM28.4751 19.225L29.7501 19.1125L29.8126 19.8625L28.5376 19.975L28.4751 19.225ZM33.0876 19.15L31.8126 19.0625L31.7626 19.8125L33.0376 19.9L33.0876 19.15ZM35.8376 19.625L36.3001 20.5375L34.9251 20.1875L35.0751 19.4625L35.8376 19.625ZM34.7251 19.35L33.4626 19.1875L33.3751 19.925L34.6376 20.0875L34.7251 19.35Z" fill="#38A9F9"/>
        <path fill-rule="evenodd" clip-rule="evenodd" d="M31.4554 20.9284L31.3179 20.1438L30.8999 20.8122L31.0539 20.0275L30.4324 20.4751L30.8504 19.8183L30.1134 19.981L30.7459 19.5393L30.0034 19.394L30.7459 19.2428L30.1134 18.8011L30.8504 18.9638L30.4269 18.307L31.0539 18.7546L30.8999 17.9699L31.3179 18.6383L31.4554 17.8536L31.5984 18.6383L32.0109 17.9699L31.8624 18.7546L32.4839 18.307L32.0604 18.9638L32.8029 18.8011L32.1704 19.2428L32.9129 19.394L32.1704 19.5393L32.8029 19.981L32.0604 19.8183L32.4839 20.4751L31.8624 20.0275L32.0164 20.8122L31.5984 20.1438L31.4554 20.9284Z" fill="#FFDF00" stroke="black" stroke-width="0.0753879"/>
        <path fill-rule="evenodd" clip-rule="evenodd" d="M32.3762 19.3791C32.3762 19.8301 32.0214 20.1939 31.5807 20.1939C31.1399 20.1939 30.7852 19.8301 30.7852 19.3791C30.7852 18.928 31.1399 18.5594 31.5807 18.5594C32.0214 18.5594 32.3762 18.928 32.3762 19.3839V19.3791Z" fill="#FFDF00" stroke="black" stroke-width="0.0680768"/>
        <path fill-rule="evenodd" clip-rule="evenodd" d="M31.5001 19.1749C31.5001 19.2249 31.3876 19.2625 31.2501 19.2625C31.1126 19.2625 30.9751 19.2249 30.9751 19.1749C30.9751 19.1249 31.1001 19.075 31.2376 19.075C31.3751 19.075 31.5126 19.1249 31.5126 19.1749H31.5001ZM32.0876 19.1749C32.0876 19.2249 31.9876 19.2625 31.8876 19.2625C31.7876 19.2625 31.6876 19.2249 31.6876 19.1749C31.6876 19.1249 31.7751 19.075 31.8876 19.075C32.0001 19.075 32.0751 19.1249 32.0751 19.1749H32.0876Z" fill="black"/>
        <path d="M31.3842 19.4979L31.439 19.5293C31.3073 19.4491 31.3674 19.4789 31.5736 19.6813C31.6927 19.6138 31.7157 19.5521 31.7899 19.4683" stroke="black" stroke-width="0.0755067"/>
        <path d="M31.1041 19.8125L31.1481 19.859C31.0436 19.7427 31.0931 19.8009 31.3241 19.952C31.5441 19.981 31.7696 19.8822 31.9016 19.7195" stroke="black" stroke-width="0.0753879"/>
        <path fill-rule="evenodd" clip-rule="evenodd" d="M27.9375 21.3375C27.9375 21.3375 28.025 22.0875 27.4375 23.025C26.875 23.95 26.9625 23.625 26.9625 23.625C26.9625 23.625 27.225 24.125 27.1875 24.125C27.15 24.125 26.7375 23.675 26.7375 23.675L26.2625 24.175C26.2625 24.175 26.7 23.3875 26.65 23.3875C26.6 23.3875 26.525 23.1125 26.525 23.1125L26.875 22.975C26.875 22.975 27.4 22 27.4 22.0375C27.4 22.075 25.8125 23.1125 25.8125 23.1125L27.9375 21.3375ZM28.2875 21.625C28.2375 21.625 28.5 22.375 28.725 22.75C28.8625 23.004 28.9395 23.2864 28.95 23.575L29.7 23.95L28.725 22.5125L29.35 22.7375L28.2875 21.6125V21.625ZM28.2875 23.575C28.2875 23.575 28.8125 24.1375 28.8625 24.325C28.9125 24.5125 28.9 24.925 28.9 24.925L28.6875 24.4625L28.375 24.8875C28.375 24.8875 28.6 24.225 28.55 24.1875C28.5 24.15 28.2 24.4125 28.2 24.4125L28.325 24C28.325 23.9625 28.325 23.7125 28.2875 23.575ZM25.625 24.8875C25.8 24.7375 26.1625 24.6375 26.1625 24.6375C26.1625 24.6375 25.9375 25.0125 25.8875 25.0125C25.8375 25.0125 25.7125 25.0125 25.6375 24.8875H25.625ZM31.7125 22.8375C31.7125 22.8375 32.85 23.5375 32.85 23.5875C32.85 23.6375 32.1 23.25 32.1 23.25L31.7125 22.8375ZM29.65 21.375C29.7375 21.425 31.325 22.725 31.275 22.725C31.225 22.725 30.575 22.35 30.575 22.4V22.725L30.225 21.975L30.1375 22.2625L29.65 21.3875V21.375ZM30.05 23.475L30.4875 24.35L30.925 24.2625C30.925 24.2625 30.0875 23.475 30.05 23.475ZM31.425 22.9125L31.4625 23.75C31.4625 23.75 31.7125 23.9875 31.7125 23.9375C31.7125 23.8875 31.4625 22.9625 31.4125 22.9125H31.425Z" fill="#B7E1FF"/>
        <path fill-rule="evenodd" clip-rule="evenodd" d="M18.4751 11.525C18.4751 11.525 20.4626 10.4375 22.7251 9.61245C24.3799 9.00642 26.0872 8.5545 27.8251 8.26245C28.5001 8.26245 29.6376 9.93745 29.8251 9.93745C30.0251 9.93745 30.7876 9.47495 31.7376 9.47495C32.6876 9.47495 33.2626 10.225 33.4626 10.225H35.1751C35.3626 10.225 34.6001 8.34995 35.1751 8.44995C35.4626 8.49995 37.9001 8.87495 40.1626 9.59995C42.4251 10.35 45.6376 11.6375 45.6376 11.6375C45.6376 11.6375 40.3876 12.3375 38.9876 12.1375C38.8001 12.225 38.9876 13.3625 38.7126 12.8625C38.2751 12.7625 36.6626 12.5125 36.3751 12.5125C36.0876 12.5125 35.5626 12.8375 34.8001 13.0125C34.2221 13.1598 33.647 13.3181 33.0751 13.4875L34.3251 15.4375L32.7876 16.1875C32.7876 16.1875 31.8376 13.95 31.4501 13.95C31.0626 13.95 30.8876 15.5375 30.4001 15.45C29.9251 15.35 29.7376 13.95 29.3626 13.575C28.9751 13.2 26.9626 13.075 26.2001 12.8875C25.4376 12.7 24.2001 12.55 23.5376 12.3625C22.8751 12.175 22.2001 12.8375 21.9126 12.8375C21.6251 12.8375 22.2876 12.275 22.0126 12.175C21.7376 12.075 21.5376 12.4625 21.3376 12.4625C21.1501 12.4625 19.1501 12.0875 18.9626 11.9875C18.7626 11.9 19.4376 11.525 19.2501 11.525H18.4876H18.4751Z" fill="#984000"/>
        <path fill-rule="evenodd" clip-rule="evenodd" d="M32.6494 10.5625C32.6494 11.0925 32.2245 11.5225 31.7027 11.5225C31.1809 11.5225 30.7581 11.0925 30.7581 10.5625C30.7581 10.0325 31.1809 9.60498 31.7027 9.60498C32.2245 9.60498 32.6494 10.035 32.6494 10.5625Z" fill="#808080" stroke="#772600" stroke-width="0.0840173"/>
        <path fill-rule="evenodd" clip-rule="evenodd" d="M27.9561 10.775C28.1286 10.577 28.3423 10.277 28.9011 10.277C29.0298 10.226 29.0298 9.92603 29.3285 9.92603C29.6298 9.92603 29.5423 10.226 29.7586 10.328C29.9723 10.427 31.731 10.226 31.731 10.226C31.731 10.226 31.901 10.376 31.901 10.577C31.901 10.778 31.7722 10.925 31.731 10.925C31.6898 10.925 29.9723 10.775 29.8435 10.826C29.7148 10.877 29.6298 10.925 29.3285 10.925C29.0298 10.925 28.9423 10.577 28.7286 10.577C28.5148 10.577 28.3011 10.526 27.9561 10.778V10.775Z" fill="#984000" stroke="#772600" stroke-width="0.147308"/>
        <path d="M33.1884 10.677H33.8734C34.1206 10.68 34.2055 10.767 34.4321 10.776H35.0321C35.251 10.767 35.3669 10.707 35.5883 10.677C35.9617 10.671 35.8355 10.638 35.7608 10.377C35.6939 10.182 35.6836 10.089 35.5883 9.97802C35.5523 9.73802 35.4699 9.65402 35.4596 9.37802C35.4209 9.16802 35.3488 9.02702 35.4184 8.77802C35.5162 8.94902 35.5548 9.01802 35.8046 9.03002C36.0621 9.03002 36.1625 9.02102 36.3196 9.12902C36.4381 9.27602 36.5977 9.22802 36.8346 9.22802C37.0303 9.27002 37.0638 9.38702 37.2183 9.47702C37.4011 9.59702 37.5196 9.62702 37.7745 9.62702C37.9805 9.67202 38.1607 9.70502 38.2895 9.77702C38.4002 9.93002 38.5727 9.96902 38.8045 9.97802C38.9332 9.97802 39.0362 9.96302 39.147 9.92702C39.3452 9.93902 39.5461 9.92702 39.7907 9.92702C39.9504 10.143 39.9864 10.224 40.2619 10.227C40.4525 10.383 40.6121 10.407 40.7769 10.476H41.4207C41.6524 10.497 41.7245 10.608 41.9357 10.677C42.1168 10.7724 42.3025 10.8555 42.4919 10.926C42.6762 10.9649 42.8634 10.982 43.0507 10.977C43.2077 11.073 43.4009 11.079 43.5219 11.175C43.6996 11.22 43.9416 11.274 44.0781 11.325C44.3047 11.361 44.3922 11.445 44.5931 11.475C44.7656 11.535 44.5364 11.583 44.4206 11.625C44.1682 11.616 44.1502 11.505 43.9056 11.475C43.7768 11.388 43.5811 11.4 43.3906 11.325H43.3494C43.5193 11.445 43.6841 11.52 43.6069 11.727C43.388 11.727 43.2103 11.694 43.0069 11.676C42.7906 11.628 42.6927 11.577 42.4507 11.577C42.6927 11.508 42.7545 11.583 42.9219 11.676C42.9837 11.916 42.8498 11.826 42.6206 11.826C42.4249 11.745 42.3065 11.646 42.0644 11.625H41.5494C41.8044 11.637 41.8584 11.748 42.0207 11.877C42.0335 11.955 42.0181 11.949 41.8919 11.976C41.758 11.841 41.5855 11.796 41.3769 11.727C41.1735 11.718 40.9598 11.697 40.7769 11.625C40.6508 11.616 40.6714 11.442 40.9495 11.727C41.1168 11.841 41.1761 11.937 41.1632 12.027C40.9417 11.961 40.8336 11.859 40.692 11.775C40.4993 11.6972 40.2956 11.6636 40.092 11.676C39.8705 11.607 40.1152 11.568 40.2619 11.826C40.5812 12.09 40.2207 11.976 40.092 11.925C39.8989 11.862 39.698 11.769 39.5332 11.727C39.4045 11.682 39.2912 11.64 39.147 11.625C39.371 11.649 39.4457 11.742 39.5332 11.925C39.7598 12.105 39.5229 12.018 39.3195 11.976C39.1907 11.844 39.0234 11.775 38.9332 11.625C38.7195 11.502 38.7118 11.355 38.8483 11.676C38.8817 11.778 38.874 12 38.8895 12.027C38.7324 11.826 38.7659 11.775 38.5908 11.775C38.4697 11.679 38.2946 11.604 38.2045 11.475C38.0397 11.457 38.0294 11.388 37.862 11.325C37.9985 11.514 38.1813 11.7 38.2895 11.877C38.4852 12.003 38.5393 12.117 38.6757 12.225C38.7298 12.336 38.8817 12.426 38.7195 12.276C38.5341 12.066 38.3976 12.015 38.1195 11.877C37.9599 11.727 37.9032 11.667 37.7333 11.526C37.5015 11.439 37.5917 11.391 37.7333 11.676C37.8955 11.85 38.0191 12.042 38.1607 12.177C38.2718 12.3316 38.402 12.466 38.547 12.576C38.5856 12.642 38.7015 12.654 38.547 12.675C38.4182 12.537 38.2277 12.45 38.0758 12.324C37.862 12.255 37.7616 12.126 37.6045 11.976C37.5015 11.799 37.3367 11.664 37.2183 11.526C36.9711 11.412 37.2672 11.634 37.347 11.775C37.4011 11.958 37.4706 12.105 37.517 12.276C37.5891 12.441 37.3007 12.237 37.2183 12.177C37.0489 12.0491 36.8587 11.9634 36.6595 11.925C36.4889 11.8852 36.3171 11.8522 36.1445 11.826C35.9514 11.766 36.2501 11.97 36.3608 12.177C36.5771 12.414 36.1471 12.219 36.0183 12.177C35.8058 12.1349 35.5901 12.1179 35.3746 12.126C35.0991 12.144 35.2973 12.186 35.3746 12.324C35.4596 12.402 35.5188 12.564 35.5033 12.624C35.3231 12.594 35.1686 12.534 34.9446 12.525C34.7643 12.594 34.5506 12.576 34.3446 12.576C34.3369 12.702 34.3832 12.594 34.4733 12.726C34.6227 12.795 34.7205 12.879 34.6896 12.975H33.4459C33.3094 13.017 33.4742 12.996 33.5747 13.176C33.518 13.338 33.4459 13.275 33.2734 13.275C33.1575 13.221 32.9232 13.197 32.8022 13.125C32.6811 13.125 32.6914 13.089 32.5884 13.074C32.9489 13.374 32.7687 13.299 32.9747 13.524C33.0082 13.539 33.0906 13.575 33.0159 13.575M30.186 15.174C30.1602 15.174 30.1036 15.012 30.016 14.874C29.9542 14.694 29.877 14.796 29.7997 14.523C29.81 14.241 29.8177 14.193 29.7997 13.923C29.6246 13.779 29.5499 13.737 29.4135 13.473C29.1972 13.263 29.4469 12.903 29.4881 12.639C29.2976 12.591 29.2049 12.984 28.9139 13.125C28.7028 13.29 28.8882 12.783 28.7852 12.489C28.7156 12.072 28.5071 12.699 28.4298 12.876C28.2882 12.987 28.2444 13.131 28.0436 12.924C28.0436 12.771 28.1697 12.339 28.1157 12.255C27.9148 12.372 27.6522 12.72 27.4436 12.774C27.2324 12.723 27.4874 12.33 27.4874 12.039C27.4101 12.009 27.1088 12.813 26.9852 12.819C26.8616 12.825 26.9157 12.039 26.8565 12.057C26.7664 12.207 26.5835 12.519 26.4574 12.627C26.2127 12.588 26.4934 12.102 26.5295 11.922C26.5707 11.706 26.3003 12.336 26.1561 12.375C26.0505 12.483 25.8419 12.555 25.7698 12.576C25.8522 12.39 26.2591 12.015 26.2333 11.907C25.9939 11.916 25.6308 12.282 25.4274 12.327C25.2935 12.327 25.1081 12.378 25.0849 12.375C25.0952 12.135 25.5844 11.937 25.6617 11.79C25.4222 11.835 24.9613 12.081 24.8274 12.276C24.6677 12.315 24.4669 12.366 24.3124 12.276C24.3356 12.051 24.6961 11.616 24.7759 11.472C24.557 11.583 24.4489 11.67 24.2171 11.721C24.1733 11.772 24.0497 11.88 24.0884 11.772C24.1579 11.562 24.2609 11.472 24.3459 11.322C24.1527 11.364 24.0806 11.493 23.8746 11.622C23.7433 11.628 23.3674 12.069 23.2412 12.075C23.0276 12.2711 22.7784 12.4076 22.5125 12.474C22.3168 12.516 22.2215 12.564 22.1262 12.675C22.2241 12.474 22.3734 12.285 22.5125 12.177C22.5973 11.9949 22.7339 11.8528 22.8987 11.775C22.9476 11.706 23.0815 11.688 22.9399 11.676C22.8189 11.802 22.6129 11.946 22.5125 12.027C22.3811 12.123 22.2292 12.219 22.1674 12.177C22.2369 11.961 22.3605 11.907 22.4687 11.727C22.6953 11.559 22.4687 11.667 22.2962 11.727C22.1854 11.841 21.9872 11.928 21.8249 12.027C21.6447 12.081 21.5237 12.207 21.3099 12.276C21.3099 12.348 21.3717 12.147 21.3975 12.075C21.5726 11.853 21.6189 11.79 21.8249 11.727C21.8764 11.64 21.9382 11.676 21.7837 11.676C21.6653 11.796 21.5056 11.862 21.3537 11.976C21.2018 12.015 21.0035 12.027 20.7975 12.027C20.5297 12.063 20.5529 12.087 20.7975 11.925C20.934 11.775 21.0473 11.814 21.055 11.625C20.8928 11.763 20.6945 11.865 20.4962 11.976C20.3314 11.982 20.2877 12.027 20.11 12.027C20.195 11.925 20.2465 11.796 20.3675 11.727C20.5477 11.496 20.2542 11.682 20.195 11.727H19.5512C19.4379 11.895 19.5461 11.727 19.6388 11.625C19.7495 11.559 19.8654 11.472 19.8525 11.427C19.7237 11.556 19.577 11.616 19.4662 11.727C19.3478 11.769 19.2087 11.787 19.2087 11.826C19.304 11.667 19.4559 11.568 19.5538 11.427C19.698 11.391 19.8216 11.337 19.8525 11.277H19.2525H19.68C19.8988 11.277 20.0842 11.253 20.2825 11.226C20.6224 11.16 20.2516 11.127 20.0662 11.127C20.0327 11.049 20.1744 11.007 20.3237 10.977C20.4525 10.905 20.6147 10.842 20.7537 10.776C20.8765 10.7325 20.9922 10.6656 21.0962 10.578C20.9675 10.584 20.9675 10.62 20.8387 10.626C21.0318 10.611 21.1683 10.578 21.3975 10.578C21.5862 10.5055 21.7718 10.4224 21.9537 10.329C22.0309 10.221 22.0618 10.227 21.8687 10.227C22.0412 10.164 22.2859 10.131 22.4249 10.077C22.6024 10.0337 22.7752 9.96728 22.9399 9.87902C23.0661 9.78002 23.1382 9.66302 23.2824 9.57902C23.4498 9.71102 23.4523 9.72902 23.7536 9.72902C23.9957 9.72602 24.145 9.65702 24.2686 9.52802C24.454 9.46802 24.4875 9.36602 24.6986 9.33002C24.8971 9.36633 25.0978 9.38239 25.2986 9.37802C25.5046 9.31502 25.7029 9.19802 25.8548 9.07802C25.9861 9.00302 26.1432 8.89502 26.2848 8.82902C26.4393 8.92202 26.5629 8.99702 26.7561 9.03002C26.9543 8.99402 27.0599 8.88002 27.2273 8.82902C27.3305 8.70101 27.4656 8.61393 27.6135 8.58002C27.8633 8.43602 27.8453 8.62502 27.956 8.77802C28.0848 8.93402 28.2496 8.85902 28.4272 8.92802C28.5277 9.10802 28.5998 9.22802 28.7285 9.32702C28.8289 9.47102 28.9474 9.50702 29.1585 9.52802C29.2358 9.64802 29.174 9.73202 29.3285 9.77702C29.3903 9.85502 29.4959 9.88502 29.586 9.92702" stroke="#772600" stroke-width="0.0972786"/>
        <path d="M32.694 13.899V13.923C32.694 13.854 32.694 13.893 32.7378 14.025C32.7532 14.133 32.7172 14.121 32.6734 14.199C32.6657 14.31 32.6528 14.391 32.6528 14.523C32.6374 14.631 32.5859 14.733 32.5447 14.823C32.5035 14.916 32.3258 14.97 32.3309 15.099C32.2279 15.132 32.2254 15.054 32.2228 14.922C32.161 14.841 32.1404 14.73 32.094 14.622C32.0683 14.52 32.0065 14.442 31.9653 14.322C31.9035 14.211 31.8494 14.178 31.7953 14.049C31.7722 13.989 31.7773 13.911 31.731 13.875C31.6614 13.77 31.6151 13.755 31.4941 13.749C31.4014 13.773 31.3653 13.821 31.2803 13.848C31.2134 13.875 31.0846 13.866 31.0022 13.899C30.9816 13.938 31.0434 13.959 31.0666 14.049C31.01 14.103 30.9894 14.196 30.9585 14.274C30.907 14.349 30.8735 14.385 30.8503 14.499C30.8864 14.568 30.8555 14.661 30.8091 14.724C30.7937 14.838 30.7447 14.901 30.7216 14.997C30.6546 15.054 30.6289 15.105 30.5722 15.198C30.5233 15.279 30.4795 15.273 30.3585 15.273C30.2632 15.243 30.2503 15.183 30.1654 15.147C30.1576 15.117 30.1499 15.108 30.1216 15.099" stroke="#782600" stroke-width="0.086161"/>
        <path fill-rule="evenodd" clip-rule="evenodd" d="M30.275 14.925C30.275 14.925 30.2375 15.3875 29.9375 15.7C29.6375 16.0125 29.0125 16.375 29.0125 16.375C29.0125 16.375 29.85 15.9875 29.9375 16.0625C30.025 16.15 29.4 16.85 29.4 16.85C29.4 16.85 30.2125 16.1125 30.325 16.1125C30.4375 16.1125 30.6625 16.825 30.75 16.8125C30.8375 16.8 30.5625 15.9125 30.6 15.775C30.6375 15.6375 30.6 14.9 30.6 14.9L30.275 14.925ZM32.2125 14.8625C32.2125 14.8625 32.1749 15.3625 31.8624 15.6875C31.5499 16.0125 30.9375 16.4125 30.9375 16.4125C30.9375 16.4125 31.7874 15.9875 31.8624 16.0875C31.9499 16.175 31.325 16.9125 31.325 16.9125C31.325 16.9125 32.15 16.1375 32.25 16.1375C32.35 16.1375 32.6 16.8875 32.6875 16.8875C32.775 16.8625 32.4874 15.9125 32.5374 15.7625C32.5749 15.625 32.5374 14.825 32.5374 14.825L32.2125 14.8625ZM29.5 10.325C29.5 10.425 29.4124 10.5 29.2999 10.5C29.1874 10.5 29.1 10.425 29.1 10.325C29.1 10.225 29.1874 10.1625 29.2999 10.1625C29.4124 10.1625 29.5 10.2375 29.5 10.325Z" fill="#812E00"/>
    </g>
    <defs>
        <clipPath id="clip0_201_1237">
            <rect width="64" height="64" rx="30" fill="white"/>
        </clipPath>
    </defs>
</svg>
