<svg width="64" height="64" viewBox="0 0 64 64" fill="none" xmlns="http://www.w3.org/2000/svg">
    <g clip-path="url(#clip0_201_1084)">
        <path d="M0 42.625H64V64H0V42.625Z" fill="#0038A8"/>
        <path d="M0 21.3375H64V42.6625H0V21.3375Z" fill="white"/>
        <path d="M0 0H64V21.3375H0V0Z" fill="#D52B1E"/>
        <path d="M32.0571 40.1844C36.5771 40.1844 40.2413 36.5202 40.2413 32.0001C40.2413 27.4801 36.5771 23.8159 32.0571 23.8159C27.537 23.8159 23.8728 27.4801 23.8728 32.0001C23.8728 36.5202 27.537 40.1844 32.0571 40.1844Z" stroke="black" stroke-width="0.213334"/>
        <path d="M32.0571 38.7298C35.7738 38.7298 38.7868 35.7168 38.7868 32.0001C38.7868 28.2834 35.7738 25.2704 32.0571 25.2704C28.3404 25.2704 25.3274 28.2834 25.3274 32.0001C25.3274 35.7168 28.3404 38.7298 32.0571 38.7298Z" stroke="black" stroke-width="0.09697"/>
        <path d="M32.057 37.1589C34.9061 37.1589 37.2158 34.8492 37.2158 32.0001C37.2158 29.151 34.9061 26.8413 32.057 26.8413C29.2079 26.8413 26.8982 29.151 26.8982 32.0001C26.8982 34.8492 29.2079 37.1589 32.057 37.1589Z" stroke="black" stroke-width="0.077576"/>
        <path d="M27.6999 35.1625L26.7499 35.725L26.4624 35.225C26.4191 35.1593 26.3854 35.0877 26.3624 35.0125C26.3522 34.957 26.361 34.8998 26.3874 34.85C26.4124 34.7875 26.4499 34.75 26.5124 34.7125C26.5569 34.6842 26.6081 34.6682 26.6607 34.666C26.7134 34.6638 26.7657 34.6755 26.8124 34.7L26.9124 34.775C26.9086 34.7459 26.9086 34.7165 26.9124 34.6875L26.9249 34.6125L26.9624 34.525L27.1499 34.225L27.3499 34.55L27.1499 34.8875C27.1303 34.9177 27.1176 34.9518 27.1124 34.9875C27.1094 35.0132 27.1138 35.0391 27.1249 35.0625L27.1499 35.0875L27.5249 34.8625L27.6999 35.1625ZM26.9624 35.2L26.8874 35.075C26.8726 35.0488 26.8559 35.0237 26.8374 35C26.8292 34.9919 26.8194 34.9855 26.8087 34.9812C26.7979 34.9769 26.7865 34.9748 26.7749 34.975C26.7533 34.9722 26.7313 34.9766 26.7124 34.9875C26.6749 35.0125 26.6624 35.025 26.6499 35.0625L26.6999 35.1875L26.7749 35.3125L26.9624 35.2ZM26.0749 34.4625L25.7874 33.5875L26.0124 33.525L26.1874 34.0625L26.3499 34.0125L26.1874 33.5125L26.3999 33.4375L26.5624 33.9375L26.7749 33.875L26.5874 33.3125L26.8374 33.2375L27.1249 34.1125L26.0749 34.4625ZM25.6999 33.175L25.6249 32.6125C25.6249 32.4875 25.6249 32.3875 25.6874 32.325C25.7374 32.2625 25.8124 32.2125 25.9249 32.2C26.0374 32.2 26.1249 32.2125 26.1999 32.275C26.2624 32.3375 26.3124 32.4375 26.3249 32.575L26.3499 32.75L26.7499 32.7125L26.7874 33.05L25.6999 33.175ZM26.1249 32.7875L26.1124 32.7C26.1124 32.6375 26.0874 32.5875 26.0624 32.575C26.0514 32.5627 26.0379 32.553 26.0228 32.5465C26.0077 32.54 25.9913 32.5369 25.9749 32.5375C25.9419 32.5379 25.9105 32.5514 25.8874 32.575C25.8624 32.6 25.8624 32.65 25.8624 32.7125L25.8749 32.8125L26.1249 32.7875ZM25.6624 31.1L25.6999 30.7625L26.3499 30.8375C26.4124 30.8375 26.4749 30.8625 26.5249 30.8875C26.5874 30.9125 26.6374 30.95 26.6749 31L26.7499 31.15C26.769 31.228 26.769 31.3095 26.7499 31.3875C26.7499 31.4375 26.7499 31.5 26.7249 31.5625C26.7249 31.625 26.6999 31.675 26.6624 31.7125L26.5624 31.8125C26.5217 31.8431 26.4747 31.8644 26.4249 31.875C26.3499 31.8875 26.2999 31.9 26.2374 31.8875L25.5874 31.8125L25.6249 31.475L26.2874 31.55C26.3499 31.55 26.3999 31.55 26.4374 31.5125C26.4749 31.4875 26.4874 31.4375 26.4999 31.3875C26.5047 31.3612 26.5038 31.3343 26.4973 31.3084C26.4909 31.2826 26.479 31.2584 26.4624 31.2375C26.4374 31.2 26.3874 31.1875 26.3374 31.175L25.6624 31.1ZM25.7999 30.3L26.0124 29.6875C26.0499 29.5875 26.0999 29.525 26.1749 29.4875C26.2072 29.4699 26.243 29.4596 26.2798 29.4575C26.3165 29.4553 26.3532 29.4613 26.3874 29.475C26.4377 29.4937 26.4807 29.5281 26.51 29.5731C26.5393 29.6181 26.5533 29.6714 26.5499 29.725C26.5999 29.65 26.6499 29.6 26.6999 29.6C26.76 29.5757 26.8273 29.5757 26.8874 29.6C26.9376 29.6165 26.9825 29.6461 27.0177 29.6856C27.0528 29.7251 27.0768 29.7732 27.0874 29.825V29.95L27.0374 30.1L26.8499 30.6625L25.7999 30.3ZM26.3249 30.1125L26.3749 29.975C26.3999 29.925 26.3999 29.8875 26.3874 29.85C26.3874 29.8375 26.3624 29.8125 26.3249 29.8C26.3113 29.7933 26.2963 29.7899 26.2812 29.7899C26.266 29.7899 26.251 29.7933 26.2374 29.8L26.1749 29.9L26.1249 30.05L26.3249 30.1125ZM26.7374 30.2625L26.7999 30.0875V29.9625C26.795 29.948 26.7868 29.9348 26.7759 29.9239C26.7651 29.9131 26.7519 29.9049 26.7374 29.9C26.7238 29.8933 26.7088 29.8899 26.6937 29.8899C26.6785 29.8899 26.6635 29.8933 26.6499 29.9C26.6249 29.925 26.5999 29.9625 26.5874 30.025L26.5249 30.1875L26.7374 30.2625ZM26.3249 28.975L26.4999 28.675L27.2124 29.1L27.4874 28.65L27.7249 28.7875L27.2749 29.5375L26.3249 28.975ZM26.9999 27.9625L27.2124 27.7L28.0624 28.4L27.8374 28.6625L26.9999 27.9625ZM28.4749 27.3875L28.7624 27.2625C28.7999 27.3375 28.8249 27.4125 28.8249 27.4875C28.8293 27.5562 28.8164 27.625 28.7874 27.6875C28.75 27.7591 28.6991 27.8228 28.6374 27.875C28.5653 27.9417 28.4802 27.9927 28.3874 28.025C28.2999 28.05 28.2124 28.05 28.1124 28.025C27.9979 27.9836 27.898 27.9098 27.8249 27.8125C27.6999 27.6875 27.6499 27.5375 27.6624 27.4C27.6624 27.2625 27.7374 27.1375 27.8749 27.025C27.9573 26.9456 28.062 26.8933 28.1749 26.875C28.2845 26.8649 28.3943 26.8913 28.4874 26.95L28.2999 27.2C28.2772 27.1833 28.2518 27.1707 28.2249 27.1625C28.1961 27.156 28.1662 27.156 28.1374 27.1625C28.1044 27.1714 28.0743 27.1886 28.0499 27.2125C27.9874 27.2625 27.9624 27.325 27.9749 27.4C27.9749 27.45 28.0124 27.525 28.0874 27.5875C28.1624 27.6875 28.2374 27.7375 28.2874 27.75C28.3499 27.75 28.3999 27.75 28.4499 27.7C28.4999 27.65 28.5249 27.6125 28.5249 27.5625C28.5249 27.5125 28.5124 27.45 28.4749 27.3875ZM29.6499 26.9625L29.3124 27.15L29.3499 27.3375L29.0374 27.5L28.8874 26.325L29.2124 26.15L30.0999 26.9375L29.7874 27.1L29.6499 26.9625ZM29.4749 26.7875L29.1874 26.5L29.2624 26.9L29.4749 26.7875ZM30.5249 25.6625L31.0249 25.575C31.1073 25.5574 31.1925 25.5574 31.2749 25.575C31.3374 25.5875 31.3874 25.6125 31.4374 25.6625C31.4874 25.7 31.5249 25.75 31.5624 25.8125L31.6124 26.025C31.6374 26.15 31.6374 26.2375 31.6124 26.3C31.6019 26.3673 31.5763 26.4315 31.5374 26.4875C31.5051 26.5343 31.4623 26.5728 31.4124 26.6L31.2124 26.6625L30.7124 26.75L30.5249 25.6625ZM30.8999 25.85L30.9999 26.4375H31.0874C31.1499 26.4125 31.2124 26.4 31.2249 26.375C31.2624 26.3625 31.2749 26.325 31.2874 26.2875V26.0875C31.2624 25.975 31.2249 25.9 31.1874 25.8625C31.1374 25.825 31.0624 25.8125 30.9874 25.8375L30.8999 25.85ZM31.9374 25.475L32.8499 25.5V25.75L32.2749 25.725L32.2624 25.9L32.7874 25.9125V26.1375L32.2499 26.125V26.3375L32.8374 26.3625L32.8249 26.6125L31.8874 26.575L31.9374 25.475ZM33.2624 25.575L33.5999 25.65L33.3999 26.4625L33.9124 26.5875L33.8499 26.85L32.9999 26.65L33.2624 25.575ZM35.0374 26.1625L35.5249 26.45C35.6374 26.5125 35.6999 26.575 35.7249 26.6625C35.7374 26.75 35.7249 26.8375 35.6749 26.925C35.6524 26.9688 35.6207 27.0072 35.5818 27.0374C35.5429 27.0676 35.4979 27.089 35.4499 27.1C35.3624 27.125 35.2624 27.1 35.1374 27.025L34.9749 26.9375L34.7749 27.2875L34.4749 27.1125L35.0374 26.1625ZM35.0999 26.7375L35.1624 26.7875L35.2999 26.825C35.3152 26.8223 35.3297 26.8164 35.3426 26.8078C35.3555 26.7992 35.3665 26.788 35.3749 26.775C35.3859 26.761 35.3939 26.7449 35.3982 26.7277C35.4025 26.7104 35.4031 26.6925 35.3999 26.675C35.3874 26.6375 35.3624 26.6125 35.2999 26.575L35.2249 26.525L35.0999 26.7375ZM36.0499 28.025L35.7624 27.7625L35.5999 27.8625L35.3499 27.6125L36.3999 27.1L36.6749 27.35L36.2249 28.4375L35.9749 28.1875L36.0499 28.025ZM36.1624 27.8L36.3374 27.425L35.9874 27.6375L36.1624 27.8ZM36.2874 28.5375L37.1999 27.9125L37.5249 28.375L37.6499 28.6L37.6374 28.7625C37.6124 28.8125 37.5749 28.8625 37.5124 28.9C37.4708 28.9369 37.418 28.9589 37.3624 28.9625C37.3111 28.9666 37.2596 28.958 37.2124 28.9375C37.1755 28.9177 37.1417 28.8924 37.1124 28.8625V29.0375L37.0749 29.1125L36.8999 29.425L36.6874 29.1125L36.8624 28.775L36.8999 28.675C36.8999 28.65 36.8999 28.6125 36.8749 28.5875L36.8499 28.5625L36.4749 28.8125L36.2874 28.5375ZM37.0374 28.45L37.1124 28.575L37.1749 28.625C37.182 28.6354 37.1913 28.6441 37.2021 28.6505C37.2128 28.657 37.2249 28.6611 37.2374 28.6625C37.2499 28.6625 37.2749 28.6625 37.2999 28.6375C37.3135 28.6298 37.3251 28.619 37.3338 28.6059C37.3425 28.5929 37.348 28.578 37.3499 28.5625L37.2999 28.4375L37.2124 28.3125L37.0374 28.45ZM37.3749 30.1L37.2249 29.7375L37.0374 29.75L36.9124 29.4375L38.0874 29.4125L38.2124 29.75L37.3499 30.55L37.2249 30.2125L37.3749 30.1ZM37.5624 29.95L37.8874 29.6875L37.4749 29.7125L37.5624 29.95ZM37.8499 31.15L38.0749 31.1125L38.1624 31.6375L37.6874 31.7125C37.6175 31.6379 37.5586 31.5537 37.5124 31.4625C37.4251 31.2751 37.4031 31.0638 37.4499 30.8625C37.4874 30.775 37.5374 30.7125 37.6249 30.65C37.7105 30.5904 37.809 30.5518 37.9124 30.5375C38.021 30.5169 38.1332 30.5255 38.2374 30.5625C38.3345 30.5982 38.4176 30.6639 38.4749 30.75C38.5124 30.825 38.5499 30.9125 38.5624 31.0375C38.5769 31.1286 38.5769 31.2214 38.5624 31.3125C38.5556 31.371 38.5341 31.4269 38.4999 31.475L38.3374 31.6L38.2249 31.275C38.2624 31.2625 38.2874 31.2375 38.3124 31.2C38.3249 31.1625 38.3374 31.1125 38.3249 31.075C38.323 31.04 38.313 31.006 38.2956 30.9757C38.2782 30.9453 38.254 30.9194 38.2249 30.9C38.1624 30.8625 38.0749 30.8625 37.9749 30.875C37.8499 30.8875 37.7624 30.925 37.7249 30.975C37.7021 31.0024 37.6857 31.0346 37.6771 31.0693C37.6684 31.1039 37.6677 31.14 37.6749 31.175L37.7124 31.2875L37.7874 31.3875H37.8874L37.8499 31.15ZM38.5749 32.75L38.5374 33.0875L37.8874 33.0375C37.8267 33.0306 37.7676 33.0137 37.7124 32.9875C37.6542 32.9624 37.6028 32.9238 37.5624 32.875C37.528 32.8349 37.5024 32.7881 37.4874 32.7375C37.468 32.6556 37.4637 32.5709 37.4749 32.4875C37.4749 32.4375 37.4749 32.375 37.4999 32.3125L37.5499 32.1625C37.5795 32.1178 37.6177 32.0796 37.6624 32.05C37.6994 32.0209 37.742 31.9997 37.7874 31.9875C37.8537 31.9774 37.9211 31.9774 37.9874 31.9875L38.6374 32.0375L38.6124 32.375L37.9374 32.3125C37.8749 32.3125 37.8249 32.3125 37.7874 32.35C37.7499 32.3875 37.7374 32.425 37.7249 32.4875C37.7249 32.55 37.7249 32.5875 37.7624 32.625C37.7999 32.6625 37.8374 32.6875 37.8999 32.6875L38.5749 32.75ZM37.3499 33.925L37.4749 33.55L37.3249 33.4375L37.4249 33.1125L38.3499 33.85L38.2249 34.2L37.0499 34.25L37.1749 33.9125L37.3499 33.925ZM37.5999 33.925H38.0124L37.6749 33.7L37.5999 33.925ZM37.9999 34.825L37.7999 35.15H37.3749L37.5749 35.525L37.3749 35.85L37.0499 35.15L36.6499 34.925L36.8249 34.625L37.2249 34.8625L37.9999 34.825Z" fill="black"/>
        <path d="M33.1501 28.175C33.1501 28.175 36.2626 29.525 35.7126 32.3C35.1751 35.0625 33.4376 35.05 32.7626 35.35C32.0751 35.6625 31.6126 36.1 31.3376 36.0375C31.0751 35.975 30.7126 35.7625 30.7126 35.7625C30.7126 35.7625 30.6876 36.225 31.2376 36.3C31.7876 36.3875 32.4876 35.5875 32.8501 35.5C33.2126 35.4125 35.3001 35.175 35.8251 32.3625C36.4251 29.35 33.1626 28.2625 33.1501 28.175Z" fill="#009B3A" stroke="black" stroke-width="0.0125"/>
        <path d="M34.7124 28.775C34.7288 28.8633 34.7354 28.9416 34.7313 28.9975C34.7272 29.0533 34.7126 29.0836 34.6897 29.0836C34.6668 29.0836 34.6369 29.0533 34.6048 28.9975C34.5727 28.9416 34.5402 28.8633 34.5124 28.775C34.4932 28.7142 34.4769 28.6506 34.4647 28.5891C34.4525 28.5276 34.4447 28.4698 34.4419 28.4201C34.4391 28.3705 34.4414 28.3303 34.4487 28.3026C34.4559 28.275 34.4678 28.2606 34.4836 28.2606C34.4994 28.2606 34.5185 28.275 34.5396 28.3026C34.5607 28.3303 34.5831 28.3705 34.6052 28.4201C34.6273 28.4698 34.6484 28.5276 34.667 28.5891C34.6856 28.6506 34.7011 28.7142 34.7124 28.775ZM34.6124 28.8C34.6435 28.8561 34.6724 28.9152 34.6971 28.9731C34.7217 29.0309 34.7415 29.086 34.7549 29.1343C34.7682 29.1827 34.7749 29.223 34.7745 29.2524C34.774 29.2818 34.7663 29.2995 34.7521 29.3043C34.7378 29.309 34.7173 29.3007 34.692 29.2799C34.6668 29.259 34.6374 29.2263 34.606 29.184C34.5747 29.1416 34.5422 29.0908 34.5108 29.0352C34.4795 28.9796 34.4501 28.9206 34.4249 28.8625C34.386 28.773 34.3588 28.6901 34.3479 28.6277C34.337 28.5654 34.3431 28.5273 34.365 28.52C34.387 28.5127 34.4236 28.5365 34.4686 28.5875C34.5137 28.6384 34.5644 28.7135 34.6124 28.8ZM34.2999 29C34.3546 29.0161 34.4084 29.0347 34.4584 29.055C34.5083 29.0752 34.5533 29.0965 34.5908 29.1177C34.6283 29.139 34.6576 29.1597 34.677 29.1788C34.6965 29.1978 34.7056 29.2148 34.704 29.2287C34.7023 29.2427 34.6899 29.2533 34.6675 29.2601C34.645 29.2668 34.613 29.2695 34.5731 29.268C34.5333 29.2665 34.4864 29.2608 34.4353 29.2513C34.3841 29.2418 34.3296 29.2286 34.2749 29.2125C34.1644 29.18 34.0598 29.1376 33.984 29.0947C33.9082 29.0518 33.8675 29.0119 33.8708 28.9837C33.8741 28.9555 33.9212 28.9414 34.0016 28.9445C34.0821 28.9475 34.1894 28.9675 34.2999 29Z" fill="#009B3A" stroke="black" stroke-width="0.0125"/>
        <path d="M34.35 28.8875C34.3979 28.9198 34.444 28.954 34.4858 28.9882C34.5275 29.0224 34.564 29.0559 34.5932 29.0868C34.6224 29.1177 34.6437 29.1455 34.656 29.1684C34.6683 29.1914 34.6712 29.2091 34.6646 29.2206C34.658 29.2321 34.6421 29.2371 34.6177 29.2354C34.5933 29.2337 34.561 29.2252 34.5225 29.2106C34.484 29.1959 34.4401 29.1752 34.3934 29.1498C34.3466 29.1244 34.2979 29.0948 34.25 29.0625C34.1948 29.03 34.1387 28.9928 34.0861 28.9538C34.0335 28.9148 33.9857 28.875 33.9464 28.8374C33.9071 28.7998 33.8772 28.7654 33.8592 28.7369C33.8411 28.7083 33.8353 28.6864 33.8421 28.6727C33.849 28.659 33.8684 28.6539 33.8987 28.6578C33.9291 28.6617 33.9697 28.6744 34.0175 28.6952C34.0653 28.7159 34.1189 28.744 34.1744 28.7773C34.2298 28.8106 34.2856 28.8483 34.3375 28.8875H34.35Z" fill="#009B3A" stroke="black" stroke-width="0.0125"/>
        <path d="M34.475 28.8375C34.5283 28.8812 34.5843 28.9338 34.6377 28.9901C34.6911 29.0463 34.7401 29.1044 34.7799 29.1586C34.8197 29.2128 34.8489 29.2614 34.8647 29.2995C34.8806 29.3377 34.8825 29.3641 34.8703 29.3763C34.8581 29.3885 34.8322 29.3861 34.7951 29.3691C34.758 29.3522 34.711 29.3215 34.6587 29.2798C34.6063 29.2382 34.5504 29.1871 34.4963 29.1315C34.4422 29.0759 34.3919 29.0177 34.35 28.9625C34.306 28.9044 34.2731 28.8518 34.2549 28.8104C34.2367 28.7689 34.2338 28.7403 34.2467 28.7274C34.2595 28.7146 34.2876 28.718 34.3278 28.7374C34.3681 28.7568 34.419 28.7914 34.475 28.8375Z" fill="#009B3A" stroke="black" stroke-width="0.0125"/>
        <path d="M34.6874 29.225L34.5499 29.3C34.5124 29.3125 34.4749 29.2625 34.3999 29.3C34.3249 29.35 34.2749 29.425 34.2499 29.4625C34.2374 29.5125 34.2749 29.525 34.3749 29.4875C34.4624 29.4375 34.4999 29.3625 34.5374 29.3375C34.5749 29.3 34.6624 29.2625 34.6999 29.25L34.8249 29.0625C34.8499 29.0125 34.9749 28.9375 35.0249 28.825C35.0624 28.75 35.0499 28.675 34.9874 28.7C34.9244 28.7458 34.8731 28.8058 34.8374 28.875C34.7999 28.9375 34.8374 29 34.7999 29.0625L34.6874 29.225ZM35.6624 29.55C35.6651 29.7331 35.6519 29.9047 35.6257 30.0271C35.5995 30.1495 35.5624 30.2127 35.5227 30.2028C35.4829 30.1928 35.4437 30.1106 35.4136 29.9741C35.3835 29.8376 35.3651 29.6581 35.3624 29.475C35.361 29.3843 35.3636 29.2955 35.3699 29.2137C35.3761 29.1318 35.3861 29.0585 35.399 28.9978C35.412 28.9372 35.4278 28.8905 35.4455 28.8604C35.4632 28.8302 35.4824 28.8172 35.5021 28.8222C35.5218 28.8271 35.5416 28.8498 35.5603 28.8891C35.579 28.9283 35.5963 28.9833 35.6112 29.0509C35.6261 29.1184 35.6382 29.1973 35.647 29.2829C35.6558 29.3686 35.661 29.4593 35.6624 29.55Z" fill="#009B3A" stroke="black" stroke-width="0.0125"/>
        <path d="M35.5 29.5375C35.5378 29.7146 35.559 29.885 35.5588 30.0114C35.5586 30.1378 35.537 30.2097 35.4989 30.2114C35.4608 30.2131 35.4092 30.1443 35.3555 30.0203C35.3018 29.8962 35.2503 29.7271 35.2125 29.55C35.1941 29.4631 35.1796 29.3771 35.1698 29.2968C35.16 29.2166 35.1552 29.1436 35.1555 29.0822C35.1559 29.0208 35.1614 28.972 35.1718 28.9388C35.1822 28.9055 35.1973 28.8884 35.2162 28.8884C35.235 28.8884 35.2574 28.9055 35.2818 28.9388C35.3063 28.972 35.3325 29.0208 35.3588 29.0822C35.3852 29.1436 35.4112 29.2166 35.4354 29.2968C35.4596 29.3771 35.4816 29.4631 35.5 29.55V29.5375Z" fill="#009B3A" stroke="black" stroke-width="0.0125"/>
        <path d="M34.9999 29.7C35.0767 29.7463 35.1545 29.7993 35.2274 29.8549C35.3004 29.9106 35.3667 29.9676 35.4217 30.0218C35.4766 30.0759 35.5187 30.1259 35.5449 30.168C35.5711 30.2101 35.5808 30.2433 35.5732 30.2651C35.5656 30.287 35.5409 30.297 35.501 30.2944C35.461 30.2917 35.4068 30.2766 35.3423 30.25C35.2778 30.2234 35.2046 30.186 35.1281 30.1406C35.0515 30.0952 34.9736 30.0429 34.8999 29.9875C34.8312 29.9411 34.7644 29.8912 34.7034 29.8408C34.6424 29.7904 34.5884 29.7404 34.5444 29.6937C34.5005 29.647 34.4674 29.6044 34.4472 29.5684C34.4269 29.5325 34.4199 29.5038 34.4265 29.4841C34.433 29.4644 34.4531 29.4541 34.4854 29.4536C34.5178 29.4532 34.5619 29.4627 34.6151 29.4816C34.6684 29.5004 34.7298 29.5283 34.7958 29.5637C34.8618 29.599 34.9312 29.6411 34.9999 29.6875V29.7Z" fill="#009B3A" stroke="black" stroke-width="0.0125"/>
        <path d="M35.1 29.55C35.2136 29.6877 35.3127 29.8311 35.3755 29.9484C35.4383 30.0658 35.4595 30.1476 35.4347 30.1758C35.4098 30.2039 35.3408 30.1762 35.2429 30.0987C35.145 30.0212 35.0261 29.9003 34.9125 29.7625C34.8562 29.6942 34.8029 29.6239 34.7556 29.5556C34.7084 29.4872 34.668 29.4221 34.637 29.364C34.6059 29.3059 34.5847 29.2559 34.5745 29.2169C34.5643 29.1779 34.5655 29.1506 34.5778 29.1367C34.5901 29.1227 34.6133 29.1223 34.6463 29.1356C34.6792 29.1488 34.7211 29.1753 34.7695 29.2137C34.818 29.2521 34.8722 29.3015 34.9289 29.3592C34.9856 29.4169 35.0437 29.4817 35.1 29.55Z" fill="#009B3A" stroke="black" stroke-width="0.0125"/>
        <path d="M35.3001 29.5375C35.3451 29.6214 35.3865 29.7061 35.422 29.7867C35.4576 29.8673 35.4866 29.9423 35.5073 30.0074C35.5281 30.0726 35.5402 30.1265 35.543 30.1662C35.5458 30.2059 35.5392 30.2305 35.5236 30.2387C35.508 30.2469 35.4837 30.2385 35.4521 30.214C35.4205 30.1895 35.3822 30.1493 35.3394 30.0958C35.2966 30.0423 35.2501 29.9765 35.2026 29.9022C35.1551 29.8278 35.1076 29.7464 35.0626 29.6625C35.0177 29.5786 34.9762 29.494 34.9407 29.4133C34.9051 29.3327 34.8761 29.2577 34.8554 29.1926C34.8346 29.1275 34.8225 29.0735 34.8197 29.0338C34.8169 28.9942 34.8235 28.9695 34.8391 28.9613C34.8547 28.9531 34.879 28.9615 34.9106 28.986C34.9422 29.0105 34.9805 29.0507 35.0233 29.1042C35.0661 29.1577 35.1126 29.2235 35.1601 29.2978C35.2076 29.3722 35.2552 29.4536 35.3001 29.5375Z" fill="#009B3A" stroke="black" stroke-width="0.0125"/>
        <path d="M35.475 30.1875L35.2375 30.2375C35.2 30.2375 35.1625 30.15 35.0375 30.175C34.9125 30.2 34.8125 30.2875 34.7875 30.3375C34.7375 30.3875 34.7876 30.4375 34.9376 30.4125C35.0876 30.3875 35.1376 30.2875 35.2126 30.275L35.475 30.225L35.7001 30.0125C35.7626 29.95 35.95 29.8875 36.05 29.7625C36.1375 29.6625 36.1375 29.5625 36.05 29.575C35.949 29.6099 35.8586 29.6702 35.7875 29.75C35.725 29.825 35.7375 29.9375 35.6625 30L35.475 30.1875ZM36.1625 30.8375C36.1478 30.9265 36.1296 31.0131 36.109 31.0922C36.0885 31.1713 36.0659 31.2414 36.0427 31.2986C36.0195 31.3557 35.9961 31.3988 35.9737 31.4253C35.9514 31.4518 35.9306 31.4612 35.9125 31.453C35.8945 31.4448 35.8795 31.4191 35.8685 31.3774C35.8574 31.3358 35.8506 31.279 35.8483 31.2102C35.8459 31.1414 35.8482 31.0621 35.855 30.9767C35.8617 30.8913 35.8728 30.8015 35.8876 30.7125C35.9023 30.6234 35.9205 30.5369 35.9411 30.4578C35.9616 30.3787 35.9842 30.3085 36.0074 30.2514C36.0306 30.1942 36.054 30.1512 36.0764 30.1247C36.0987 30.0982 36.1195 30.0888 36.1376 30.097C36.1556 30.1052 36.1706 30.1309 36.1816 30.1725C36.1926 30.2142 36.1995 30.271 36.2018 30.3398C36.2042 30.4085 36.2019 30.4879 36.1951 30.5733C36.1884 30.6587 36.1773 30.7484 36.1625 30.8375Z" fill="#009B3A" stroke="black" stroke-width="0.0125"/>
        <path d="M35.9999 30.8C36.0095 30.9023 36.0143 31.0103 36.0138 31.1152C36.0134 31.2201 36.0077 31.3189 35.9973 31.4034C35.9868 31.488 35.9719 31.5559 35.9538 31.6017C35.9357 31.6474 35.9148 31.6696 35.893 31.6665C35.8711 31.6633 35.8489 31.635 35.8281 31.5837C35.8073 31.5324 35.7885 31.4597 35.7734 31.3714C35.7582 31.2832 35.747 31.182 35.7407 31.0762C35.7345 30.9703 35.7333 30.8628 35.7374 30.7625C35.7329 30.6686 35.7324 30.5744 35.736 30.4859C35.7396 30.3974 35.7471 30.3165 35.7581 30.2486C35.7692 30.1807 35.7834 30.1271 35.8 30.0914C35.8165 30.0557 35.8351 30.0386 35.8543 30.0412C35.8736 30.0438 35.8932 30.0661 35.9119 30.1067C35.9306 30.1472 35.9479 30.205 35.9628 30.2765C35.9777 30.348 35.9898 30.4315 35.9983 30.5216C36.0069 30.6118 36.0117 30.7066 36.0124 30.8H35.9999Z" fill="#009B3A" stroke="black" stroke-width="0.0125"/>
        <path d="M35.4999 30.85C35.5596 30.9085 35.6171 30.9706 35.669 31.0326C35.7209 31.0946 35.766 31.1552 35.8018 31.2108C35.8376 31.2663 35.8632 31.3157 35.8772 31.356C35.8911 31.3962 35.8931 31.4265 35.883 31.445C35.8729 31.4635 35.8509 31.4699 35.8184 31.4637C35.7858 31.4576 35.7434 31.439 35.6936 31.4091C35.6439 31.3792 35.5878 31.3386 35.5287 31.2898C35.4696 31.241 35.4088 31.1849 35.3499 31.125C35.2821 31.0654 35.2139 30.9982 35.1504 30.9284C35.087 30.8587 35.0299 30.7881 34.9836 30.7222C34.9372 30.6563 34.9029 30.5968 34.8831 30.5481C34.8633 30.4994 34.8586 30.4629 34.8694 30.4414C34.8802 30.4198 34.9061 30.4138 34.9453 30.4237C34.9844 30.4336 35.0358 30.4593 35.0953 30.4987C35.1549 30.5381 35.2212 30.5902 35.2891 30.651C35.3571 30.7119 35.4249 30.78 35.4874 30.85H35.4999Z" fill="#009B3A" stroke="black" stroke-width="0.0125"/>
        <path d="M35.6249 30.7375C35.6683 30.817 35.7083 30.898 35.7427 30.9759C35.7771 31.0538 35.8053 31.1269 35.8255 31.1913C35.8457 31.2557 35.8576 31.3099 35.8606 31.351C35.8635 31.392 35.8574 31.419 35.8426 31.4305C35.8279 31.442 35.8047 31.4377 35.7745 31.4179C35.7442 31.3981 35.7075 31.3631 35.6664 31.315C35.6253 31.2669 35.5806 31.2066 35.5349 31.1376C35.4891 31.0685 35.4433 30.992 35.3999 30.9125C35.3502 30.8294 35.3026 30.7409 35.2604 30.6534C35.2183 30.5658 35.1827 30.4813 35.1562 30.406C35.1297 30.3306 35.1129 30.2661 35.1071 30.2172C35.1012 30.1684 35.1064 30.1362 35.1223 30.1231C35.1382 30.11 35.1644 30.1163 35.1991 30.1415C35.2337 30.1666 35.276 30.2101 35.3228 30.2688C35.3696 30.3275 35.4198 30.3999 35.4699 30.4809C35.5199 30.5619 35.5686 30.6495 35.6124 30.7375H35.6249Z" fill="#009B3A" stroke="black" stroke-width="0.0125"/>
        <path d="M35.8125 30.75C35.8419 30.8424 35.8677 30.9352 35.8886 31.023C35.9095 31.1109 35.9249 31.1922 35.9341 31.2622C35.9433 31.3321 35.946 31.3895 35.9421 31.4309C35.9381 31.4723 35.9277 31.497 35.9113 31.5036C35.8949 31.5102 35.8728 31.4985 35.8464 31.4692C35.82 31.4399 35.7897 31.3936 35.7573 31.3329C35.7249 31.2722 35.6911 31.1983 35.6576 31.1154C35.6242 31.0326 35.5919 30.9424 35.5625 30.85C35.5331 30.7576 35.5072 30.6648 35.4864 30.5769C35.4655 30.489 35.45 30.4077 35.4409 30.3378C35.4317 30.2678 35.429 30.2104 35.4329 30.169C35.4368 30.1276 35.4473 30.1029 35.4637 30.0963C35.4801 30.0898 35.5022 30.1015 35.5286 30.1307C35.555 30.16 35.5852 30.2064 35.6176 30.2671C35.65 30.3278 35.6839 30.4016 35.7173 30.4845C35.7508 30.5674 35.7831 30.6576 35.8125 30.75Z" fill="#009B3A" stroke="black" stroke-width="0.0125"/>
        <path d="M35.875 31.4375H35.625C35.5875 31.4375 35.575 31.3375 35.45 31.3375C35.325 31.3375 35.2 31.4 35.1625 31.45C35.1125 31.4875 35.1625 31.55 35.3 31.55C35.45 31.55 35.525 31.475 35.6 31.4625H35.8625L36.1125 31.3C36.1875 31.25 36.4 31.225 36.5125 31.125C36.6125 31.05 36.6375 30.9375 36.55 30.95C36.4407 30.9645 36.3372 31.0076 36.25 31.075C36.175 31.125 36.175 31.2375 36.0875 31.2875L35.8625 31.4375M36.2 32.275C36.1042 32.4279 36.0017 32.5626 35.9152 32.6496C35.8287 32.7366 35.7652 32.7687 35.7386 32.7389C35.7121 32.709 35.7248 32.6197 35.7738 32.4905C35.8228 32.3613 35.9042 32.2029 36 32.05C36.0958 31.8971 36.1983 31.7624 36.2848 31.6754C36.3713 31.5884 36.4349 31.5563 36.4614 31.5861C36.4879 31.616 36.4753 31.7053 36.4262 31.8345C36.3772 31.9637 36.2958 32.1221 36.2 32.275Z" fill="#009B3A"/>
        <path d="M35.875 31.4375H35.625C35.5875 31.4375 35.575 31.3375 35.45 31.3375C35.325 31.3375 35.2 31.4 35.1625 31.45C35.1125 31.4875 35.1625 31.55 35.3 31.55C35.45 31.55 35.525 31.475 35.6 31.4625H35.8625L36.1125 31.3C36.1875 31.25 36.4 31.225 36.5125 31.125C36.6125 31.05 36.6375 30.9375 36.55 30.95C36.4407 30.9645 36.3372 31.0076 36.25 31.075C36.175 31.125 36.175 31.2375 36.0875 31.2875L35.8625 31.4375M36.2 32.275C36.1042 32.4279 36.0017 32.5626 35.9152 32.6496C35.8287 32.7366 35.7652 32.7687 35.7386 32.7389C35.7121 32.709 35.7248 32.6197 35.7738 32.4905C35.8228 32.3613 35.9042 32.2029 36 32.05C36.0958 31.8971 36.1983 31.7624 36.2848 31.6754C36.3713 31.5884 36.4349 31.5563 36.4614 31.5861C36.4879 31.616 36.4753 31.7053 36.4262 31.8345C36.3772 31.9637 36.2958 32.1221 36.2 32.275Z" stroke="black" stroke-width="0.0125"/>
        <path d="M36.0749 32.175C36.0399 32.266 36.0022 32.3543 35.9639 32.4346C35.9257 32.515 35.8876 32.5859 35.8518 32.6433C35.8161 32.7007 35.7834 32.7435 35.7556 32.7693C35.7278 32.795 35.7055 32.8032 35.6899 32.7934C35.6743 32.7835 35.6657 32.7558 35.6647 32.7119C35.6637 32.6679 35.6702 32.6086 35.6839 32.5373C35.6976 32.4659 35.7182 32.3839 35.7445 32.296C35.7709 32.2081 35.8024 32.116 35.8374 32.025C35.908 31.8411 35.9882 31.6726 36.0604 31.5566C36.1326 31.4407 36.1909 31.3867 36.2224 31.4066C36.2539 31.4265 36.256 31.5186 36.2284 31.6627C36.2007 31.8068 36.1455 31.9911 36.0749 32.175ZM35.5874 32.0125C35.6478 32.1689 35.6925 32.3294 35.7118 32.4587C35.731 32.588 35.7232 32.6756 35.6901 32.7021C35.6569 32.7286 35.6011 32.6919 35.535 32.6001C35.4688 32.5083 35.3978 32.3689 35.3374 32.2125C35.277 32.0561 35.2322 31.8956 35.213 31.7663C35.1937 31.6369 35.2015 31.5494 35.2347 31.5229C35.2678 31.4963 35.3236 31.533 35.3898 31.6248C35.4559 31.7167 35.527 31.8561 35.5874 32.0125Z" fill="#009B3A" stroke="black" stroke-width="0.0125"/>
        <path d="M35.75 31.9625C35.7687 32.1662 35.7722 32.3654 35.7596 32.5165C35.7471 32.6675 35.7195 32.7579 35.683 32.7679C35.6466 32.7778 35.6042 32.7065 35.5652 32.5695C35.5262 32.4325 35.4937 32.2412 35.475 32.0375C35.4658 31.9367 35.4602 31.8358 35.4585 31.7408C35.4569 31.6457 35.4592 31.5583 35.4654 31.4835C35.4717 31.4088 35.4816 31.3481 35.4948 31.3049C35.5079 31.2618 35.524 31.237 35.542 31.2321C35.5601 31.2272 35.5798 31.2422 35.6 31.2762C35.6202 31.3103 35.6406 31.3627 35.6599 31.4305C35.6792 31.4983 35.6971 31.5802 35.7126 31.6715C35.728 31.7628 35.7408 31.8617 35.75 31.9625Z" fill="#009B3A" stroke="black" stroke-width="0.0125"/>
        <path d="M35.9251 32.0625C35.9156 32.1617 35.9026 32.2597 35.8868 32.3508C35.8711 32.4419 35.853 32.5243 35.8335 32.5933C35.8139 32.6623 35.7934 32.7166 35.7731 32.7531C35.7528 32.7896 35.733 32.8075 35.7149 32.8059C35.6969 32.8042 35.6809 32.783 35.6679 32.7435C35.6548 32.704 35.645 32.647 35.639 32.5756C35.633 32.5043 35.6309 32.42 35.6328 32.3277C35.6347 32.2354 35.6406 32.1367 35.6501 32.0375C35.6596 31.9382 35.6726 31.8403 35.6884 31.7492C35.7041 31.6581 35.7222 31.5757 35.7417 31.5067C35.7612 31.4376 35.7818 31.3833 35.8021 31.3469C35.8224 31.3104 35.8422 31.2925 35.8602 31.2941C35.8783 31.2958 35.8943 31.3169 35.9073 31.3564C35.9204 31.3959 35.9302 31.453 35.9362 31.5243C35.9422 31.5957 35.9443 31.6799 35.9424 31.7723C35.9405 31.8646 35.9346 31.9632 35.9251 32.0625Z" fill="#009B3A" stroke="black" stroke-width="0.0125"/>
        <path d="M35.6999 32.7125L35.4874 32.6125C35.4499 32.5875 35.4749 32.5 35.3624 32.45C35.2374 32.4 35.1124 32.4 35.0624 32.425C34.9999 32.45 35.0124 32.5125 35.1499 32.5875C35.2749 32.65 35.3749 32.6 35.4499 32.6375L35.6999 32.7375L35.9749 32.6875C36.0624 32.6875 36.2624 32.7375 36.3999 32.6875C36.5249 32.6625 36.5874 32.5625 36.5124 32.5375C36.4073 32.5035 36.2948 32.4992 36.1874 32.525C36.0999 32.55 36.0499 32.65 35.9624 32.675C35.8999 32.675 35.7124 32.725 35.6999 32.7125ZM35.8249 33.7375C35.7474 33.8041 35.6687 33.8658 35.5934 33.9191C35.518 33.9725 35.4474 34.0164 35.3857 34.0484C35.3239 34.0804 35.2722 34.0998 35.2334 34.1055C35.1946 34.1113 35.1696 34.1033 35.1598 34.0819C35.1499 34.0606 35.1554 34.0264 35.176 33.9812C35.1966 33.936 35.2318 33.8807 35.2796 33.8186C35.3274 33.7564 35.387 33.6885 35.4548 33.6189C35.5226 33.5492 35.5974 33.4791 35.6749 33.4125C35.7506 33.3477 35.8274 33.2877 35.9008 33.2359C35.9743 33.1842 36.0429 33.1417 36.1029 33.111C36.1628 33.0802 36.2129 33.0618 36.2502 33.0567C36.2875 33.0516 36.3114 33.0599 36.3204 33.0813C36.3294 33.1026 36.3234 33.1365 36.3028 33.181C36.2822 33.2256 36.2473 33.2798 36.2001 33.3408C36.1529 33.4017 36.0944 33.4681 36.0279 33.5362C35.9614 33.6042 35.8881 33.6727 35.8124 33.7375" fill="#009B3A"/>
        <path d="M35.8249 33.7375C35.7474 33.8041 35.6687 33.8658 35.5934 33.9191C35.518 33.9725 35.4474 34.0164 35.3857 34.0484C35.3239 34.0804 35.2722 34.0998 35.2334 34.1055C35.1946 34.1113 35.1696 34.1033 35.1598 34.0819C35.1499 34.0606 35.1554 34.0264 35.176 33.9812C35.1966 33.936 35.2318 33.8807 35.2796 33.8186C35.3274 33.7564 35.387 33.6885 35.4548 33.6189C35.5226 33.5492 35.5974 33.4791 35.6749 33.4125C35.7506 33.3477 35.8274 33.2877 35.9008 33.2359C35.9743 33.1842 36.0429 33.1417 36.1029 33.111C36.1628 33.0802 36.2129 33.0618 36.2502 33.0567C36.2875 33.0516 36.3114 33.0599 36.3204 33.0813C36.3294 33.1026 36.3234 33.1365 36.3028 33.181C36.2822 33.2256 36.2473 33.2798 36.2001 33.3408C36.1529 33.4017 36.0944 33.4681 36.0279 33.5362C35.9614 33.6042 35.8881 33.6727 35.8124 33.7375M35.6999 32.7125L35.4874 32.6125C35.4499 32.5875 35.4749 32.5 35.3624 32.45C35.2374 32.4 35.1124 32.4 35.0624 32.425C34.9999 32.45 35.0124 32.5125 35.1499 32.5875C35.2749 32.65 35.3749 32.6 35.4499 32.6375L35.6999 32.7375L35.9749 32.6875C36.0624 32.6875 36.2624 32.7375 36.3999 32.6875C36.5249 32.6625 36.5874 32.5625 36.5124 32.5375C36.4073 32.5035 36.2948 32.4992 36.1874 32.525C36.0999 32.55 36.0499 32.65 35.9624 32.675C35.8999 32.675 35.7124 32.725 35.6999 32.7125Z" stroke="black" stroke-width="0.0125"/>
        <path d="M35.7001 33.5875C35.6334 33.6843 35.559 33.7816 35.4828 33.8715C35.4067 33.9615 35.3308 34.0417 35.2613 34.1058C35.1918 34.1698 35.1306 34.2159 35.0826 34.2403C35.0347 34.2647 35.0012 34.2669 34.9849 34.2465C34.9686 34.2262 34.97 34.1839 34.9889 34.1231C35.0078 34.0623 35.0437 33.9846 35.0938 33.8963C35.1438 33.808 35.2066 33.7115 35.2772 33.6145C35.3477 33.5174 35.4241 33.4226 35.5001 33.3375C35.5668 33.2407 35.6412 33.1435 35.7174 33.0535C35.7935 32.9635 35.8694 32.8833 35.9389 32.8193C36.0084 32.7552 36.0696 32.7092 36.1176 32.6847C36.1656 32.6603 36.199 32.6582 36.2153 32.6785C36.2316 32.6989 36.2302 32.7411 36.2113 32.8019C36.1924 32.8627 36.1565 32.9404 36.1064 33.0287C36.0564 33.117 35.9936 33.2135 35.923 33.3106C35.8525 33.4076 35.7761 33.5024 35.7001 33.5875Z" fill="#009B3A" stroke="black" stroke-width="0.0125"/>
        <path d="M35.225 33.225C35.2326 33.3254 35.236 33.4263 35.2348 33.5222C35.2337 33.618 35.2282 33.7069 35.2185 33.7836C35.2088 33.8604 35.1951 33.9235 35.1784 33.9695C35.1616 34.0155 35.1419 34.0434 35.1206 34.0516C35.0993 34.0598 35.0766 34.0482 35.054 34.0174C35.0313 33.9865 35.0092 33.9372 34.9887 33.872C34.9682 33.8069 34.9498 33.7272 34.9346 33.6377C34.9194 33.5481 34.9076 33.4504 34.9 33.35C34.8923 33.2497 34.889 33.1487 34.8901 33.0529C34.8912 32.957 34.8968 32.8682 34.9065 32.7914C34.9162 32.7147 34.9298 32.6515 34.9466 32.6055C34.9634 32.5595 34.983 32.5316 35.0044 32.5234C35.0257 32.5152 35.0483 32.5269 35.071 32.5577C35.0936 32.5885 35.1158 32.6379 35.1363 32.703C35.1568 32.7682 35.1751 32.8478 35.1904 32.9374C35.2056 33.0269 35.2173 33.1247 35.225 33.225Z" fill="#009B3A" stroke="black" stroke-width="0.0125"/>
        <path d="M35.4125 33.225C35.3707 33.3831 35.3222 33.5207 35.2743 33.6175C35.2263 33.7143 35.1815 33.7651 35.1465 33.7622C35.1114 33.7594 35.0879 33.7032 35.0796 33.6019C35.0712 33.5007 35.0784 33.3597 35.1 33.2C35.1158 33.0841 35.1386 32.9622 35.1667 32.844C35.1947 32.7257 35.2273 32.6145 35.2618 32.5191C35.2963 32.4237 35.3317 32.3468 35.3653 32.2946C35.3988 32.2424 35.4295 32.2162 35.455 32.2182C35.4804 32.2203 35.4999 32.2504 35.5118 32.3063C35.5237 32.3622 35.5278 32.4422 35.5237 32.5401C35.5196 32.6379 35.5074 32.7507 35.4881 32.8697C35.4688 32.9886 35.4429 33.1103 35.4125 33.225Z" fill="#009B3A" stroke="black" stroke-width="0.0125"/>
        <path d="M35.575 33.3875C35.5343 33.4877 35.4904 33.5854 35.4456 33.6752C35.4009 33.7649 35.3562 33.8448 35.3141 33.9105C35.272 33.9761 35.2334 34.0261 35.2004 34.0576C35.1674 34.0891 35.1407 34.1015 35.1219 34.0941C35.0837 34.0792 35.0798 33.9845 35.1108 33.8309C35.1419 33.6773 35.2054 33.4773 35.2875 33.275C35.3289 33.1734 35.3735 33.0743 35.419 32.9835C35.4644 32.8928 35.5098 32.812 35.5524 32.746C35.595 32.6799 35.634 32.6298 35.6673 32.5984C35.7006 32.5671 35.7274 32.5552 35.7463 32.5634C35.7652 32.5716 35.7757 32.5998 35.7773 32.6463C35.7789 32.6928 35.7716 32.7567 35.7557 32.8343C35.7398 32.912 35.7156 33.002 35.6846 33.099C35.6536 33.1961 35.6164 33.2984 35.575 33.4" fill="#009B3A"/>
        <path d="M35.575 33.3875C35.5343 33.4877 35.4904 33.5854 35.4456 33.6752C35.4009 33.7649 35.3562 33.8448 35.3141 33.9105C35.272 33.9761 35.2334 34.0261 35.2004 34.0576C35.1674 34.0891 35.1407 34.1015 35.1219 34.0941C35.0837 34.0792 35.0798 33.9845 35.1108 33.8309C35.1419 33.6773 35.2054 33.4773 35.2875 33.275C35.3289 33.1734 35.3735 33.0743 35.419 32.9835C35.4644 32.8928 35.5098 32.812 35.5524 32.746C35.595 32.6799 35.634 32.6298 35.6673 32.5984C35.7006 32.5671 35.7274 32.5552 35.7463 32.5634C35.7652 32.5716 35.7757 32.5998 35.7773 32.6463C35.7789 32.6928 35.7716 32.7567 35.7557 32.8343C35.7398 32.912 35.7156 33.002 35.6846 33.099C35.6536 33.1961 35.6164 33.2984 35.575 33.4" stroke="black" stroke-width="0.0125"/>
        <path d="M35.1249 34.0375L34.9124 33.85C34.8874 33.8125 34.9374 33.725 34.8249 33.625C34.7356 33.5447 34.6199 33.5002 34.4999 33.5C34.4249 33.5 34.4249 33.575 34.5499 33.7C34.6749 33.825 34.7999 33.8 34.8624 33.8625C34.9496 33.919 35.0293 33.9862 35.0999 34.0625L35.4374 34.1125C35.5249 34.125 35.7249 34.275 35.8999 34.275C36.0499 34.275 36.1499 34.2 36.0624 34.1375C35.9627 34.0671 35.8464 34.024 35.7249 34.0125C35.6124 34.0125 35.5249 34.1 35.4124 34.0875L35.1124 34.0375M34.8124 35.0125C34.6935 35.0393 34.5698 35.0603 34.4509 35.0739C34.3321 35.0876 34.2211 35.0935 34.1265 35.0912C34.0318 35.089 33.9561 35.0786 33.9051 35.0609C33.8541 35.0432 33.8291 35.0187 33.832 34.9892C33.835 34.9596 33.8658 34.9259 33.9221 34.8906C33.9785 34.8553 34.0588 34.8192 34.157 34.7853C34.2553 34.7514 34.3688 34.7204 34.4889 34.6948C34.6089 34.6692 34.7324 34.6496 34.8499 34.6375C34.9688 34.6107 35.0924 34.5897 35.2113 34.5761C35.3302 34.5624 35.4412 34.5565 35.5358 34.5588C35.6304 34.561 35.7061 34.5714 35.7572 34.5891C35.8082 34.6068 35.8332 34.6313 35.8303 34.6608C35.8273 34.6904 35.7965 34.7241 35.7401 34.7594C35.6838 34.7948 35.6035 34.8308 35.5052 34.8647C35.407 34.8986 35.2935 34.9296 35.1734 34.9552C35.0533 34.9808 34.9298 35.0004 34.8124 35.0125Z" fill="#009B3A"/>
        <path d="M35.1249 34.0375L34.9124 33.85C34.8874 33.8125 34.9374 33.725 34.8249 33.625C34.7356 33.5447 34.6199 33.5002 34.4999 33.5C34.4249 33.5 34.4249 33.575 34.5499 33.7C34.6749 33.825 34.7999 33.8 34.8624 33.8625C34.9496 33.919 35.0293 33.9862 35.0999 34.0625L35.4374 34.1125C35.5249 34.125 35.7249 34.275 35.8999 34.275C36.0499 34.275 36.1499 34.2 36.0624 34.1375C35.9627 34.0671 35.8464 34.024 35.7249 34.0125C35.6124 34.0125 35.5249 34.1 35.4124 34.0875L35.1124 34.0375M34.8124 35.0125C34.6935 35.0393 34.5698 35.0603 34.4509 35.0739C34.3321 35.0876 34.2211 35.0935 34.1265 35.0912C34.0318 35.089 33.9561 35.0786 33.9051 35.0609C33.8541 35.0432 33.8291 35.0187 33.832 34.9892C33.835 34.9596 33.8658 34.9259 33.9221 34.8906C33.9785 34.8553 34.0588 34.8192 34.157 34.7853C34.2553 34.7514 34.3688 34.7204 34.4889 34.6948C34.6089 34.6692 34.7324 34.6496 34.8499 34.6375C34.9688 34.6107 35.0924 34.5897 35.2113 34.5761C35.3302 34.5624 35.4412 34.5565 35.5358 34.5588C35.6304 34.561 35.7061 34.5714 35.7572 34.5891C35.8082 34.6068 35.8332 34.6313 35.8303 34.6608C35.8273 34.6904 35.7965 34.7241 35.7401 34.7594C35.6838 34.7948 35.6035 34.8308 35.5052 34.8647C35.407 34.8986 35.2935 34.9296 35.1734 34.9552C35.0533 34.9808 34.9298 35.0004 34.8124 35.0125Z" stroke="black" stroke-width="0.0125"/>
        <path d="M34.8001 34.8C34.6009 34.8726 34.4122 34.9238 34.2714 34.9432C34.1306 34.9626 34.048 34.9489 34.0402 34.9048C34.0323 34.8607 34.0997 34.7894 34.2289 34.7052C34.3581 34.6209 34.5397 34.5298 34.7376 34.45C34.9367 34.3773 35.1255 34.3261 35.2663 34.3067C35.4071 34.2873 35.4896 34.301 35.4975 34.3451C35.5054 34.3892 35.438 34.4605 35.3088 34.5448C35.1795 34.629 34.9979 34.7201 34.8001 34.8Z" fill="#009B3A" stroke="black" stroke-width="0.0125"/>
        <path d="M34.5126 34.1875C34.4238 34.3581 34.3267 34.5102 34.2387 34.6163C34.1507 34.7225 34.0775 34.7759 34.0324 34.7668C33.9872 34.7578 33.973 34.687 33.9923 34.5671C34.0116 34.4471 34.0631 34.286 34.1376 34.1125C34.1829 34.007 34.2354 33.9002 34.2912 33.7996C34.3471 33.699 34.4051 33.607 34.4612 33.5298C34.5173 33.4527 34.5702 33.3924 34.6163 33.3529C34.6623 33.3135 34.7004 33.2959 34.7278 33.3014C34.7553 33.3069 34.7716 33.3353 34.7754 33.3848C34.7793 33.4342 34.7707 33.5034 34.7502 33.5876C34.7298 33.6719 34.6979 33.7692 34.6569 33.8727C34.6159 33.9763 34.5666 34.0837 34.5126 34.1875Z" fill="#009B3A" stroke="black" stroke-width="0.0125"/>
        <path d="M34.7124 34.3C34.6359 34.3866 34.5563 34.4697 34.4781 34.5446C34.3999 34.6196 34.3246 34.6849 34.2566 34.7368C34.1886 34.7887 34.1291 34.8263 34.0817 34.8473C34.0342 34.8683 33.9996 34.8723 33.9799 34.8592C33.9602 34.846 33.9558 34.816 33.9669 34.7707C33.9779 34.7255 34.0043 34.6659 34.0445 34.5954C34.0846 34.5249 34.1378 34.4449 34.2009 34.3599C34.264 34.2749 34.3359 34.1866 34.4124 34.1C34.5669 33.9252 34.7308 33.768 34.8682 33.6632C35.0055 33.5583 35.1051 33.5143 35.1448 33.5408C35.1846 33.5673 35.1614 33.6622 35.0803 33.8046C34.9992 33.947 34.8669 34.1252 34.7124 34.3Z" fill="#009B3A" stroke="black" stroke-width="0.0125"/>
        <path d="M34.7625 34.55C34.6666 34.6267 34.5662 34.7004 34.4678 34.7661C34.3695 34.8318 34.2754 34.888 34.1918 34.9311C34.1082 34.9742 34.037 35.0031 33.9828 35.016C33.9287 35.0289 33.8929 35.0254 33.8778 35.0058C33.8627 34.9863 33.8686 34.951 33.8951 34.9024C33.9216 34.8539 33.9682 34.793 34.0317 34.724C34.0952 34.6549 34.1743 34.5792 34.2636 34.5018C34.3529 34.4244 34.4506 34.3471 34.55 34.275C34.7371 34.132 34.9284 34.0094 35.0818 33.9342C35.2352 33.8589 35.3381 33.8371 35.368 33.8735C35.3978 33.91 35.3521 34.0017 35.2409 34.1286C35.1297 34.2555 34.9621 34.407 34.775 34.55" fill="#009B3A"/>
        <path d="M34.7625 34.55C34.6666 34.6267 34.5662 34.7004 34.4678 34.7661C34.3695 34.8318 34.2754 34.888 34.1918 34.9311C34.1082 34.9742 34.037 35.0031 33.9828 35.016C33.9287 35.0289 33.8929 35.0254 33.8778 35.0058C33.8627 34.9863 33.8686 34.951 33.8951 34.9024C33.9216 34.8539 33.9682 34.793 34.0317 34.724C34.0952 34.6549 34.1743 34.5792 34.2636 34.5018C34.3529 34.4244 34.4506 34.3471 34.55 34.275C34.7371 34.132 34.9284 34.0094 35.0818 33.9342C35.2352 33.8589 35.3381 33.8371 35.368 33.8735C35.3978 33.91 35.3521 34.0017 35.2409 34.1286C35.1297 34.2555 34.9621 34.407 34.775 34.55" stroke="black" stroke-width="0.0125"/>
        <path d="M33.9751 34.9L33.8876 34.6125C33.8751 34.55 33.9751 34.4875 33.9251 34.3375C33.8829 34.2062 33.7939 34.095 33.6751 34.025C33.6126 33.9875 33.5501 34.0625 33.6126 34.25C33.6626 34.4375 33.8001 34.5 33.8376 34.5875L33.9376 34.9125C34.0126 34.95 34.1501 35.0875 34.2376 35.1625C34.3251 35.225 34.4376 35.475 34.6126 35.575C34.7376 35.6625 34.8626 35.65 34.8376 35.5375C34.7781 35.4127 34.6877 35.3051 34.5751 35.225C34.4751 35.15 34.3251 35.1875 34.2376 35.1125C34.1751 35.0625 33.9751 34.9125 33.9876 34.9" fill="#009B3A"/>
        <path d="M33.9751 34.9L33.8876 34.6125C33.8751 34.55 33.9751 34.4875 33.9251 34.3375C33.8829 34.2062 33.7939 34.095 33.6751 34.025C33.6126 33.9875 33.5501 34.0625 33.6126 34.25C33.6626 34.4375 33.8001 34.5 33.8376 34.5875L33.9376 34.9125C34.0126 34.95 34.1501 35.0875 34.2376 35.1625C34.3251 35.225 34.4376 35.475 34.6126 35.575C34.7376 35.6625 34.8626 35.65 34.8376 35.5375C34.7781 35.4127 34.6877 35.3051 34.5751 35.225C34.4751 35.15 34.3251 35.1875 34.2376 35.1125C34.1751 35.0625 33.9751 34.9125 33.9876 34.9" stroke="black" stroke-width="0.0125"/>
        <path d="M33.5 35.7375C33.2869 35.7399 33.0838 35.7176 32.9343 35.6756C32.7849 35.6335 32.7012 35.5751 32.7012 35.5128C32.7012 35.4504 32.7849 35.3893 32.9343 35.3425C33.0838 35.2957 33.2869 35.2669 33.5 35.2625C33.7131 35.2601 33.9162 35.2824 34.0657 35.3244C34.2151 35.3665 34.2988 35.4249 34.2988 35.4872C34.2988 35.5496 34.2151 35.6107 34.0657 35.6575C33.9162 35.7043 33.7131 35.7331 33.5 35.7375Z" fill="#009B3A" stroke="black" stroke-width="0.0125"/>
        <path d="M33.3874 35C33.2461 35.1822 33.092 35.3411 32.9592 35.4419C32.8264 35.5426 32.7258 35.5768 32.6794 35.537C32.6329 35.4972 32.6446 35.3867 32.7117 35.2297C32.7789 35.0728 32.8961 34.8822 33.0374 34.7C33.1788 34.5178 33.3328 34.3589 33.4656 34.2582C33.5984 34.1575 33.6991 34.1233 33.7455 34.163C33.7919 34.2028 33.7803 34.3134 33.7131 34.4703C33.646 34.6273 33.5288 34.8178 33.3874 35Z" fill="#009B3A" stroke="black" stroke-width="0.0125"/>
        <path d="M33.4999 35.375C33.3239 35.439 33.1585 35.4784 33.0322 35.4864C32.9058 35.4944 32.8262 35.4706 32.807 35.4189C32.7878 35.3672 32.8302 35.291 32.927 35.2032C33.0237 35.1154 33.1688 35.0214 33.3374 34.9375C33.5135 34.8734 33.6788 34.834 33.8052 34.826C33.9316 34.818 34.0112 34.8419 34.0303 34.8935C34.0495 34.9452 34.0071 35.0214 33.9104 35.1093C33.8136 35.1971 33.6686 35.291 33.4999 35.375ZM33.7249 28.25C33.815 28.334 33.8899 28.4169 33.935 28.4823C33.98 28.5477 33.992 28.5909 33.9685 28.6034C33.945 28.6159 33.8878 28.5969 33.808 28.55C33.7282 28.5031 33.6317 28.4317 33.5374 28.35C33.485 28.3045 33.4348 28.2571 33.3902 28.211C33.3456 28.1649 33.3075 28.121 33.2783 28.0821C33.2491 28.0432 33.2294 28.0102 33.2206 27.9851C33.2118 27.96 33.214 27.9435 33.2271 27.9365C33.2402 27.9295 33.2638 27.9323 33.2966 27.9446C33.3293 27.9569 33.3704 27.9785 33.4172 28.008C33.4641 28.0375 33.5156 28.0742 33.5686 28.1159C33.6216 28.1575 33.6748 28.2032 33.7249 28.25ZM33.4749 28.4625C33.6131 28.4806 33.7475 28.5092 33.8487 28.542C33.9499 28.5747 34.0095 28.6089 34.0145 28.6371C34.0195 28.6653 33.9694 28.6851 33.8752 28.6922C33.7811 28.6993 33.6506 28.6931 33.5124 28.675C33.3743 28.6568 33.2398 28.6282 33.1387 28.5955C33.0375 28.5627 32.9778 28.5285 32.9728 28.5003C32.9679 28.4721 33.018 28.4523 33.1121 28.4452C33.2063 28.4381 33.3368 28.4443 33.4749 28.4625Z" fill="#009B3A" stroke="black" stroke-width="0.0125"/>
        <path d="M33.575 28.325C33.7029 28.3899 33.8203 28.4614 33.9014 28.5237C33.9825 28.586 34.0206 28.634 34.0074 28.6572C33.9941 28.6804 33.9306 28.6769 33.8307 28.6474C33.7309 28.6179 33.6029 28.5649 33.4749 28.5C33.4116 28.4678 33.3502 28.4337 33.2941 28.3996C33.2381 28.3655 33.1886 28.3321 33.1485 28.3013C33.0674 28.2389 33.0293 28.1909 33.0425 28.1677C33.0558 28.1445 33.1193 28.148 33.2192 28.1775C33.319 28.207 33.447 28.2601 33.575 28.325ZM29.8875 34.9375C29.8875 34.9375 30.5749 35.0875 31.1749 35.3C31.7624 35.5125 32.6749 36.2625 32.9249 36.3C33.1874 36.3125 33.5625 36.225 33.7125 35.825C33.2875 35.95 33.0375 36.1125 32.6375 35.8875C32.5 35.8375 32.0375 35.4125 31.5125 35.1875C31.0147 34.9935 30.5054 34.8307 29.9874 34.7L29.8875 34.9375ZM30.625 28.7375L31.4125 28.3125L30.5375 28.5375L30.4375 28.6875L30.625 28.7375Z" fill="#009B3A" stroke="black" stroke-width="0.0125"/>
        <path d="M31.3751 28.925C31.0626 28.875 30.5876 28.7625 30.2876 28.7375C30.5001 28.5125 30.7876 28.125 30.9626 27.8875C30.8376 28.1125 30.6626 28.4125 30.5876 28.6375C30.8001 28.75 31.1376 28.8375 31.3751 28.925Z" fill="#009B3A" stroke="black" stroke-width="0.0125"/>
        <path d="M30.4751 28.7875L31.1751 28.2375L30.3626 28.6125L30.2876 28.775H30.4751" fill="#009B3A"/>
        <path d="M30.4751 28.7875L31.1751 28.2375L30.3626 28.6125L30.2876 28.775H30.4751" stroke="black" stroke-width="0.0125"/>
        <path d="M31.2249 28.9125C30.9124 28.8625 30.4499 28.75 30.1499 28.725C30.3499 28.4875 30.6249 28.1 30.7999 27.85C30.6749 28.075 30.5124 28.3875 30.4374 28.6125C30.6499 28.7375 30.9874 28.825 31.2249 28.9125Z" fill="#009B3A" stroke="black" stroke-width="0.0125"/>
        <path d="M30.3625 28.825L31.1875 28.4875L30.3 28.625L30.175 28.775L30.3625 28.825Z" fill="#009B3A" stroke="black" stroke-width="0.0125"/>
        <path d="M31.1251 28.925C30.8251 28.9 30.3376 28.8375 30.0376 28.85C30.2126 28.5875 30.4376 28.15 30.5876 27.8875C30.5001 28.1375 30.3626 28.4625 30.3251 28.7C30.5501 28.8 30.8876 28.8625 31.1376 28.925" fill="#009B3A"/>
        <path d="M31.1251 28.925C30.8251 28.9 30.3376 28.8375 30.0376 28.85C30.2126 28.5875 30.4376 28.15 30.5876 27.8875C30.5001 28.1375 30.3626 28.4625 30.3251 28.7C30.5501 28.8 30.8876 28.8625 31.1376 28.925" stroke="black" stroke-width="0.0125"/>
        <path d="M30.2751 28.8375L30.8376 28.15L30.1251 28.675L30.1001 28.8625L30.2751 28.825" fill="#009B3A"/>
        <path d="M30.2751 28.8375L30.8376 28.15L30.1251 28.675L30.1001 28.8625L30.2751 28.825" stroke="black" stroke-width="0.0125"/>
        <path d="M31.1249 28.975C30.7999 28.975 30.2749 28.9375 29.9624 28.975C30.1249 28.6625 30.3124 28.175 30.4374 27.875C30.3749 28.15 30.2624 28.525 30.2374 28.7875C30.4874 28.875 30.8624 28.9125 31.1249 28.975Z" fill="#009B3A" stroke="black" stroke-width="0.0125"/>
        <path d="M30.1624 29C30.3848 28.7765 30.6098 28.5556 30.8374 28.3375L30.0249 28.8L29.9624 28.9875H30.1624" fill="#009B3A"/>
        <path d="M30.1624 29C30.3848 28.7765 30.6098 28.5556 30.8374 28.3375L30.0249 28.8L29.9624 28.9875H30.1624" stroke="black" stroke-width="0.0125"/>
        <path d="M30.9751 29C30.6251 29 30.0751 28.975 29.7251 29.0125C29.9501 28.675 30.2751 28.1375 30.4751 27.8C30.3501 28.1 30.1376 28.525 30.0626 28.8C30.3126 28.9 30.7001 28.925 30.9751 28.9875" fill="#009B3A"/>
        <path d="M30.9751 29C30.6251 29 30.0751 28.975 29.7251 29.0125C29.9501 28.675 30.2751 28.1375 30.4751 27.8C30.3501 28.1 30.1376 28.525 30.0626 28.8C30.3126 28.9 30.7001 28.925 30.9751 28.9875" stroke="black" stroke-width="0.0125"/>
        <path d="M29.9376 29.0375L30.8126 28.3L29.8126 28.825L29.7251 29.0375H29.9376Z" fill="#009B3A" stroke="black" stroke-width="0.0125"/>
        <path d="M30.8501 29.0125C30.5001 29.0625 29.9501 29.125 29.6001 29.2125C29.8062 28.7917 29.9939 28.3621 30.1626 27.925C30.0876 28.2375 29.9501 28.675 29.9126 28.9625C30.1751 29.0125 30.5626 29 30.8501 29.0125Z" fill="#009B3A" stroke="black" stroke-width="0.0125"/>
        <path d="M29.8251 29.1875C30.0431 28.8772 30.2639 28.5688 30.4875 28.2625L29.65 29.0125L29.6125 29.25L29.8125 29.1875" fill="#009B3A"/>
        <path d="M29.8251 29.1875C30.0431 28.8772 30.2639 28.5688 30.4875 28.2625L29.65 29.0125L29.6125 29.25L29.8125 29.1875" stroke="black" stroke-width="0.0125"/>
        <path d="M30.6499 29.125C30.2999 29.1625 29.7499 29.1875 29.3999 29.25C29.5999 28.9125 29.8749 28.35 30.0249 28C29.9374 28.3125 29.7749 28.7375 29.7249 29.025C29.9749 29.0875 30.3749 29.0875 30.6499 29.125Z" fill="#009B3A" stroke="black" stroke-width="0.0125"/>
        <path d="M29.7001 29.2875L30.55 28.5375L29.5875 29.0625L29.4875 29.2875H29.7001Z" fill="#009B3A" stroke="black" stroke-width="0.0125"/>
        <path d="M30.55 29.1625C30.1875 29.2375 29.6375 29.325 29.3 29.4375C29.4625 29.075 29.675 28.4875 29.8 28.125C29.7375 28.45 29.625 28.875 29.6 29.175C29.8625 29.2125 30.2625 29.1625 30.55 29.1625Z" fill="#009B3A" stroke="black" stroke-width="0.0125"/>
        <path d="M29.5625 29.325L30.1 28.3125L29.3625 29.1875V29.4125L29.5625 29.325Z" fill="#009B3A" stroke="black" stroke-width="0.0125"/>
        <path d="M30.5499 29.225C30.1749 29.3125 29.5749 29.45 29.2124 29.5875C29.3499 29.175 29.5124 28.5125 29.6124 28.1C29.5749 28.4625 29.4874 28.95 29.5124 29.275C29.7999 29.3 30.2374 29.2375 30.5499 29.225Z" fill="#009B3A" stroke="black" stroke-width="0.0125"/>
        <path d="M29.4501 29.55L30.1376 28.55L29.2626 29.3625L29.2251 29.6125L29.4501 29.55Z" fill="#009B3A" stroke="black" stroke-width="0.0125"/>
        <path d="M30.3999 29.3375C30.0249 29.4625 29.4374 29.6125 29.0874 29.7625C29.2124 29.35 29.3374 28.6875 29.4124 28.275C29.3874 28.6375 29.3374 29.125 29.3624 29.4375C29.6624 29.45 30.0874 29.3625 30.3999 29.3375Z" fill="#009B3A" stroke="black" stroke-width="0.0125"/>
        <path d="M29.3124 29.7L29.8374 28.575L29.0874 29.55V29.8L29.3124 29.7Z" fill="#009B3A" stroke="black" stroke-width="0.0125"/>
        <path d="M30.2499 29.4875C29.8749 29.575 29.2749 29.6875 28.8999 29.8125C29.0624 29.4125 29.2499 28.75 29.3624 28.35C29.3124 28.7125 29.2124 29.1875 29.2124 29.5125C29.5124 29.55 29.9374 29.4875 30.2499 29.4875Z" fill="#009B3A" stroke="black" stroke-width="0.0125"/>
        <path d="M29.1875 29.8125L30.0375 28.9375L29.0375 29.5875L28.95 29.8375L29.2 29.8125" fill="#009B3A"/>
        <path d="M29.1875 29.8125L30.0375 28.9375L29.0375 29.5875L28.95 29.8375L29.2 29.8125" stroke="black" stroke-width="0.0125"/>
        <path d="M30.0875 29.6375C29.7125 29.6875 29.1125 29.7375 28.75 29.8375C28.925 29.4375 29.15 28.8 29.2875 28.4C29.2125 28.75 29.0875 29.2375 29.0625 29.5625C29.35 29.625 29.775 29.6125 30.0875 29.6375Z" fill="#009B3A" stroke="black" stroke-width="0.0125"/>
        <path d="M29.025 29.725L29.6 28.625L28.8125 29.55V29.8L29.025 29.725Z" fill="#009B3A" stroke="black" stroke-width="0.0125"/>
        <path d="M30.125 29.5C29.7125 29.675 29.075 29.9125 28.6875 30.125C28.8125 29.625 28.9375 28.85 29.025 28.375C29.0125 28.7875 28.95 29.3625 28.9875 29.725C29.325 29.725 29.7875 29.575 30.1375 29.5125" fill="#009B3A"/>
        <path d="M30.125 29.5C29.7125 29.675 29.075 29.9125 28.6875 30.125C28.8125 29.625 28.9375 28.85 29.025 28.375C29.0125 28.7875 28.95 29.3625 28.9875 29.725C29.325 29.725 29.7875 29.575 30.1375 29.5125" stroke="black" stroke-width="0.0125"/>
        <path d="M28.9375 30.05L29.6375 28.8L28.725 29.8625L28.7 30.1625L28.95 30.05" fill="#009B3A"/>
        <path d="M28.9375 30.05L29.6375 28.8L28.725 29.8625L28.7 30.1625L28.95 30.05" stroke="black" stroke-width="0.0125"/>
        <path d="M29.975 29.6625C29.5625 29.85 28.925 30.125 28.55 30.35C28.65 29.85 28.75 29.0875 28.8125 28.6C28.8125 29.0125 28.7875 29.5875 28.8375 29.9375C29.175 29.9125 29.625 29.75 29.9625 29.6625" fill="#009B3A"/>
        <path d="M29.975 29.6625C29.5625 29.85 28.925 30.125 28.55 30.35C28.65 29.85 28.75 29.0875 28.8125 28.6C28.8125 29.0125 28.7875 29.5875 28.8375 29.9375C29.175 29.9125 29.625 29.75 29.9625 29.6625" stroke="black" stroke-width="0.0125"/>
        <path d="M28.8 30.25L29.3 28.9L28.55 30.1L28.5625 30.3875L28.8 30.25Z" fill="#009B3A" stroke="black" stroke-width="0.0125"/>
        <path d="M29.7875 29.775C29.3875 29.975 28.75 30.25 28.375 30.475C28.475 29.975 28.575 29.2125 28.625 28.725C28.6375 29.1375 28.6125 29.7 28.6625 30.0625C28.9875 30.025 29.45 29.8625 29.7875 29.775Z" fill="#009B3A" stroke="black" stroke-width="0.0125"/>
        <path d="M28.6875 30.4125L29.4625 29.2125L28.475 30.1875L28.4375 30.4875L28.6875 30.4125Z" fill="#009B3A" stroke="black" stroke-width="0.0125"/>
        <path d="M29.75 29.7125C29.4 30 28.825 30.425 28.5 30.75C28.5 30.25 28.425 29.475 28.3875 29C28.4875 29.4 28.575 29.95 28.7 30.275C29.0125 30.1625 29.4375 29.8875 29.7625 29.7125" fill="#009B3A"/>
        <path d="M29.75 29.7125C29.4 30 28.825 30.425 28.5 30.75C28.5 30.25 28.425 29.475 28.3875 29C28.4875 29.4 28.575 29.95 28.7 30.275C29.0125 30.1625 29.4375 29.8875 29.7625 29.7125" stroke="black" stroke-width="0.0125"/>
        <path d="M28.725 30.4625L28.8125 29.0375L28.4375 30.4125L28.5375 30.6875L28.725 30.4625Z" fill="#009B3A" stroke="black" stroke-width="0.0125"/>
        <path d="M29.6501 29.85C29.2876 30.1375 28.7126 30.55 28.4001 30.8625C28.4001 30.3625 28.3251 29.6125 28.2876 29.125C28.3751 29.525 28.4626 30.075 28.5876 30.4C28.9126 30.2875 29.3376 30.0125 29.6501 29.85Z" fill="#009B3A" stroke="black" stroke-width="0.0125"/>
        <path d="M28.625 30.7C28.7458 30.2364 28.8708 29.7739 29 29.3125L28.375 30.5875L28.4125 30.875L28.6375 30.7" fill="#009B3A"/>
        <path d="M28.625 30.7C28.7458 30.2364 28.8708 29.7739 29 29.3125L28.375 30.5875L28.4125 30.875L28.6375 30.7" stroke="black" stroke-width="0.0125"/>
        <path d="M29.6125 29.875C29.275 30.2125 28.725 30.7125 28.425 31.075C28.3625 30.575 28.2125 29.7875 28.125 29.3125C28.25 29.7 28.4125 30.25 28.575 30.575C28.9 30.425 29.3 30.0875 29.6125 29.875Z" fill="#009B3A" stroke="black" stroke-width="0.0125"/>
        <path d="M28.6249 30.875L28.6999 29.4L28.3374 30.8375L28.4499 31.1125L28.6374 30.8875" fill="#009B3A"/>
        <path d="M28.6249 30.875L28.6999 29.4L28.3374 30.8375L28.4499 31.1125L28.6374 30.8875" stroke="black" stroke-width="0.0125"/>
        <path d="M29.5 30.125C29.1375 30.425 28.5625 30.875 28.225 31.2125C28.225 30.6875 28.125 29.9 28.075 29.4C28.1875 29.8125 28.2874 30.375 28.4249 30.7125C28.7499 30.5875 29.175 30.3 29.5 30.125Z" fill="#009B3A" stroke="black" stroke-width="0.0125"/>
        <path d="M28.525 31.05L29.0375 29.65L28.2625 30.9L28.2875 31.2L28.525 31.05Z" fill="#009B3A" stroke="black" stroke-width="0.0125"/>
        <path d="M29.4999 30.125C29.1749 30.475 28.6624 30.9875 28.3749 31.35C28.3249 30.8375 28.1749 30.05 28.0874 29.5625C28.2124 29.95 28.3624 30.5125 28.5249 30.8375C28.8249 30.6875 29.1999 30.3375 29.4999 30.125Z" fill="#009B3A" stroke="black" stroke-width="0.0125"/>
        <path d="M28.55 31.125L28.4875 29.65L28.2375 31.1125L28.3876 31.3625L28.55 31.1125" fill="#009B3A"/>
        <path d="M28.55 31.125L28.4875 29.65L28.2375 31.1125L28.3876 31.3625L28.55 31.1125" stroke="black" stroke-width="0.0125"/>
        <path d="M29.3376 30.25C29.0251 30.5875 28.5251 31.1 28.2501 31.475C28.1876 30.95 28.0126 30.1625 27.9126 29.675C28.0501 30.075 28.2126 30.6375 28.3876 30.9625C28.6751 30.8 29.0501 30.4625 29.3376 30.2375" fill="#009B3A"/>
        <path d="M29.3376 30.25C29.0251 30.5875 28.5251 31.1 28.2501 31.475C28.1876 30.95 28.0126 30.1625 27.9126 29.675C28.0501 30.075 28.2126 30.6375 28.3876 30.9625C28.6751 30.8 29.0501 30.4625 29.3376 30.2375" stroke="black" stroke-width="0.0125"/>
        <path d="M28.4625 31.275L28.625 29.775L28.1875 31.1875L28.275 31.475L28.4625 31.275Z" fill="#009B3A" stroke="black" stroke-width="0.0125"/>
        <path d="M29.275 30.3C28.9875 30.675 28.525 31.2375 28.275 31.625C28.175 31.125 27.95 30.35 27.8125 29.875C27.975 30.25 28.1875 30.8 28.375 31.1125C28.65 30.925 29 30.5375 29.275 30.3Z" fill="#009B3A" stroke="black" stroke-width="0.0125"/>
        <path d="M28.4501 31.4125L28.3625 29.9125L28.175 31.4L28.3 31.65L28.4501 31.4" fill="#009B3A"/>
        <path d="M28.4501 31.4125L28.3625 29.9125L28.175 31.4L28.3 31.65L28.4501 31.4" stroke="black" stroke-width="0.0125"/>
        <path d="M29.25 30.375C28.975 30.775 28.5375 31.375 28.3125 31.775C28.1875 31.275 27.9125 30.5125 27.75 30.0375C27.9375 30.4125 28.175 30.95 28.375 31.25C28.65 31.05 28.975 30.65 29.25 30.375Z" fill="#009B3A" stroke="black" stroke-width="0.0125"/>
        <path d="M28.5499 31.55L28.6999 30.05L28.2749 31.4625L28.3624 31.7625L28.5499 31.55Z" fill="#009B3A" stroke="black" stroke-width="0.0125"/>
        <path d="M29.1875 30.525C28.95 30.95 28.5751 31.6 28.3876 32.0375C28.2126 31.55 27.8875 30.8375 27.675 30.3875C27.9 30.7375 28.175 31.2375 28.4125 31.5125C28.6625 31.2625 28.95 30.825 29.1875 30.5125" fill="#009B3A"/>
        <path d="M29.1875 30.525C28.95 30.95 28.5751 31.6 28.3876 32.0375C28.2126 31.55 27.8875 30.8375 27.675 30.3875C27.9 30.7375 28.175 31.2375 28.4125 31.5125C28.6625 31.2625 28.95 30.825 29.1875 30.5125" stroke="black" stroke-width="0.0125"/>
        <path d="M28.5 31.675L28.075 30.25L28.2125 31.75L28.4125 31.9625L28.5 31.675Z" fill="#009B3A" stroke="black" stroke-width="0.0125"/>
        <path d="M29.175 30.6875C28.925 31.1125 28.55 31.7625 28.35 32.2C28.1625 31.7125 27.8375 31 27.625 30.55C27.85 30.9 28.125 31.4 28.375 31.675C28.625 31.425 28.9375 30.9875 29.175 30.6875Z" fill="#009B3A" stroke="black" stroke-width="0.0125"/>
        <path d="M28.5126 31.95L28.3626 30.45L28.2251 31.95L28.3751 32.2L28.5126 31.95Z" fill="#009B3A" stroke="black" stroke-width="0.0125"/>
        <path d="M29.1999 30.825C28.9499 31.25 28.5499 31.875 28.3499 32.3125C28.1749 31.825 27.8499 31.1 27.6499 30.65C27.8749 31 28.1499 31.5 28.3749 31.775C28.6499 31.55 28.9499 31.1125 29.1999 30.825Z" fill="#009B3A" stroke="black" stroke-width="0.0125"/>
        <path d="M28.4999 32.0625L28.2249 30.5875L28.2124 32.1L28.3749 32.3375L28.4999 32.0625Z" fill="#009B3A" stroke="black" stroke-width="0.0125"/>
        <path d="M29.1 31.0375C28.825 31.4375 28.4 32.0375 28.175 32.4625C28.025 31.9625 27.7375 31.2125 27.55 30.7625C27.7625 31.125 28.0125 31.6375 28.225 31.9375C28.5 31.7125 28.8375 31.3125 29.1 31.0375Z" fill="#009B3A" stroke="black" stroke-width="0.0125"/>
        <path d="M28.3749 32.225L28.4999 30.725L28.0874 32.15L28.1874 32.4375L28.3749 32.225Z" fill="#009B3A" stroke="black" stroke-width="0.0125"/>
        <path d="M29.1125 31.075C28.8875 31.5125 28.5126 32.175 28.3251 32.6125C28.1376 32.1375 27.775 31.4375 27.55 31C27.8 31.3375 28.0875 31.825 28.3375 32.075C28.5875 31.825 28.875 31.375 29.1125 31.075Z" fill="#009B3A" stroke="black" stroke-width="0.0125"/>
        <path d="M28.3251 32.35L27.8625 30.95L28.0375 32.45L28.2375 32.65L28.3251 32.35Z" fill="#009B3A" stroke="black" stroke-width="0.0125"/>
        <path d="M29.05 31.1875C28.8875 31.6625 28.625 32.4 28.5 32.875C28.25 32.45 27.7875 31.8375 27.5 31.4625C27.7875 31.7375 28.15 32.15 28.4375 32.3375C28.65 32.05 28.8625 31.5375 29.05 31.1875Z" fill="#009B3A" stroke="black" stroke-width="0.0125"/>
        <path d="M28.7375 32.475L28.2375 31.0875L28.4501 32.575L28.65 32.7625L28.7375 32.4625" fill="#009B3A"/>
        <path d="M28.7375 32.475L28.2375 31.0875L28.4501 32.575L28.65 32.7625L28.7375 32.4625" stroke="black" stroke-width="0.0125"/>
        <path d="M29.0499 31.3375C28.8874 31.8125 28.625 32.55 28.5125 33.025C28.2625 32.6 27.7875 32 27.5125 31.625C27.7875 31.9 28.15 32.3 28.4375 32.5C28.65 32.2 28.8624 31.6875 29.0499 31.3375Z" fill="#009B3A" stroke="black" stroke-width="0.0125"/>
        <path d="M28.7374 32.7L28.0874 31.4125L28.4624 32.85L28.6874 33.0125L28.7374 32.7Z" fill="#009B3A" stroke="black" stroke-width="0.0125"/>
        <path d="M29 31.45C28.9 31.95 28.725 32.7125 28.6625 33.2C28.35 32.825 27.825 32.2875 27.5 31.95C27.8125 32.2 28.225 32.5375 28.525 32.7C28.7 32.3625 28.85 31.825 29 31.45Z" fill="#009B3A" stroke="black" stroke-width="0.0125"/>
        <path d="M28.775 32.9125L28.4375 31.45L28.4875 32.9625L28.675 33.1875L28.775 32.9125Z" fill="#009B3A" stroke="black" stroke-width="0.0125"/>
        <path d="M29 31.6125C28.95 32.1125 28.8375 32.9 28.8375 33.4C28.4875 33.0625 27.9125 32.6 27.5625 32.3125C27.9 32.5 28.3375 32.8 28.65 32.9125C28.7875 32.5625 28.9 32 29 31.6125Z" fill="#009B3A" stroke="black" stroke-width="0.0125"/>
        <path d="M28.8 33.0125L27.875 31.9625L28.575 33.2375L28.825 33.325L28.8 33.0125Z" fill="#009B3A" stroke="black" stroke-width="0.0125"/>
        <path d="M29.025 31.7875C28.9625 32.2875 28.85 33.075 28.85 33.575C28.5 33.2375 27.925 32.775 27.575 32.4875C27.9125 32.675 28.35 32.975 28.6625 33.0875C28.8125 32.7375 28.9125 32.1875 29.025 31.7875Z" fill="#009B3A" stroke="black" stroke-width="0.0125"/>
        <path d="M28.9 33.25C28.6585 32.8356 28.421 32.4189 28.1875 32L28.6375 33.4125L28.875 33.5625L28.9 33.2625" fill="#009B3A"/>
        <path d="M28.9 33.25C28.6585 32.8356 28.421 32.4189 28.1875 32L28.6375 33.4125L28.875 33.5625L28.9 33.2625" stroke="black" stroke-width="0.0125"/>
        <path d="M29.0624 32C29.0249 32.5 28.9499 33.3 28.9624 33.8C28.5999 33.475 28.0124 33.05 27.6499 32.7875C27.9874 32.95 28.4374 33.225 28.7624 33.3125C28.8874 32.95 28.9624 32.4 29.0624 32Z" fill="#009B3A" stroke="black" stroke-width="0.0125"/>
        <path d="M29 33.5C28.975 33.5 28.125 32.375 28.125 32.375L28.75 33.7L29 33.8V33.5Z" fill="#009B3A" stroke="black" stroke-width="0.0125"/>
        <path d="M29.0751 32.2375C29.0376 32.7375 28.9751 33.5375 28.9876 34.0375C28.5635 33.6815 28.1213 33.3477 27.6626 33.0375C28.0001 33.2 28.4626 33.4625 28.7876 33.55C28.9126 33.1875 28.9751 32.6375 29.0751 32.2375Z" fill="#009B3A" stroke="black" stroke-width="0.0125"/>
        <path d="M29.075 33.675L28.45 32.35L28.7999 33.8L29.0125 33.9875L29.075 33.675Z" fill="#009B3A" stroke="black" stroke-width="0.0125"/>
        <path d="M29.0999 32.375C29.0999 32.9 29.1124 33.7 29.1749 34.1875C28.7999 33.9375 28.1624 33.575 27.7749 33.3625C28.1249 33.4875 28.5999 33.7 28.9249 33.7375C29.0124 33.3625 29.0499 32.8 29.0874 32.3875" fill="#009B3A"/>
        <path d="M29.0999 32.375C29.0999 32.9 29.1124 33.7 29.1749 34.1875C28.7999 33.9375 28.1624 33.575 27.7749 33.3625C28.1249 33.4875 28.5999 33.7 28.9249 33.7375C29.0124 33.3625 29.0499 32.8 29.0874 32.3875" stroke="black" stroke-width="0.0125"/>
        <path d="M29.175 33.625L28.05 32.8625L29 33.9L29.2626 33.925L29.175 33.625Z" fill="#009B3A" stroke="black" stroke-width="0.0125"/>
        <path d="M29.125 32.4375C29.175 32.95 29.2125 33.75 29.3 34.2375C28.8341 33.9591 28.3543 33.7046 27.8625 33.475C28.2125 33.575 28.7 33.7625 29.025 33.8C29.1 33.425 29.1 32.85 29.125 32.4375Z" fill="#009B3A" stroke="black" stroke-width="0.0125"/>
        <path d="M29.3 33.9125L28.3625 32.8375L29.0751 34.125L29.3251 34.225L29.3 33.9125Z" fill="#009B3A" stroke="black" stroke-width="0.0125"/>
        <path d="M29.2125 32.625C29.275 33.15 29.35 33.9375 29.4625 34.425C29.05 34.2 28.4 33.925 27.9875 33.7375C28.3625 33.825 28.8375 33.9875 29.175 34C29.225 33.625 29.2 33.05 29.2125 32.625Z" fill="#009B3A" stroke="black" stroke-width="0.0125"/>
        <path d="M29.475 34.0875L28.375 33.3125L29.3125 34.375H29.5625L29.475 34.0875Z" fill="#009B3A" stroke="black" stroke-width="0.0125"/>
        <path d="M29.25 32.85C29.35 33.35 29.475 34.1375 29.6125 34.625C29.1875 34.425 28.525 34.2125 28.1125 34.075C28.475 34.125 28.975 34.2375 29.3 34.225C29.325 33.8375 29.2625 33.275 29.25 32.85Z" fill="#009B3A" stroke="black" stroke-width="0.0125"/>
        <path d="M29.6 34.25L28.6875 33.1625L29.375 34.4625L29.625 34.5625L29.6 34.25Z" fill="#009B3A" stroke="black" stroke-width="0.0125"/>
        <path d="M29.3 33C29.45 33.4875 29.65 34.25 29.8375 34.7125C29.4 34.5875 28.7125 34.45 28.3 34.3625C28.6625 34.3625 29.1625 34.4125 29.4875 34.3625C29.4875 33.9625 29.3625 33.4125 29.3 32.9875" fill="#009B3A"/>
        <path d="M29.3 33C29.45 33.4875 29.65 34.25 29.8375 34.7125C29.4 34.5875 28.7125 34.45 28.3 34.3625C28.6625 34.3625 29.1625 34.4125 29.4875 34.3625C29.4875 33.9625 29.3625 33.4125 29.3 32.9875" stroke="black" stroke-width="0.0125"/>
        <path d="M29.65 34.25L28.375 33.975L29.5875 34.575L29.8375 34.4875L29.65 34.25Z" fill="#009B3A" stroke="black" stroke-width="0.0125"/>
        <path d="M29.3875 33.15C29.5375 33.6375 29.7375 34.4 29.9125 34.8625C29.475 34.7375 28.7875 34.6 28.375 34.5125C28.7375 34.5125 29.25 34.5625 29.5625 34.5125C29.5625 34.1125 29.4375 33.5625 29.3875 33.1375" fill="#009B3A"/>
        <path d="M29.3875 33.15C29.5375 33.6375 29.7375 34.4 29.9125 34.8625C29.475 34.7375 28.7875 34.6 28.375 34.5125C28.7375 34.5125 29.25 34.5625 29.5625 34.5125C29.5625 34.1125 29.4375 33.5625 29.3875 33.1375" stroke="black" stroke-width="0.0125"/>
        <path d="M29.8624 34.375C29.8624 34.4 28.6375 33.7875 28.6375 33.7875L29.7374 34.6875L29.9874 34.6625L29.8624 34.3875" fill="#009B3A"/>
        <path d="M29.8624 34.375C29.8624 34.4 28.6375 33.7875 28.6375 33.7875L29.7374 34.6875L29.9874 34.6625L29.8624 34.3875" stroke="black" stroke-width="0.0125"/>
        <path d="M29.325 33.2375C29.575 33.675 29.925 34.3875 30.2 34.8C29.75 34.7625 29.05 34.7875 28.625 34.8C28.975 34.7125 29.475 34.65 29.775 34.525C29.7 34.15 29.4625 33.625 29.325 33.2375Z" fill="#009B3A" stroke="black" stroke-width="0.0125"/>
        <path d="M30.0499 34.5125L28.7749 34.1625L29.9749 34.8375L30.2249 34.7625L30.0499 34.5125Z" fill="#009B3A" stroke="black" stroke-width="0.0125"/>
        <path d="M29.4625 33.425C29.7125 33.8625 30.0625 34.575 30.3375 34.975C29.8875 34.95 29.1875 34.975 28.7625 35C29.125 34.9125 29.6249 34.8375 29.9249 34.7125C29.8249 34.3375 29.6 33.8125 29.45 33.425" fill="#009B3A"/>
        <path d="M29.4625 33.425C29.7125 33.8625 30.0625 34.575 30.3375 34.975C29.8875 34.95 29.1875 34.975 28.7625 35C29.125 34.9125 29.6249 34.8375 29.9249 34.7125C29.8249 34.3375 29.6 33.8125 29.45 33.425" stroke="black" stroke-width="0.0125"/>
        <path d="M30.2124 34.625L29.0249 33.9125L30.0624 34.9125H30.3374L30.2124 34.625Z" fill="#009B3A" stroke="black" stroke-width="0.0125"/>
        <path d="M29.5499 33.5375C29.8374 33.95 30.2624 34.6125 30.5749 34.9875C30.1249 35.0125 29.4499 35.1375 29.0249 35.2125C29.3749 35.0875 29.8499 34.9375 30.1374 34.7625C30.0124 34.3875 29.7249 33.9125 29.5499 33.5375Z" fill="#009B3A" stroke="black" stroke-width="0.0125"/>
        <path d="M30.2999 34.725L29.0249 34.7L30.2874 35.075L30.5124 34.9375L30.2999 34.725ZM31.0499 28.525L31.9624 28.3625L31.0499 28.3875L30.8874 28.475L31.0499 28.525Z" fill="#009B3A" stroke="black" stroke-width="0.0125"/>
        <path d="M31.5501 28.7125C31.2876 28.6375 30.8751 28.5 30.6001 28.4375C30.94 28.3026 31.2737 28.1525 31.6001 27.9875C31.3876 28.1125 31.1001 28.2875 30.9376 28.4125C31.0876 28.5125 31.3626 28.625 31.5626 28.7125" fill="#009B3A"/>
        <path d="M31.5501 28.7125C31.2876 28.6375 30.8751 28.5 30.6001 28.4375C30.94 28.3026 31.2737 28.1525 31.6001 27.9875C31.3876 28.1125 31.1001 28.2875 30.9376 28.4125C31.0876 28.5125 31.3626 28.625 31.5626 28.7125" stroke="black" stroke-width="0.0125"/>
        <path d="M30.9999 28.55L31.8999 28.3L30.9749 28.425L30.8374 28.525L30.9999 28.55Z" fill="#009B3A" stroke="black" stroke-width="0.0125"/>
        <path d="M31.6 28.7875C31.2875 28.75 30.8 28.6875 30.5 28.6875C30.725 28.4875 31.05 28.1375 31.25 27.9375C31.125 28.125 30.9 28.3875 30.8125 28.575C31.025 28.6625 31.3625 28.7125 31.6 28.7875Z" fill="#009B3A" stroke="black" stroke-width="0.0125"/>
        <path d="M30.6749 28.625L31.5999 28.5L30.6999 28.4875L30.5249 28.5625L30.6749 28.6125" fill="#009B3A"/>
        <path d="M30.6749 28.625L31.5999 28.5L30.6999 28.4875L30.5249 28.5625L30.6749 28.6125" stroke="black" stroke-width="0.0125"/>
        <path d="M31.3625 28.8125C31.075 28.7625 30.65 28.6625 30.3625 28.6375C30.625 28.5125 31.025 28.2625 31.275 28.1375C31.0875 28.2625 30.825 28.45 30.6875 28.575C30.8625 28.6625 31.15 28.7375 31.3625 28.825" fill="#009B3A"/>
        <path d="M31.3625 28.8125C31.075 28.7625 30.65 28.6625 30.3625 28.6375C30.625 28.5125 31.025 28.2625 31.275 28.1375C31.0875 28.2625 30.825 28.45 30.6875 28.575C30.8625 28.6625 31.15 28.7375 31.3625 28.825" stroke="black" stroke-width="0.0125"/>
        <path d="M30.6001 28.6L31.4126 28.25L30.5126 28.5L30.4126 28.6H30.6001Z" fill="#009B3A" stroke="black" stroke-width="0.0125"/>
        <path d="M31.3375 28.925C31.0875 28.825 30.7375 28.6625 30.5 28.5875C30.6875 28.425 30.9375 28.125 31.1 27.95C30.975 28.125 30.8125 28.3625 30.75 28.5375C30.9 28.6625 31.15 28.8 31.3375 28.9125" fill="#009B3A"/>
        <path d="M31.3375 28.925C31.0875 28.825 30.7375 28.6625 30.5 28.5875C30.6875 28.425 30.9375 28.125 31.1 27.95C30.975 28.125 30.8125 28.3625 30.75 28.5375C30.9 28.6625 31.15 28.8 31.3375 28.9125" stroke="black" stroke-width="0.0125"/>
        <path d="M30.6376 28.6625L31.275 28.3875L30.5875 28.4875L30.5 28.6125L30.6376 28.6625ZM30.125 34.625H28.8L30.1376 34.9625L30.3625 34.8125L30.1125 34.625" fill="#009B3A"/>
        <path d="M30.125 34.625H28.8L30.1376 34.9625L30.3625 34.8125L30.1125 34.625M30.6376 28.6625L31.275 28.3875L30.5875 28.4875L30.5 28.6125L30.6376 28.6625Z" stroke="black" stroke-width="0.0125"/>
        <path d="M30.35 34.7L29 34.375L30.2875 35L30.5375 34.925L30.3375 34.675" fill="#009B3A"/>
        <path d="M30.35 34.7L29 34.375L30.2875 35L30.5375 34.925L30.3375 34.675" stroke="black" stroke-width="0.0125"/>
        <path d="M30.5625 34.7875L29.2375 34.7125L30.5625 35.125L30.7875 35L30.5625 34.7875Z" fill="#009B3A" stroke="black" stroke-width="0.0125"/>
        <path d="M29.725 33.85C30.0625 34.225 30.5876 34.8375 30.9501 35.175C30.5001 35.2375 29.825 35.425 29.425 35.525C29.75 35.375 30.2125 35.1875 30.475 35C30.3 34.65 29.95 34.2 29.725 33.85Z" fill="#009B3A" stroke="black" stroke-width="0.0125"/>
        <path d="M30.75 34.85L29.425 34.4125L30.675 35.1625L30.925 35.1L30.75 34.85Z" fill="#009B3A" stroke="black" stroke-width="0.0125"/>
        <path d="M29.8501 33.9375C30.2251 34.275 30.7876 34.825 31.1751 35.125C30.7501 35.25 30.1126 35.5125 29.7251 35.675C30.0251 35.475 30.4751 35.2375 30.7001 35.0125C30.5001 34.675 30.1001 34.2625 29.8501 33.9375Z" fill="#009B3A" stroke="black" stroke-width="0.0125"/>
        <path d="M30.8501 34.9375L29.6001 35.1875L30.9251 35.275L31.1126 35.0875L30.8626 34.9375" fill="#009B3A"/>
        <path d="M30.8501 34.9375L29.6001 35.1875L30.9251 35.275L31.1126 35.0875L30.8626 34.9375" stroke="black" stroke-width="0.0125"/>
        <path d="M30.6001 34.85L29.2876 34.95L30.6376 35.1875L30.8501 35.025L30.6001 34.85Z" fill="#009B3A" stroke="black" stroke-width="0.0125"/>
        <path d="M30.8376 34.925L29.4751 34.7125L30.8126 35.25L31.0626 35.15L30.8376 34.925Z" fill="#009B3A" stroke="black" stroke-width="0.0125"/>
        <path d="M31.0625 35L29.7375 35.025L31.0875 35.325L31.3 35.1875L31.05 35H31.0625Z" fill="#009B3A" stroke="black" stroke-width="0.0125"/>
        <path d="M30.1501 34.125C30.5251 34.475 31.0876 35.05 31.4751 35.35C31.0251 35.45 30.3751 35.675 29.9751 35.8125C30.2876 35.6375 30.7376 35.4375 30.9876 35.225C30.7876 34.875 30.4001 34.45 30.1501 34.125Z" fill="#009B3A" stroke="black" stroke-width="0.0125"/>
        <path d="M31.2499 35.05L29.8999 34.7125L31.1999 35.3625L31.4499 35.2875L31.2499 35.05Z" fill="#009B3A" stroke="black" stroke-width="0.0125"/>
        <path d="M30.2749 34.2C30.6874 34.5125 31.2874 35.025 31.6999 35.2875C31.2212 35.4867 30.7501 35.7035 30.2874 35.9375C30.5749 35.725 30.9999 35.45 31.2124 35.2125C30.9874 34.8875 30.5624 34.5125 30.2749 34.2Z" fill="#009B3A" stroke="black" stroke-width="0.0125"/>
        <path d="M31.375 35.125L30.125 35.4625H31.4625L31.625 35.2625L31.375 35.1375V35.125Z" fill="#009B3A" stroke="black" stroke-width="0.0125"/>
        <path d="M33.0751 33.2625L32.0625 32.5625L31.0625 33.2625L31.4375 32.1375L30.55 31.45H31.675L32.0625 30.325L32.4375 31.45H33.5751L32.7001 32.15L33.0751 33.275V33.2625Z" fill="#FEDF00" stroke="black" stroke-width="0.0625"/>
    </g>
    <defs>
        <clipPath id="clip0_201_1084">
            <rect width="64" height="64" rx="30" fill="white"/>
        </clipPath>
    </defs>
</svg>
