<svg width="64" height="64" viewBox="0 0 64 64" fill="none" xmlns="http://www.w3.org/2000/svg">
<g clip-path="url(#clip0_397_1933)">
<rect width="64" height="64" rx="30" fill="white"/>
<path d="M85.4135 64H-9.30845C-10.2426 64 -11 63.2425 -11 62.3084V1.41567C-11 0.48156 -10.2426 -0.275879 -9.30845 -0.275879H85.4137C86.3478 -0.275879 87.1052 0.48156 87.1052 1.41567V62.3084C87.105 63.2427 86.3476 64 85.4135 64Z" fill="#F5F5F5"/>
<path d="M87.105 4.66865H-11V1.41567C-11 0.48156 -10.2426 -0.275879 -9.30845 -0.275879H85.4137C86.3478 -0.275879 87.1052 0.48156 87.1052 1.41567L87.105 4.66865Z" fill="#FF4B55"/>
<path d="M87.105 19.5011H-11V24.4454H87.105V19.5011Z" fill="#FF4B55"/>
<path d="M87.105 9.61218H-11V14.5565H87.105V9.61218Z" fill="#FF4B55"/>
<path d="M87.105 34.3342H-9.30845C-10.2426 34.3342 -11 33.5768 -11 32.6427V29.3897H87.105V34.3342Z" fill="#FF4B55"/>
<path d="M87.105 49.1683H-11V54.1127H87.105V49.1683Z" fill="#FF4B55"/>
<path d="M85.4135 63.9999H-9.30845C-10.2426 63.9999 -11 63.2424 -11 62.3083V59.0555H87.105V62.3085C87.105 63.2426 86.3476 63.9999 85.4135 63.9999Z" fill="#FF4B55"/>
<path d="M87.105 39.2793H-11V44.2236H87.105V39.2793Z" fill="#FF4B55"/>
<path d="M32.9781 -0.275513H-9.30845C-10.2426 -0.275513 -11 0.481735 -11 1.41584V32.6428C-11 33.5769 -10.2426 34.3343 -9.30845 34.3343H32.9783C33.9124 34.3343 34.6698 33.5769 34.6698 32.6428V1.41584C34.6696 0.481735 33.9122 -0.275513 32.9781 -0.275513Z" fill="#41479B"/>
<path d="M-1.69034 6.48637L-1.31593 7.60922L-0.132351 7.61822C0.0209384 7.61956 0.0843615 7.81501 -0.0388446 7.90602L-0.990961 8.60924L-0.633798 9.73764C-0.587428 9.88365 -0.753938 10.0047 -0.878677 9.91545L-1.84152 9.22718L-2.80437 9.91545C-2.92911 10.0046 -3.09524 9.88365 -3.04925 9.73764L-2.69209 8.60924L-3.6442 7.90602C-3.76741 7.81481 -3.70399 7.61956 -3.5507 7.61822L-2.36711 7.60922L-1.9927 6.48637C-1.94461 6.34113 -1.73882 6.34113 -1.69034 6.48637Z" fill="#F5F5F5"/>
<path d="M-1.69034 12.3602L-1.31593 13.483L-0.132351 13.492C0.0209384 13.4934 0.0843615 13.6888 -0.0388446 13.7798L-0.990961 14.483L-0.633798 15.6114C-0.587428 15.7574 -0.753938 15.8785 -0.878677 15.7892L-1.84152 15.101L-2.80437 15.7892C-2.92911 15.8783 -3.09524 15.7576 -3.04925 15.6114L-2.69209 14.483L-3.6442 13.7798C-3.76741 13.6886 -3.70399 13.4934 -3.5507 13.492L-2.36711 13.483L-1.9927 12.3602C-1.94461 12.2147 -1.73882 12.2147 -1.69034 12.3602Z" fill="#F5F5F5"/>
<path d="M-1.69034 18.2338L-1.31593 19.3566L-0.132351 19.3656C0.0209384 19.367 0.0843615 19.5624 -0.0388446 19.6534L-0.990961 20.3566L-0.633798 21.485C-0.587428 21.631 -0.753938 21.7521 -0.878677 21.6628L-1.84152 20.9746L-2.80437 21.6628C-2.92911 21.7519 -3.09524 21.631 -3.04925 21.485L-2.69209 20.3566L-3.6442 19.6534C-3.76741 19.5622 -3.70399 19.367 -3.5507 19.3656L-2.36711 19.3566L-1.9927 18.2338C-1.94461 18.0883 -1.73882 18.0883 -1.69034 18.2338Z" fill="#F5F5F5"/>
<path d="M-1.69034 24.1074L-1.31593 25.2302L-0.132351 25.2393C0.0209384 25.2406 0.0843615 25.436 -0.0388446 25.5271L-0.990961 26.2303L-0.633798 27.3587C-0.587428 27.5047 -0.753938 27.6258 -0.878677 27.5365L-1.84152 26.8482L-2.80437 27.5365C-2.92911 27.6256 -3.09524 27.5047 -3.04925 27.3587L-2.69209 26.2303L-3.6442 25.5271C-3.76741 25.4358 -3.70399 25.2406 -3.5507 25.2393L-2.36711 25.2302L-1.9927 24.1074C-1.94461 23.9622 -1.73882 23.9622 -1.69034 24.1074Z" fill="#F5F5F5"/>
<path d="M2.86874 3.60657L3.24315 4.72941L4.42673 4.73842C4.58002 4.73976 4.64345 4.9352 4.52024 5.02622L3.56812 5.72943L3.92529 6.85783C3.97166 7.00384 3.80515 7.12494 3.68041 7.03565L2.71756 6.34738L1.75471 7.03565C1.62997 7.12475 1.46384 7.00384 1.50983 6.85783L1.867 5.72943L0.914879 5.02622C0.791672 4.93501 0.855096 4.73976 1.00838 4.73842L2.19197 4.72941L2.56638 3.60657C2.61466 3.46114 2.82026 3.46114 2.86874 3.60657Z" fill="#F5F5F5"/>
<path d="M2.86874 9.48021L3.24315 10.6031L4.42673 10.6121C4.58002 10.6134 4.64345 10.8088 4.52024 10.8999L3.56812 11.6031L3.92529 12.7315C3.97166 12.8775 3.80515 12.9986 3.68041 12.9093L2.71756 12.221L1.75471 12.9093C1.62997 12.9984 1.46384 12.8775 1.50983 12.7315L1.867 11.6031L0.914879 10.8999C0.791672 10.8086 0.855096 10.6134 1.00838 10.6121L2.19197 10.6031L2.56638 9.48021C2.61466 9.33497 2.82026 9.33497 2.86874 9.48021Z" fill="#F5F5F5"/>
<path d="M2.86874 15.354L3.24315 16.4768L4.42673 16.4858C4.58002 16.4872 4.64345 16.6826 4.52024 16.7736L3.56812 17.4769L3.92529 18.6053C3.97166 18.7513 3.80515 18.8724 3.68041 18.7831L2.71756 18.0948L1.75471 18.7831C1.62997 18.8722 1.46384 18.7513 1.50983 18.6053L1.867 17.4769L0.914879 16.7736C0.791672 16.6824 0.855096 16.4872 1.00838 16.4858L2.19197 16.4768L2.56638 15.354C2.61466 15.2087 2.82026 15.2087 2.86874 15.354Z" fill="#F5F5F5"/>
<path d="M2.86874 21.2277L3.24315 22.3506L4.42673 22.3596C4.58002 22.3609 4.64345 22.5564 4.52024 22.6474L3.56812 23.3506L3.92529 24.479C3.97166 24.625 3.80515 24.7461 3.68041 24.6568L2.71756 23.9685L1.75471 24.6568C1.62997 24.7459 1.46384 24.625 1.50983 24.479L1.867 23.3506L0.914879 22.6474C0.791672 22.5562 0.855096 22.3609 1.00838 22.3596L2.19197 22.3506L2.56638 21.2277C2.61466 21.0823 2.82026 21.0823 2.86874 21.2277Z" fill="#F5F5F5"/>
<path d="M2.86874 27.1014L3.24315 28.2242L4.42673 28.2333C4.58002 28.2346 4.64345 28.43 4.52024 28.5211L3.56812 29.2243L3.92529 30.3527C3.97166 30.4987 3.80515 30.6198 3.68041 30.5305L2.71756 29.8422L1.75471 30.5305C1.62997 30.6196 1.46384 30.4987 1.50983 30.3527L1.867 29.2243L0.914879 28.5211C0.791672 28.4298 0.855096 28.2346 1.00838 28.2333L2.19197 28.2242L2.56638 27.1014C2.61466 26.9558 2.82026 26.9558 2.86874 27.1014Z" fill="#F5F5F5"/>
<path d="M7.42782 6.48637L7.80223 7.60922L8.98581 7.61822C9.1391 7.61956 9.20253 7.81501 9.07932 7.90602L8.1272 8.60924L8.48437 9.73764C8.53074 9.88365 8.36423 10.0047 8.23949 9.91545L7.27664 9.22718L6.31379 9.91545C6.18905 10.0046 6.02293 9.88365 6.06891 9.73764L6.42608 8.60924L5.47396 7.90602C5.35075 7.81481 5.41418 7.61956 5.56747 7.61822L6.75105 7.60922L7.12546 6.48637C7.17355 6.34113 7.37934 6.34113 7.42782 6.48637Z" fill="#F5F5F5"/>
<path d="M7.42782 12.3602L7.80223 13.483L8.98581 13.492C9.1391 13.4934 9.20253 13.6888 9.07932 13.7798L8.1272 14.483L8.48437 15.6114C8.53074 15.7574 8.36423 15.8785 8.23949 15.7892L7.27664 15.101L6.31379 15.7892C6.18905 15.8783 6.02293 15.7576 6.06891 15.6114L6.42608 14.483L5.47396 13.7798C5.35075 13.6886 5.41418 13.4934 5.56747 13.492L6.75105 13.483L7.12546 12.3602C7.17355 12.2147 7.37934 12.2147 7.42782 12.3602Z" fill="#F5F5F5"/>
<path d="M7.42782 18.2338L7.80223 19.3566L8.98581 19.3656C9.1391 19.367 9.20253 19.5624 9.07932 19.6534L8.1272 20.3566L8.48437 21.485C8.53074 21.631 8.36423 21.7521 8.23949 21.6628L7.27664 20.9746L6.31379 21.6628C6.18905 21.7519 6.02293 21.631 6.06891 21.485L6.42608 20.3566L5.47396 19.6534C5.35075 19.5622 5.41418 19.367 5.56747 19.3656L6.75105 19.3566L7.12546 18.2338C7.17355 18.0883 7.37934 18.0883 7.42782 18.2338Z" fill="#F5F5F5"/>
<path d="M7.42782 24.1074L7.80223 25.2302L8.98581 25.2393C9.1391 25.2406 9.20253 25.436 9.07932 25.5271L8.1272 26.2303L8.48437 27.3587C8.53074 27.5047 8.36423 27.6258 8.23949 27.5365L7.27664 26.8482L6.31379 27.5365C6.18905 27.6256 6.02293 27.5047 6.06891 27.3587L6.42608 26.2303L5.47396 25.5271C5.35075 25.4358 5.41418 25.2406 5.56747 25.2393L6.75105 25.2302L7.12546 24.1074C7.17355 23.9622 7.37934 23.9622 7.42782 24.1074Z" fill="#F5F5F5"/>
<path d="M11.9866 3.60657L12.361 4.72941L13.5446 4.73842C13.6979 4.73976 13.7613 4.9352 13.6381 5.02622L12.686 5.72943L13.0432 6.85783C13.0895 7.00384 12.923 7.12494 12.7983 7.03565L11.8352 6.34738L10.8724 7.03565C10.7476 7.12475 10.5815 7.00384 10.6275 6.85783L10.9847 5.72943L10.0326 5.02622C9.90935 4.93501 9.97277 4.73976 10.1261 4.73842L11.3096 4.72941L11.6841 3.60657C11.7325 3.46114 11.9381 3.46114 11.9866 3.60657Z" fill="#F5F5F5"/>
<path d="M11.9866 9.48021L12.361 10.6031L13.5446 10.6121C13.6979 10.6134 13.7613 10.8088 13.6381 10.8999L12.686 11.6031L13.0432 12.7315C13.0895 12.8775 12.923 12.9986 12.7983 12.9093L11.8352 12.221L10.8724 12.9093C10.7476 12.9984 10.5815 12.8775 10.6275 12.7315L10.9847 11.6031L10.0326 10.8999C9.90935 10.8086 9.97277 10.6134 10.1261 10.6121L11.3096 10.6031L11.6841 9.48021C11.7325 9.33497 11.9381 9.33497 11.9866 9.48021Z" fill="#F5F5F5"/>
<path d="M11.9866 15.354L12.361 16.4768L13.5446 16.4858C13.6979 16.4872 13.7613 16.6826 13.6381 16.7736L12.686 17.4769L13.0432 18.6053C13.0895 18.7513 12.923 18.8724 12.7983 18.7831L11.8352 18.0948L10.8724 18.7831C10.7476 18.8722 10.5815 18.7513 10.6275 18.6053L10.9847 17.4769L10.0326 16.7736C9.90935 16.6824 9.97277 16.4872 10.1261 16.4858L11.3096 16.4768L11.6841 15.354C11.7325 15.2087 11.9381 15.2087 11.9866 15.354Z" fill="#F5F5F5"/>
<path d="M11.9866 21.2277L12.361 22.3506L13.5446 22.3596C13.6979 22.3609 13.7613 22.5564 13.6381 22.6474L12.686 23.3506L13.0432 24.479C13.0895 24.625 12.923 24.7461 12.7983 24.6568L11.8352 23.9685L10.8724 24.6568C10.7476 24.7459 10.5815 24.625 10.6275 24.479L10.9847 23.3506L10.0326 22.6474C9.90935 22.5562 9.97277 22.3609 10.1261 22.3596L11.3096 22.3506L11.6841 21.2277C11.7325 21.0823 11.9381 21.0823 11.9866 21.2277Z" fill="#F5F5F5"/>
<path d="M11.9866 27.1014L12.361 28.2242L13.5446 28.2333C13.6979 28.2346 13.7613 28.43 13.6381 28.5211L12.686 29.2243L13.0432 30.3527C13.0895 30.4987 12.923 30.6198 12.7983 30.5305L11.8352 29.8422L10.8724 30.5305C10.7476 30.6196 10.5815 30.4987 10.6275 30.3527L10.9847 29.2243L10.0326 28.5211C9.90935 28.4298 9.97277 28.2346 10.1261 28.2333L11.3096 28.2242L11.6841 27.1014C11.7325 26.9558 11.9381 26.9558 11.9866 27.1014Z" fill="#F5F5F5"/>
<path d="M16.546 6.48637L16.9204 7.60922L18.104 7.61822C18.2573 7.61956 18.3207 7.81501 18.1975 7.90602L17.2454 8.60924L17.6025 9.73764C17.6489 9.88365 17.4824 10.0047 17.3577 9.91545L16.3948 9.22718L15.432 9.91545C15.3072 10.0046 15.1411 9.88365 15.1871 9.73764L15.5442 8.60924L14.5921 7.90602C14.4689 7.81481 14.5323 7.61956 14.6856 7.61822L15.8692 7.60922L16.2436 6.48637C16.2921 6.34113 16.4975 6.34113 16.546 6.48637Z" fill="#F5F5F5"/>
<path d="M16.546 12.3602L16.9204 13.483L18.104 13.492C18.2573 13.4934 18.3207 13.6888 18.1975 13.7798L17.2454 14.483L17.6025 15.6114C17.6489 15.7574 17.4824 15.8785 17.3577 15.7892L16.3948 15.101L15.432 15.7892C15.3072 15.8783 15.1411 15.7576 15.1871 15.6114L15.5442 14.483L14.5921 13.7798C14.4689 13.6886 14.5323 13.4934 14.6856 13.492L15.8692 13.483L16.2436 12.3602C16.2921 12.2147 16.4975 12.2147 16.546 12.3602Z" fill="#F5F5F5"/>
<path d="M16.546 18.2338L16.9204 19.3566L18.104 19.3656C18.2573 19.367 18.3207 19.5624 18.1975 19.6534L17.2454 20.3566L17.6025 21.485C17.6489 21.631 17.4824 21.7521 17.3577 21.6628L16.3948 20.9746L15.432 21.6628C15.3072 21.7519 15.1411 21.631 15.1871 21.485L15.5442 20.3566L14.5921 19.6534C14.4689 19.5622 14.5323 19.367 14.6856 19.3656L15.8692 19.3566L16.2436 18.2338C16.2921 18.0883 16.4975 18.0883 16.546 18.2338Z" fill="#F5F5F5"/>
<path d="M16.546 24.1074L16.9204 25.2302L18.104 25.2393C18.2573 25.2406 18.3207 25.436 18.1975 25.5271L17.2454 26.2303L17.6025 27.3587C17.6489 27.5047 17.4824 27.6258 17.3577 27.5365L16.3948 26.8482L15.432 27.5365C15.3072 27.6256 15.1411 27.5047 15.1871 27.3587L15.5442 26.2303L14.5921 25.5271C14.4689 25.4358 14.5323 25.2406 14.6856 25.2393L15.8692 25.2302L16.2436 24.1074C16.2921 23.9622 16.4975 23.9622 16.546 24.1074Z" fill="#F5F5F5"/>
<path d="M21.1056 3.60657L21.48 4.72941L22.6636 4.73842C22.8168 4.73976 22.8803 4.9352 22.7571 5.02622L21.8049 5.72943L22.1621 6.85783C22.2085 7.00384 22.042 7.12494 21.9172 7.03565L20.9544 6.34738L19.9915 7.03565C19.8668 7.12475 19.7007 7.00384 19.7466 6.85783L20.1038 5.72943L19.1517 5.02622C19.0285 4.93501 19.0919 4.73976 19.2452 4.73842L20.4288 4.72941L20.8032 3.60657C20.8513 3.46114 21.0571 3.46114 21.1056 3.60657Z" fill="#F5F5F5"/>
<path d="M21.1056 9.48021L21.48 10.6031L22.6636 10.6121C22.8168 10.6134 22.8803 10.8088 22.7571 10.8999L21.8049 11.6031L22.1621 12.7315C22.2085 12.8775 22.042 12.9986 21.9172 12.9093L20.9544 12.221L19.9915 12.9093C19.8668 12.9984 19.7007 12.8775 19.7466 12.7315L20.1038 11.6031L19.1517 10.8999C19.0285 10.8086 19.0919 10.6134 19.2452 10.6121L20.4288 10.6031L20.8032 9.48021C20.8513 9.33497 21.0571 9.33497 21.1056 9.48021Z" fill="#F5F5F5"/>
<path d="M21.1056 15.354L21.48 16.4768L22.6636 16.4858C22.8168 16.4872 22.8803 16.6826 22.7571 16.7736L21.8049 17.4769L22.1621 18.6053C22.2085 18.7513 22.042 18.8724 21.9172 18.7831L20.9544 18.0948L19.9915 18.7831C19.8668 18.8722 19.7007 18.7513 19.7466 18.6053L20.1038 17.4769L19.1517 16.7736C19.0285 16.6824 19.0919 16.4872 19.2452 16.4858L20.4288 16.4768L20.8032 15.354C20.8513 15.2087 21.0571 15.2087 21.1056 15.354Z" fill="#F5F5F5"/>
<path d="M21.1056 21.2277L21.48 22.3506L22.6636 22.3596C22.8168 22.3609 22.8803 22.5564 22.7571 22.6474L21.8049 23.3506L22.1621 24.479C22.2085 24.625 22.042 24.7461 21.9172 24.6568L20.9544 23.9685L19.9915 24.6568C19.8668 24.7459 19.7007 24.625 19.7466 24.479L20.1038 23.3506L19.1517 22.6474C19.0285 22.5562 19.0919 22.3609 19.2452 22.3596L20.4288 22.3506L20.8032 21.2277C20.8513 21.0823 21.0571 21.0823 21.1056 21.2277Z" fill="#F5F5F5"/>
<path d="M21.1056 27.1014L21.48 28.2242L22.6636 28.2333C22.8168 28.2346 22.8803 28.43 22.7571 28.5211L21.8049 29.2243L22.1621 30.3527C22.2085 30.4987 22.042 30.6198 21.9172 30.5305L20.9544 29.8422L19.9915 30.5305C19.8668 30.6196 19.7007 30.4987 19.7466 30.3527L20.1038 29.2243L19.1517 28.5211C19.0285 28.4298 19.0919 28.2346 19.2452 28.2333L20.4288 28.2242L20.8032 27.1014C20.8513 26.9558 21.0571 26.9558 21.1056 27.1014Z" fill="#F5F5F5"/>
<path d="M25.6639 6.48637L26.0383 7.60922L27.2219 7.61822C27.3752 7.61956 27.4386 7.81501 27.3154 7.90602L26.3633 8.60924L26.7204 9.73764C26.7668 9.88365 26.6003 10.0047 26.4756 9.91545L25.5127 9.22718L24.5499 9.91545C24.4251 10.0046 24.259 9.88365 24.305 9.73764L24.6622 8.60924L23.71 7.90602C23.5868 7.81481 23.6503 7.61956 23.8035 7.61822L24.9871 7.60922L25.3615 6.48637C25.4098 6.34113 25.6156 6.34113 25.6639 6.48637Z" fill="#F5F5F5"/>
<path d="M25.6639 12.3602L26.0383 13.483L27.2219 13.492C27.3752 13.4934 27.4386 13.6888 27.3154 13.7798L26.3633 14.483L26.7204 15.6114C26.7668 15.7574 26.6003 15.8785 26.4756 15.7892L25.5127 15.101L24.5499 15.7892C24.4251 15.8783 24.259 15.7576 24.305 15.6114L24.6622 14.483L23.71 13.7798C23.5868 13.6886 23.6503 13.4934 23.8035 13.492L24.9871 13.483L25.3615 12.3602C25.4098 12.2147 25.6156 12.2147 25.6639 12.3602Z" fill="#F5F5F5"/>
<path d="M25.6639 18.2338L26.0383 19.3566L27.2219 19.3656C27.3752 19.367 27.4386 19.5624 27.3154 19.6534L26.3633 20.3566L26.7204 21.485C26.7668 21.631 26.6003 21.7521 26.4756 21.6628L25.5127 20.9746L24.5499 21.6628C24.4251 21.7519 24.259 21.631 24.305 21.485L24.6622 20.3566L23.71 19.6534C23.5868 19.5622 23.6503 19.367 23.8035 19.3656L24.9871 19.3566L25.3615 18.2338C25.4098 18.0883 25.6156 18.0883 25.6639 18.2338Z" fill="#F5F5F5"/>
<path d="M25.6639 24.1074L26.0383 25.2302L27.2219 25.2393C27.3752 25.2406 27.4386 25.436 27.3154 25.5271L26.3633 26.2303L26.7204 27.3587C26.7668 27.5047 26.6003 27.6258 26.4756 27.5365L25.5127 26.8482L24.5499 27.5365C24.4251 27.6256 24.259 27.5047 24.305 27.3587L24.6622 26.2303L23.71 25.5271C23.5868 25.4358 23.6503 25.2406 23.8035 25.2393L24.9871 25.2302L25.3615 24.1074C25.4098 23.9622 25.6156 23.9622 25.6639 24.1074Z" fill="#F5F5F5"/>
<path d="M30.223 3.60657L30.5974 4.72941L31.781 4.73842C31.9343 4.73976 31.9977 4.9352 31.8745 5.02622L30.9224 5.72943L31.2795 6.85783C31.3259 7.00384 31.1594 7.12494 31.0347 7.03565L30.0718 6.34738L29.109 7.03565C28.9842 7.12475 28.8181 7.00384 28.8641 6.85783L29.2212 5.72943L28.2691 5.02622C28.1459 4.93501 28.2093 4.73976 28.3626 4.73842L29.5462 4.72941L29.9206 3.60657C29.9689 3.46114 30.1743 3.46114 30.223 3.60657Z" fill="#F5F5F5"/>
<path d="M30.223 9.48021L30.5974 10.6031L31.781 10.6121C31.9343 10.6134 31.9977 10.8088 31.8745 10.8999L30.9224 11.6031L31.2795 12.7315C31.3259 12.8775 31.1594 12.9986 31.0347 12.9093L30.0718 12.221L29.109 12.9093C28.9842 12.9984 28.8181 12.8775 28.8641 12.7315L29.2212 11.6031L28.2691 10.8999C28.1459 10.8086 28.2093 10.6134 28.3626 10.6121L29.5462 10.6031L29.9206 9.48021C29.9689 9.33497 30.1743 9.33497 30.223 9.48021Z" fill="#F5F5F5"/>
<path d="M30.223 15.354L30.5974 16.4768L31.781 16.4858C31.9343 16.4872 31.9977 16.6826 31.8745 16.7736L30.9224 17.4769L31.2795 18.6053C31.3259 18.7513 31.1594 18.8724 31.0347 18.7831L30.0718 18.0948L29.109 18.7831C28.9842 18.8722 28.8181 18.7513 28.8641 18.6053L29.2212 17.4769L28.2691 16.7736C28.1459 16.6824 28.2093 16.4872 28.3626 16.4858L29.5462 16.4768L29.9206 15.354C29.9689 15.2087 30.1743 15.2087 30.223 15.354Z" fill="#F5F5F5"/>
<path d="M30.223 21.2277L30.5974 22.3506L31.781 22.3596C31.9343 22.3609 31.9977 22.5564 31.8745 22.6474L30.9224 23.3506L31.2795 24.479C31.3259 24.625 31.1594 24.7461 31.0347 24.6568L30.0718 23.9685L29.109 24.6568C28.9842 24.7459 28.8181 24.625 28.8641 24.479L29.2212 23.3506L28.2691 22.6474C28.1459 22.5562 28.2093 22.3609 28.3626 22.3596L29.5462 22.3506L29.9206 21.2277C29.9689 21.0823 30.1743 21.0823 30.223 21.2277Z" fill="#F5F5F5"/>
<path d="M30.223 27.1014L30.5974 28.2242L31.781 28.2333C31.9343 28.2346 31.9977 28.43 31.8745 28.5211L30.9224 29.2243L31.2795 30.3527C31.3259 30.4987 31.1594 30.6198 31.0347 30.5305L30.0718 29.8422L29.109 30.5305C28.9842 30.6196 28.8181 30.4987 28.8641 30.3527L29.2212 29.2243L28.2691 28.5211C28.1459 28.4298 28.2093 28.2346 28.3626 28.2333L29.5462 28.2242L29.9206 27.1014C29.9689 26.9558 30.1743 26.9558 30.223 27.1014Z" fill="#F5F5F5"/>
</g>
<defs>
<clipPath id="clip0_397_1933">
<rect width="64" height="64" rx="30" fill="white"/>
</clipPath>
</defs>
</svg>
