<svg width="64" height="64" viewBox="0 0 64 64" fill="none" xmlns="http://www.w3.org/2000/svg">
    <g clip-path="url(#clip0_201_659)">
        <path d="M0 0H64V64H0V0Z" fill="white"/>
        <path d="M35.5 7.11249H64V14.225H35.5V7.11249ZM35.5 21.3375H64V28.45H35.5V21.3375ZM0 35.55H64V42.675H0V35.55ZM0 49.775H64V56.9H0V49.775Z" fill="#0038A8"/>
        <path d="M16.97 21.2516L18.147 23.0091C13.3106 26.5092 16.2633 28.5789 12.8359 29.6992C14.9676 27.6189 12.5002 27.4435 14.2963 23.1074" fill="#FCD116"/>
        <path d="M16.97 21.2516L18.147 23.0091C13.3106 26.5092 16.2633 28.5789 12.8359 29.6992C14.9676 27.6189 12.5002 27.4435 14.2963 23.1074" stroke="black" stroke-width="0.234667" stroke-miterlimit="20" stroke-linecap="square"/>
        <path d="M16.1288 21.7498C13.4604 26.1479 15.2104 28.5661 12.8361 29.6993" stroke="black" stroke-width="0.234667" stroke-miterlimit="20"/>
        <path d="M17.7751 17.775H20.1218L17.7751 30.6817L15.4285 17.775H17.7751V30.6817Z" fill="#FCD116"/>
        <path d="M17.7751 17.775H20.1218L17.7751 30.6817M17.7751 17.775H15.4285L17.7751 30.6817M17.7751 17.775V30.6817" stroke="black" stroke-width="0.234667" stroke-miterlimit="20"/>
        <path d="M14.7475 19.6641L14.337 21.7391C8.44221 20.7941 9.06658 24.3455 5.85084 22.7142C8.82923 22.7505 7.20852 20.8818 11.5446 19.0857" fill="#FCD116"/>
        <path d="M14.7475 19.6641L14.337 21.7391C8.44221 20.7941 9.06658 24.3455 5.85084 22.7142C8.82923 22.7505 7.20852 20.8818 11.5446 19.0857" stroke="black" stroke-width="0.234667" stroke-miterlimit="20" stroke-linecap="square"/>
        <path d="M13.8004 19.4214C8.80362 20.6445 8.33113 23.5919 5.85091 22.7142" stroke="black" stroke-width="0.234667" stroke-miterlimit="20"/>
        <path d="M17.7751 17.775L19.4344 19.4344L8.64867 26.9014L16.1157 16.1157L17.7751 17.775L8.64867 26.9014Z" fill="#FCD116"/>
        <path d="M17.7751 17.775L19.4344 19.4344L8.64867 26.9014M17.7751 17.775L16.1157 16.1157L8.64867 26.9014M17.7751 17.775L8.64867 26.9014" stroke="black" stroke-width="0.234667" stroke-miterlimit="20"/>
        <path d="M14.2986 16.97L12.5411 18.147C9.04106 13.3105 6.97134 16.2632 5.851 12.8358C7.93136 14.9676 8.10671 12.5002 12.4428 14.2962" fill="#FCD116"/>
        <path d="M14.2986 16.97L12.5411 18.147C9.04106 13.3105 6.97134 16.2632 5.851 12.8358C7.93136 14.9676 8.10671 12.5002 12.4428 14.2962" stroke="black" stroke-width="0.234667" stroke-miterlimit="20" stroke-linecap="square"/>
        <path d="M13.8004 16.1287C9.40238 13.4602 6.98415 15.2103 5.85098 12.8359" stroke="black" stroke-width="0.234667" stroke-miterlimit="20"/>
        <path d="M17.7751 17.775V20.1217L4.86848 17.775L17.7751 15.4283V17.775H4.86848Z" fill="#FCD116"/>
        <path d="M17.7751 17.775V20.1217L4.86848 17.775M17.7751 17.775V15.4283L4.86848 17.775M17.7751 17.775H4.86848" stroke="black" stroke-width="0.234667" stroke-miterlimit="20"/>
        <path d="M15.8862 14.7475L13.8111 14.337C14.7561 8.44221 11.2047 9.06658 12.8361 5.85084C12.7997 8.82923 14.6684 7.20852 16.4645 11.5446" fill="#FCD116"/>
        <path d="M15.8862 14.7475L13.8111 14.337C14.7561 8.44221 11.2047 9.06658 12.8361 5.85084C12.7997 8.82923 14.6684 7.20852 16.4645 11.5446" stroke="black" stroke-width="0.234667" stroke-miterlimit="20" stroke-linecap="square"/>
        <path d="M16.1287 13.8003C14.9057 8.80356 11.9583 8.33107 12.836 5.85085" stroke="black" stroke-width="0.234667" stroke-miterlimit="20"/>
        <path d="M17.7752 17.775L16.1159 19.4344L8.64883 8.64861L19.4346 16.1157L17.7752 17.775L8.64883 8.64861Z" fill="#FCD116"/>
        <path d="M17.7752 17.775L16.1159 19.4344L8.64883 8.64861M17.7752 17.775L19.4346 16.1157L8.64883 8.64861M17.7752 17.775L8.64883 8.64861" stroke="black" stroke-width="0.234667" stroke-miterlimit="20"/>
        <path d="M18.58 14.2985L17.403 12.5409C22.2395 9.04088 19.2868 6.97115 22.7142 5.85082C20.5824 7.93118 23.0498 8.10653 21.2538 12.4426" fill="#FCD116"/>
        <path d="M18.58 14.2985L17.403 12.5409C22.2395 9.04088 19.2868 6.97115 22.7142 5.85082C20.5824 7.93118 23.0498 8.10653 21.2538 12.4426" stroke="black" stroke-width="0.234667" stroke-miterlimit="20" stroke-linecap="square"/>
        <path d="M19.4212 13.8003C22.0896 9.40219 20.3396 6.98397 22.714 5.85079" stroke="black" stroke-width="0.234667" stroke-miterlimit="20"/>
        <path d="M17.7749 17.775H15.4282L17.7749 4.86835L20.1216 17.775H17.7749V4.86835Z" fill="#FCD116"/>
        <path d="M17.7749 17.775H15.4282L17.7749 4.86835M17.7749 17.775H20.1216L17.7749 4.86835M17.7749 17.775V4.86835" stroke="black" stroke-width="0.234667" stroke-miterlimit="20"/>
        <path d="M20.8026 15.8859L21.213 13.8109C27.1078 14.7559 26.4835 11.2045 29.6992 12.8358C26.7208 12.7995 28.3415 14.6682 24.0055 16.4643" fill="#FCD116"/>
        <path d="M20.8026 15.8859L21.213 13.8109C27.1078 14.7559 26.4835 11.2045 29.6992 12.8358C26.7208 12.7995 28.3415 14.6682 24.0055 16.4643" stroke="black" stroke-width="0.234667" stroke-miterlimit="20" stroke-linecap="square"/>
        <path d="M21.7497 16.1286C26.7464 14.9056 27.2189 11.9582 29.6991 12.8358" stroke="black" stroke-width="0.234667" stroke-miterlimit="20"/>
        <path d="M17.775 17.775L16.1156 16.1157L26.9014 8.64865L19.4343 19.4344L17.775 17.775L26.9014 8.64865Z" fill="#FCD116"/>
        <path d="M17.775 17.775L16.1156 16.1157L26.9014 8.64865M17.775 17.775L19.4343 19.4344L26.9014 8.64865M17.775 17.775L26.9014 8.64865" stroke="black" stroke-width="0.234667" stroke-miterlimit="20"/>
        <path d="M21.2514 18.5801L23.0089 17.4031C26.509 22.2395 28.5787 19.2868 29.699 22.7142C27.6187 20.5825 27.4433 23.0499 23.1073 21.2538" fill="#FCD116"/>
        <path d="M21.2514 18.5801L23.0089 17.4031C26.509 22.2395 28.5787 19.2868 29.699 22.7142C27.6187 20.5825 27.4433 23.0499 23.1073 21.2538" stroke="black" stroke-width="0.234667" stroke-miterlimit="20" stroke-linecap="square"/>
        <path d="M21.7496 19.4214C26.1477 22.0898 28.5659 20.3398 29.6991 22.7142" stroke="black" stroke-width="0.234667" stroke-miterlimit="20"/>
        <path d="M17.7749 17.775V15.4284L30.6816 17.775L17.7749 20.1217V17.775H30.6816Z" fill="#FCD116"/>
        <path d="M17.7749 17.775V15.4284L30.6816 17.775M17.7749 17.775V20.1217L30.6816 17.775M17.7749 17.775H30.6816" stroke="black" stroke-width="0.234667" stroke-miterlimit="20"/>
        <path d="M19.6639 20.8026L21.7389 21.213C20.7939 27.1078 24.3453 26.4835 22.714 29.6992C22.7503 26.7208 20.8816 28.3415 19.0855 24.0055" fill="#FCD116"/>
        <path d="M19.6639 20.8026L21.7389 21.213C20.7939 27.1078 24.3453 26.4835 22.714 29.6992C22.7503 26.7208 20.8816 28.3415 19.0855 24.0055" stroke="black" stroke-width="0.234667" stroke-miterlimit="20" stroke-linecap="square"/>
        <path d="M19.4213 21.7497C20.6444 26.7465 23.5918 27.219 22.7141 29.6992" stroke="black" stroke-width="0.234667" stroke-miterlimit="20"/>
        <path d="M17.7748 17.775L19.4342 16.1157L26.9012 26.9014L16.1155 19.4344L17.7748 17.775L26.9012 26.9014Z" fill="#FCD116"/>
        <path d="M17.7748 17.775L19.4342 16.1157L26.9012 26.9014M17.7748 17.775L16.1155 19.4344L26.9012 26.9014M17.7748 17.775L26.9012 26.9014" stroke="black" stroke-width="0.234667" stroke-miterlimit="20"/>
        <path d="M17.7751 22.0772C20.1512 22.0772 22.0773 20.1511 22.0773 17.775C22.0773 15.3989 20.1512 13.4728 17.7751 13.4728C15.3991 13.4728 13.4729 15.3989 13.4729 17.775C13.4729 20.1511 15.3991 22.0772 17.7751 22.0772Z" fill="#FCD116" stroke="black" stroke-width="0.234667" stroke-miterlimit="20"/>
        <path d="M20.9428 16.0541C20.669 16.367 20.5126 15.8194 19.5348 15.8194C18.557 15.8194 18.4006 16.4061 18.2441 16.2888C18.0877 16.1714 19.0655 15.4674 19.3783 15.4283C19.6912 15.3892 20.5908 15.7021 20.9428 16.0541ZM19.8086 16.4061C20.0824 16.6408 19.8477 17.1492 19.5739 17.1492C19.3001 17.1492 18.7917 16.6799 19.0263 16.367" fill="black"/>
        <path d="M18.5181 16.7581C18.5572 16.2887 18.9483 16.2105 19.5741 16.2105C20.1999 16.2105 20.4736 16.6798 20.7083 16.7972C20.4345 16.7972 20.1999 16.4061 19.5741 16.4061C18.9483 16.4061 18.9483 16.4061 18.5181 16.7972M18.6354 16.8754C18.7918 16.6407 18.9874 17.1101 19.4176 17.1101C19.8478 17.1101 20.0825 16.9927 20.3563 16.7972C20.6301 16.6016 19.9652 17.2665 19.535 17.2665C19.1047 17.2665 18.5181 17.0318 18.6354 16.8754Z" fill="black"/>
        <path d="M19.9651 17.1101C20.4736 16.8363 20.1607 16.4452 19.9651 16.3669C20.0434 16.4452 20.3562 16.8363 19.9651 17.1101ZM17.7749 19.4567C18.0096 19.4567 18.0878 19.3785 18.4007 19.3785C18.7136 19.3785 19.4567 19.8087 19.8869 19.6523C18.9874 20.0043 19.3394 19.7696 17.7749 19.7696H17.5793M20.0434 20.0043C19.8869 19.7305 19.926 19.8087 19.6131 19.3785C19.926 19.6132 20.0042 19.7305 20.0434 20.0043ZM17.7749 20.3954C18.7527 20.3954 18.5962 20.1998 19.8869 19.6523C18.9482 19.7696 18.7527 20.0825 17.7749 20.0825H17.5793M17.7749 18.9483C18.0487 18.9483 18.1269 18.7527 18.4398 18.7527C18.7527 18.7527 19.1829 18.8701 19.3785 19.0265C19.4176 19.0656 19.2611 18.7136 18.9482 18.6745C18.6353 18.6354 18.7527 18.1269 18.4007 18.0487C18.4007 18.2052 18.518 18.1661 18.5571 18.4007C18.5571 18.5963 18.2051 18.5963 18.1269 18.4007C18.2051 18.7136 17.9705 18.7136 17.7749 18.7136" fill="black"/>
        <path d="M14.607 16.0541C14.8808 16.367 15.0372 15.8194 16.015 15.8194C16.9928 15.8194 17.1492 16.4061 17.3057 16.2888C17.4621 16.1714 16.4843 15.4674 16.1715 15.4283C15.8586 15.3892 14.959 15.7021 14.607 16.0541ZM15.7412 16.4061C15.4675 16.6408 15.7021 17.1492 15.9759 17.1492C16.2497 17.1492 16.7581 16.6799 16.5235 16.367" fill="black"/>
        <path d="M17.0317 16.7581C16.9926 16.2887 16.6015 16.2105 15.9757 16.2105C15.35 16.2105 15.0762 16.6798 14.8415 16.7972C15.1153 16.7972 15.35 16.4061 15.9757 16.4061C16.6015 16.4061 16.6015 16.4061 17.0317 16.7972M16.9144 16.8754C16.758 16.6407 16.5624 17.1101 16.1322 17.1101C15.702 17.1101 15.4673 16.9927 15.1935 16.7972C14.9197 16.6016 15.5846 17.2665 16.0148 17.2665C16.4451 17.2665 17.0317 17.0318 16.9144 16.8754Z" fill="black"/>
        <path d="M15.5847 17.1101C15.0762 16.8363 15.3891 16.4452 15.5847 16.3669C15.5065 16.4452 15.1936 16.8363 15.5847 17.1101ZM17.7749 19.4567C17.5402 19.4567 17.462 19.3785 17.1491 19.3785C16.8362 19.3785 16.0931 19.8087 15.6629 19.6523C16.5625 20.0043 16.2105 19.7696 17.7749 19.7696H17.9705M15.5065 20.0043C15.6629 19.7305 15.6238 19.8087 15.9367 19.3785C15.6238 19.6132 15.5456 19.7305 15.5065 20.0043ZM17.7749 20.3954C16.7971 20.3954 16.9536 20.1998 15.6629 19.6523C16.6016 19.7696 16.7971 20.0825 17.7749 20.0825H17.9705M17.7749 18.9483C17.5011 18.9483 17.4229 18.7527 17.11 18.7527C16.7971 18.7527 16.3669 18.8701 16.1713 19.0265C16.1322 19.0656 16.2887 18.7136 16.6016 18.6745C16.9145 18.6354 16.7971 18.1269 17.1491 18.0487C17.1491 18.2052 17.0318 18.1661 16.9927 18.4007C16.9927 18.5963 17.3447 18.5963 17.4229 18.4007C17.3447 18.7136 17.5793 18.7136 17.7749 18.7136" fill="black"/>
        <path d="M17.7749 20.7474C17.5793 20.7474 17.0709 20.8648 17.7749 20.8648C18.4789 20.8648 17.9704 20.7474 17.7749 20.7474Z" fill="black"/>
    </g>
    <defs>
        <clipPath id="clip0_201_659">
            <rect width="64" height="64" rx="30" fill="white"/>
        </clipPath>
    </defs>
</svg>
