<svg width="64" height="64" viewBox="0 0 64 64" fill="none" xmlns="http://www.w3.org/2000/svg">
    <g clip-path="url(#clip0_201_505)">
        <path d="M0 0H64V64H0V0Z" fill="#CF142B"/>
        <path d="M0 0H64V42.6625H0V0Z" fill="#00247D"/>
        <path d="M0 0H64V21.3375H0V0Z" fill="#FFCC00"/>
        <path d="M35.8329 23.274L34.601 25.6553L35.9878 26.387L35.8329 23.274Z" fill="white"/>
        <path d="M35.8331 23.274L36.1762 25.933L34.6228 26.1463L35.8331 23.274Z" fill="white"/>
        <path d="M38.0097 25.5281L35.3643 25.0923L35.0969 26.6373L38.0097 25.5281Z" fill="white"/>
        <path d="M38.0098 25.5281L35.587 26.6762L34.9041 25.2647L38.0098 25.5281Z" fill="white"/>
        <path d="M33.0165 24.6477L34.9006 26.5551L36.025 25.4624L33.0165 24.6477Z" fill="white"/>
        <path d="M33.0167 24.6477L35.6516 25.143L35.3744 26.6862L33.0167 24.6477Z" fill="white"/>
        <path d="M36.5386 28.295L36.1355 25.6444L34.5835 25.8675L36.5386 28.295Z" fill="white"/>
        <path d="M36.5386 28.2949L34.698 26.3455L35.8294 25.2599L36.5386 28.2949Z" fill="white"/>
        <path d="M33.4525 27.7508L35.8488 26.5484L35.157 25.1413L33.4525 27.7508Z" fill="white"/>
        <path d="M33.4525 27.7508L34.7378 25.3979L36.1199 26.1384L33.4525 27.7508Z" fill="white"/>
        <path d="M42.9665 25.8703L40.9944 27.6866L42.0473 28.8485L42.9665 25.8703Z" fill="white"/>
        <path d="M42.9664 25.8703L42.3794 28.4863L40.8468 28.1555L42.9664 25.8703Z" fill="white"/>
        <path d="M44.241 28.733L41.9041 27.4188L41.1245 28.7791L44.241 28.733Z" fill="white"/>
        <path d="M44.241 28.733L41.5716 28.9832L41.4127 27.4233L44.241 28.733Z" fill="white"/>
        <path d="M39.8499 26.1979L40.9679 28.6347L42.3983 27.9924L39.8499 26.1979Z" fill="white"/>
        <path d="M39.8498 26.1979L42.1564 27.5645L41.3681 28.9199L39.8498 26.1979Z" fill="white"/>
        <path d="M41.9122 30.8299L42.44 28.2013L40.9053 27.8801L41.9122 30.8299Z" fill="white"/>
        <path d="M41.9123 30.8299L40.8495 28.3685L42.2839 27.7353L41.9123 30.8299Z" fill="white"/>
        <path d="M39.1984 29.263L41.8614 28.9528L41.6926 27.3939L39.1984 29.263Z" fill="white"/>
        <path d="M39.1983 29.263L41.2108 27.4916L42.2563 28.6602L39.1983 29.263Z" fill="white"/>
        <path d="M48.7816 30.7499L46.3073 31.7822L46.8992 33.2341L48.7816 30.7499Z" fill="white"/>
        <path d="M48.7816 30.7499L47.3353 33.0074L46.0083 32.1723L48.7816 30.7499Z" fill="white"/>
        <path d="M49.0003 33.8759L47.2539 31.8416L46.056 32.8533L49.0003 33.8759Z" fill="white"/>
        <path d="M49.0002 33.8758L46.4063 33.198L46.7904 31.6778L49.0002 33.8758Z" fill="white"/>
        <path d="M45.741 29.9918L45.9581 32.664L47.5219 32.5497L45.741 29.9918Z" fill="white"/>
        <path d="M45.741 29.9918L47.441 32.0649L46.2367 33.069L45.741 29.9918Z" fill="white"/>
        <path d="M46.0947 35.0498L47.4897 32.7602L46.1574 31.9335L46.0947 35.0498Z" fill="white"/>
        <path d="M46.0948 35.0498L45.9379 32.3733L47.5024 32.2689L46.0948 35.0498Z" fill="white"/>
        <path d="M44.0804 32.6493L46.689 33.2685L47.0635 31.7459L44.0804 32.6493Z" fill="white"/>
        <path d="M44.0804 32.6493L46.5774 31.6731L47.1602 33.1287L44.0804 32.6493Z" fill="white"/>
        <path d="M52.5772 37.3241L49.899 37.4479L49.9587 39.0147L52.5772 37.3241Z" fill="white"/>
        <path d="M52.5773 37.3241L50.4462 38.9508L49.4847 37.7122L52.5773 37.3241Z" fill="white"/>
        <path d="M51.7136 40.3363L50.7683 37.8275L49.2966 38.3684L51.7136 40.3363Z" fill="white"/>
        <path d="M51.7137 40.3363L49.508 38.8122L50.3889 37.515L51.7137 40.3363Z" fill="white"/>
        <path d="M49.9794 35.5718L49.2695 38.1571L50.7781 38.5845L49.9794 35.5718Z" fill="white"/>
        <path d="M49.9794 35.5717L50.8679 38.1013L49.3928 38.6329L49.9794 35.5717Z" fill="white"/>
        <path d="M48.5819 40.4457L50.6758 38.7714L49.7066 37.5389L48.5819 40.4457Z" fill="white"/>
        <path d="M48.5819 40.4457L49.3499 37.877L50.8558 38.314L48.5819 40.4457Z" fill="white"/>
        <path d="M47.5102 37.5011L49.7497 38.9751L50.6223 37.6725L47.5102 37.5011Z" fill="white"/>
        <path d="M47.5103 37.5011L50.1906 37.4377L50.2403 39.0049L47.5103 37.5011Z" fill="white"/>
        <path d="M11.4976 37.324L13.6288 38.9507L14.5902 37.7121L11.4976 37.324Z" fill="white"/>
        <path d="M11.4977 37.324L14.1759 37.4478L14.1162 39.0146L11.4977 37.324Z" fill="white"/>
        <path d="M14.0956 35.5717L13.2071 38.1013L14.6822 38.6329L14.0956 35.5717Z" fill="white"/>
        <path d="M14.0956 35.5717L14.8055 38.1571L13.2969 38.5845L14.0956 35.5717Z" fill="white"/>
        <path d="M12.3615 40.3363L14.5672 38.8121L13.6863 37.515L12.3615 40.3363Z" fill="white"/>
        <path d="M12.3616 40.3363L13.3069 37.8274L14.7786 38.3683L12.3616 40.3363Z" fill="white"/>
        <path d="M16.5649 37.501L13.8846 37.4377L13.8348 39.0048L16.5649 37.501Z" fill="white"/>
        <path d="M16.565 37.501L14.3255 38.9751L13.4528 37.6724L16.565 37.501Z" fill="white"/>
        <path d="M15.493 40.4457L14.725 37.877L13.2192 38.3139L15.493 40.4457Z" fill="white"/>
        <path d="M15.493 40.4456L13.3991 38.7713L14.3683 37.5388L15.493 40.4456Z" fill="white"/>
        <path d="M15.2933 30.7498L16.7396 33.0073L18.0667 32.1722L15.2933 30.7498Z" fill="white"/>
        <path d="M15.2933 30.7498L17.7677 31.7821L17.1757 33.234L15.2933 30.7498Z" fill="white"/>
        <path d="M18.334 29.9918L16.6339 32.0649L17.8382 33.0689L18.334 29.9918Z" fill="white"/>
        <path d="M18.334 29.9918L18.1168 32.664L16.553 32.5497L18.334 29.9918Z" fill="white"/>
        <path d="M15.0748 33.8758L17.6687 33.198L17.2846 31.6778L15.0748 33.8758Z" fill="white"/>
        <path d="M15.0746 33.8759L16.821 31.8416L18.019 32.8533L15.0746 33.8759Z" fill="white"/>
        <path d="M19.9945 32.6492L17.4975 31.6729L16.9148 33.1286L19.9945 32.6492Z" fill="white"/>
        <path d="M19.9945 32.6492L17.386 33.2684L17.0114 31.7458L19.9945 32.6492Z" fill="white"/>
        <path d="M17.9802 35.0497L18.137 32.3732L16.5725 32.2688L17.9802 35.0497Z" fill="white"/>
        <path d="M17.9803 35.0496L16.5853 32.7601L17.9176 31.9334L17.9803 35.0496Z" fill="white"/>
        <path d="M21.1086 25.8703L21.6955 28.4863L23.2282 28.1555L21.1086 25.8703Z" fill="white"/>
        <path d="M21.1085 25.8703L23.0805 27.6866L22.0277 28.8485L21.1085 25.8703Z" fill="white"/>
        <path d="M24.2251 26.1979L21.9186 27.5645L22.7068 28.9199L24.2251 26.1979Z" fill="white"/>
        <path d="M24.2251 26.1979L23.107 28.6347L21.6766 27.9924L24.2251 26.1979Z" fill="white"/>
        <path d="M19.834 28.733L22.5033 28.9832L22.6623 27.4233L19.834 28.733Z" fill="white"/>
        <path d="M19.834 28.733L22.1708 27.4187L22.9505 28.7791L19.834 28.733Z" fill="white"/>
        <path d="M24.8764 29.263L22.8639 27.4916L21.8184 28.6601L24.8764 29.263Z" fill="white"/>
        <path d="M24.8763 29.263L22.2133 28.9527L22.3821 27.3938L24.8763 29.263Z" fill="white"/>
        <path d="M22.1627 30.8298L23.2255 28.3684L21.7911 27.7352L22.1627 30.8298Z" fill="white"/>
        <path d="M22.1627 30.8298L21.6349 28.2012L23.1696 27.8801L22.1627 30.8298Z" fill="white"/>
        <path d="M28.2419 23.2739L27.8987 25.9328L29.4521 26.1462L28.2419 23.2739Z" fill="white"/>
        <path d="M28.242 23.2739L29.4739 25.6551L28.0872 26.3869L28.242 23.2739Z" fill="white"/>
        <path d="M31.0583 24.6475L28.4234 25.1428L28.7006 26.6861L31.0583 24.6475Z" fill="white"/>
        <path d="M31.0584 24.6476L29.1744 26.555L28.0499 25.4623L31.0584 24.6476Z" fill="white"/>
        <path d="M26.0652 25.528L28.488 26.6761L29.1708 25.2646L26.0652 25.528Z" fill="white"/>
        <path d="M26.0652 25.5281L28.7106 25.0923L28.978 26.6373L26.0652 25.5281Z" fill="white"/>
        <path d="M30.6222 27.7507L29.3369 25.3978L27.9548 26.1383L30.6222 27.7507Z" fill="white"/>
        <path d="M30.6222 27.7507L28.2259 26.5484L28.9177 25.1413L30.6222 27.7507Z" fill="white"/>
        <path d="M27.5361 28.2949L29.3767 26.3454L28.2453 25.2598L27.5361 28.2949Z" fill="white"/>
        <path d="M27.5361 28.2949L27.9392 25.6443L29.4912 25.8674L27.5361 28.2949Z" fill="white"/>
    </g>
    <defs>
        <clipPath id="clip0_201_505">
            <rect width="64" height="64" rx="30" fill="white"/>
        </clipPath>
    </defs>
</svg>
