<svg width="24" height="24" viewBox="0 0 24 24" fill="none" xmlns="http://www.w3.org/2000/svg">
<path d="M19.79 4.21995C16.83 1.26995 12.03 1.26995 9.09 4.21995C7.02 6.26995 6.4 9.21995 7.2 11.8199L2.5 16.5199C2.17 16.8599 1.94 17.5299 2.01 18.0099L2.31 20.1899C2.42 20.9099 3.09 21.5899 3.81 21.6899L5.99 21.9899C6.47 22.0599 7.14 21.8399 7.48 21.4899L8.3 20.6699C8.5 20.4799 8.5 20.1599 8.3 19.9599L6.36 18.0199C6.07 17.7299 6.07 17.2499 6.36 16.9599C6.65 16.6699 7.13 16.6699 7.42 16.9599L9.37 18.9099C9.56 19.0999 9.88 19.0999 10.07 18.9099L12.19 16.7999C14.78 17.6099 17.73 16.9799 19.79 14.9299C22.74 11.9799 22.74 7.16995 19.79 4.21995ZM14.5 11.9999C13.12 11.9999 12 10.8799 12 9.49995C12 8.11995 13.12 6.99995 14.5 6.99995C15.88 6.99995 17 8.11995 17 9.49995C17 10.8799 15.88 11.9999 14.5 11.9999Z" fill="#39566A"/>
</svg>
