<svg width="84" height="84" viewBox="0 0 84 84" fill="none" xmlns="http://www.w3.org/2000/svg">
<g id="Group 1115">
<g id="Group 1114">
<path id="Vector" d="M58.346 26.1081H25.6541C23.4065 26.1081 21.5881 27.8959 21.5881 30.0811L21.5676 53.9189C21.5676 56.104 23.4065 57.8919 25.6541 57.8919H58.346C60.5936 57.8919 62.4325 56.104 62.4325 53.9189V30.0811C62.4325 27.8959 60.5936 26.1081 58.346 26.1081ZM57.5287 34.5507L43.083 43.3309C42.4291 43.7282 41.571 43.7282 40.9171 43.3309L26.4714 34.5507C26.2665 34.4388 26.0871 34.2878 25.944 34.1066C25.8009 33.9254 25.6971 33.7179 25.6389 33.4966C25.5807 33.2753 25.5693 33.0448 25.6054 32.8191C25.6415 32.5933 25.7243 32.3771 25.8488 32.1834C25.9733 31.9897 26.137 31.8225 26.3299 31.6921C26.5228 31.5617 26.7409 31.4706 26.971 31.4245C27.2011 31.3784 27.4384 31.3782 27.6687 31.4238C27.8989 31.4695 28.1172 31.5601 28.3103 31.6901L42.0001 40.0135L55.6898 31.6901C55.883 31.5601 56.1012 31.4695 56.3315 31.4238C56.5617 31.3782 56.799 31.3784 57.0291 31.4245C57.2593 31.4706 57.4774 31.5617 57.6702 31.6921C57.8631 31.8225 58.0268 31.9897 58.1513 32.1834C58.2758 32.3771 58.3587 32.5933 58.3947 32.8191C58.4308 33.0448 58.4194 33.2753 58.3612 33.4966C58.303 33.7179 58.1992 33.9254 58.0561 34.1066C57.913 34.2878 57.7336 34.4388 57.5287 34.5507Z" fill="#CCCCCC"/>
<circle id="Ellipse 106" cx="42" cy="42" r="39.5" stroke="#CCCCCC" stroke-width="5"/>
</g>
</g>
</svg>
