<svg width="31" height="24" viewBox="0 0 31 24" fill="none" xmlns="http://www.w3.org/2000/svg">
<g id="Scan">
<path id="Scan_2" fill-rule="evenodd" clip-rule="evenodd" d="M10.737 0C11.297 0 11.7516 0.445846 11.7516 0.99629C11.7516 1.54543 11.2983 1.99127 10.737 1.99127L8.56497 1.99258C6.76231 1.99519 5.29564 3.43472 5.29564 5.20372V7.68268C5.29564 8.23181 4.83964 8.67897 4.27964 8.67897C3.71964 8.67897 3.26497 8.23181 3.26497 7.68268V5.20372C3.26497 2.33775 5.64231 0.0039224 8.56364 0.00130747L10.7356 0H10.737ZM20.3008 0.000395775H22.4248C25.3542 0.000395775 27.7355 2.33553 27.7355 5.20804V7.68307C27.7355 8.23221 27.2822 8.67936 26.7208 8.67936C26.1608 8.67936 25.7062 8.23221 25.7062 7.68307V5.20804C25.7062 3.4338 24.2342 1.99036 22.4248 1.99036H20.3008C19.7408 1.99036 19.2862 1.54582 19.2862 0.996686C19.2862 0.446242 19.7408 0.000395775 20.3008 0.000395775ZM19.1834 4.99021H11.818C10.1327 5.0072 8.77804 6.35782 8.79271 8.01176V9.67225C8.79671 9.86575 8.95538 10.024 9.15271 10.0305H21.846C22.0447 10.0253 22.2034 9.86706 22.21 9.67225V8.01176C22.2114 7.2129 21.8967 6.44542 21.3287 5.87405C20.7647 5.30792 19.99 4.99021 19.1834 4.99021ZM1.84937 12.055H29.152C29.712 12.055 30.1667 12.5008 30.1667 13.0513C30.1667 13.6004 29.712 14.0449 29.152 14.0449H27.736V18.791C27.736 21.6649 25.3534 24 22.4254 24H20.3014C19.74 24 19.2854 23.5542 19.2854 23.0037C19.2854 22.4546 19.74 22.0087 20.3014 22.0087H22.4254C24.2347 22.0087 25.7067 20.5666 25.7067 18.791V14.0449H22.2094V15.3668C22.2227 17.0207 20.8694 18.3727 19.1827 18.3883H11.8174C10.132 18.3727 8.77871 17.0207 8.79204 15.3668V14.0449H5.29471V18.7963C5.29471 20.5653 6.76271 22.0048 8.56671 22.0074L10.7374 22.0087C11.2974 22.0087 11.752 22.4546 11.752 23.0037C11.7507 23.5542 11.2974 24 10.736 24L8.56404 23.9987C5.64271 23.9961 3.26404 21.6622 3.26404 18.7963V14.0449H1.84937C1.28937 14.0449 0.833374 13.6004 0.833374 13.0513C0.833374 12.5008 1.28937 12.055 1.84937 12.055Z" fill="white"/>
</g>
</svg>
