<svg width="24" height="21" viewBox="0 0 24 21" fill="none" xmlns="http://www.w3.org/2000/svg">
<path d="M23.9995 3.00114C23.2007 3.40841 22.4025 3.81618 21.6037 4.22344C18.9812 5.55963 16.3586 6.8948 13.7356 8.23098C10.8496 9.70089 7.96373 11.1708 5.07781 12.6407C3.40707 13.4918 1.73684 14.3435 0.0660975 15.1946C0.0472851 15.2043 0.0279643 15.2129 0.00152533 15.2256C0.00152533 15.1972 0.00152533 15.1778 0.00152533 15.1585C0.00152533 14.5108 0.00203377 13.863 0 13.2147C0 13.1674 0.0152533 13.1456 0.0564371 13.1247C0.331504 12.987 0.609114 12.8542 0.87808 12.7053C1.57007 12.3209 1.91225 11.7296 1.87361 10.9369C1.84615 10.371 1.83497 9.80563 1.88785 9.24126C2.05462 7.46629 2.63729 5.83978 3.65417 4.37445C4.76817 2.7693 6.22994 1.58462 8.02424 0.812301C8.74622 0.501643 9.49668 0.283012 10.271 0.149292C10.931 0.0348925 11.596 -0.0149348 12.2657 0.00387752C13.6659 0.043536 15.0026 0.355211 16.2737 0.943987C16.8518 1.21143 17.3994 1.53124 17.917 1.90291C17.9297 1.91206 17.9414 1.92223 17.9587 1.93545C17.9378 1.94765 17.9216 1.95782 17.9048 1.96646C17.3089 2.27051 16.7125 2.57354 16.1171 2.87861C16.0795 2.89793 16.0515 2.89895 16.0134 2.87861C15.1836 2.42101 14.301 2.11595 13.3664 1.96138C12.6328 1.83986 11.8955 1.81647 11.1552 1.89528C8.15338 2.21357 5.59032 4.08921 4.3843 6.85361C4.05788 7.60153 3.84993 8.3825 3.75434 9.19346C3.67756 9.84783 3.68061 10.5017 3.75841 11.1555C3.76146 11.1794 3.76603 11.2028 3.77112 11.2328C3.81128 11.2125 3.84789 11.1942 3.88501 11.1754C7.16599 9.50463 10.4475 7.8344 13.7284 6.16315C16.5788 4.71154 19.4291 3.25892 22.2794 1.80681C22.8347 1.52412 23.3894 1.24092 23.9446 0.958224C23.9619 0.94958 23.9812 0.944496 23.999 0.937378V3.00114H23.9995Z" fill="#39566A"/>
<path d="M11.7964 20.302C11.6688 20.2948 11.5416 20.2877 11.414 20.2806C10.659 20.2384 9.91819 20.1113 9.19163 19.9018C8.06441 19.5764 7.02363 19.0715 6.07081 18.3872C6.06115 18.3806 6.05251 18.3724 6.03827 18.3617C6.19487 18.2819 6.3474 18.2041 6.50044 18.1258C6.96465 17.8889 7.42886 17.6525 7.89256 17.414C7.92866 17.3957 7.95103 17.4064 7.98001 17.4221C8.61099 17.7704 9.27603 18.0318 9.97463 18.2072C10.7378 18.3989 11.5122 18.4792 12.2982 18.4517C15.9117 18.3251 19.0407 15.8536 20.0057 12.3667C20.2365 11.5318 20.3352 10.6817 20.3006 9.81687C20.2909 9.57536 20.2619 9.33486 20.2421 9.09386C20.2416 9.08624 20.238 9.07912 20.233 9.06234C13.489 12.4974 6.74958 15.9304 0.00153568 19.368C0.00153568 19.338 0.00153568 19.3186 0.00153568 19.2993C0.00153568 18.6516 0.00153568 18.0038 0.000518799 17.3555C0.000518799 17.3123 0.0117045 17.2894 0.0518715 17.2686C3.4864 15.5206 6.92042 13.7715 10.3544 12.0225C13.0787 10.6355 15.8029 9.24843 18.5276 7.86191C20.3514 6.93349 22.1757 6.00508 24 5.07666V7.15212C23.9873 7.15568 23.9731 7.15771 23.9614 7.16331C23.6802 7.30618 23.3965 7.44448 23.1184 7.59345C22.5616 7.89241 22.2352 8.35713 22.1371 8.98201C22.1061 9.17979 22.1274 9.37656 22.1381 9.57434C22.1717 10.1987 22.1503 10.821 22.0705 11.4413C21.9744 12.1888 21.7995 12.9173 21.5392 13.6246C20.9133 15.3248 19.9086 16.7612 18.5215 17.927C17.4935 18.7909 16.3363 19.4229 15.056 19.8276C14.2501 20.0823 13.4254 20.2338 12.5814 20.2811C12.4558 20.2882 12.3302 20.2954 12.2052 20.302H11.7974H11.7964Z" fill="#39566A"/>
</svg>
