<svg width="24" height="24" viewBox="0 0 24 24" fill="none" xmlns="http://www.w3.org/2000/svg">
<path d="M18.5 4.10995L13.51 2.23995C12.68 1.92995 11.32 1.92995 10.49 2.23995L5.50003 4.10995C4.35003 4.53995 3.41003 5.89995 3.41003 7.11995V14.5499C3.41003 15.7299 4.19003 17.2799 5.14003 17.9899L9.44004 21.1999C10.85 22.2599 13.17 22.2599 14.58 21.1999L18.88 17.9899C19.83 17.2799 20.61 15.7299 20.61 14.5499V7.11995C20.59 5.89995 19.65 4.53995 18.5 4.10995ZM11.93 7.02995C13.11 7.02995 14.07 7.98995 14.07 9.16994C14.07 10.3299 13.16 11.2599 12.01 11.2999H11.99H11.97C11.95 11.2999 11.93 11.2999 11.91 11.2999C10.71 11.2599 9.81004 10.3299 9.81004 9.16994C9.80004 7.98995 10.76 7.02995 11.93 7.02995ZM14.19 16.3599C13.58 16.7599 12.79 16.9699 12 16.9699C11.21 16.9699 10.41 16.7699 9.81004 16.3599C9.24004 15.9799 8.93004 15.4599 8.92004 14.8899C8.92004 14.3299 9.24004 13.7899 9.81004 13.4099C11.02 12.6099 12.99 12.6099 14.2 13.4099C14.77 13.7899 15.09 14.3099 15.09 14.8799C15.08 15.4399 14.76 15.9799 14.19 16.3599Z" fill="#39566A"/>
</svg>
