<svg width="24" height="24" viewBox="0 0 24 24" fill="none" xmlns="http://www.w3.org/2000/svg">
<path d="M14.6797 11.3412C14.6797 12.8211 13.48 14.0208 12.0001 14.0208C10.5202 14.0208 9.32043 12.8211 9.32043 11.3412C9.32043 9.86122 10.5202 8.6615 12.0001 8.6615C13.48 8.6615 14.6797 9.86122 14.6797 11.3412Z" fill="#39566A"/>
<path d="M21.7409 2.25896C21.2511 1.76949 20.6001 1.5 19.908 1.5H4.09218C3.40003 1.5 2.74906 1.76949 2.25896 2.25928C1.76949 2.74922 1.5 3.40003 1.5 4.09218V6.72825C1.5 7.42039 1.76949 8.0712 2.25928 8.56147C2.74922 9.05094 3.40003 9.32026 4.09218 9.32026H4.22355V4.79489C4.22355 4.45523 4.49897 4.17965 4.83879 4.17965H19.1615C19.5012 4.17965 19.7768 4.45523 19.7768 4.79489V9.32026H19.908C20.6001 9.32026 21.2509 9.05078 21.7412 8.56099C22.2307 8.0712 22.5002 7.42023 22.5002 6.72825V4.09218C22.5002 3.40003 22.2307 2.74922 21.7409 2.25896Z" fill="#39566A"/>
<path d="M5.45386 20.5669C5.45386 21.0836 5.65509 21.569 6.01991 21.9334C6.38489 22.2988 6.87035 22.5001 7.38705 22.5001H16.6131C17.1298 22.5001 17.6152 22.2988 17.9796 21.934C18.3449 21.569 18.5461 21.0836 18.5461 20.5669V5.41003H5.45386V20.5669ZM12.0001 7.43087C14.1561 7.43087 15.9102 9.18494 15.9102 11.341C15.9102 13.4971 14.1561 15.2511 12.0001 15.2511C9.844 15.2511 8.08993 13.4971 8.08993 11.341C8.08993 9.18494 9.844 7.43087 12.0001 7.43087ZM8.70517 17.9747H15.295C15.6348 17.9747 15.9102 18.2501 15.9102 18.5899C15.9102 18.9296 15.6348 19.2052 15.295 19.2052H8.70517C8.36535 19.2052 8.08993 18.9296 8.08993 18.5899C8.08993 18.2501 8.36535 17.9747 8.70517 17.9747Z" fill="#39566A"/>
</svg>
